<ttFont>
    <TTGlyph name=".notdef" xMin="32" yMin="0" xMax="440" yMax="780">
      <contour>
        <pt x="32" y="0" on="1"/>
        <pt x="32" y="780" on="1"/>
        <pt x="440" y="780" on="1"/>
        <pt x="440" y="0" on="1"/>
      </contour>
      <contour>
        <pt x="48" y="16" on="1"/>
        <pt x="424" y="16" on="1"/>
        <pt x="424" y="764" on="1"/>
        <pt x="48" y="764" on="1"/>
      </contour>
    </TTGlyph>
    <TTGlyph name="A" xMin="-12" yMin="0" xMax="519" yMax="698">
      <contour>
        <pt x="497" y="0" on="1"/>
        <pt x="452" y="234" on="1"/>
        <pt x="134" y="234" on="1"/>
        <pt x="12" y="0" on="1"/>
        <pt x="-12" y="0" on="1"/>
        <pt x="354" y="698" on="1"/>
        <pt x="384" y="698" on="1"/>
        <pt x="519" y="0" on="1"/>
      </contour>
      <contour>
        <pt x="367" y="673" on="1"/>
        <pt x="364" y="673" on="1"/>
        <pt x="144" y="253" on="1"/>
        <pt x="448" y="253" on="1"/>
      </contour>
    </TTGlyph>
    <TTGlyph name="AE" xMin="-21" yMin="0" xMax="903" yMax="698">
      <contour>
        <pt x="432" y="234" on="1"/>
        <pt x="180" y="234" on="1"/>
        <pt x="4" y="0" on="1"/>
        <pt x="-21" y="0" on="1"/>
        <pt x="502" y="698" on="1"/>
        <pt x="903" y="698" on="1"/>
        <pt x="899" y="678" on="1"/>
        <pt x="543" y="678" on="1"/>
        <pt x="480" y="364" on="1"/>
        <pt x="824" y="364" on="1"/>
        <pt x="820" y="344" on="1"/>
        <pt x="476" y="344" on="1"/>
        <pt x="411" y="20" on="1"/>
        <pt x="767" y="20" on="1"/>
        <pt x="763" y="0" on="1"/>
        <pt x="385" y="0" on="1"/>
      </contour>
      <contour>
        <pt x="511" y="678" on="1"/>
        <pt x="194" y="253" on="1"/>
        <pt x="436" y="253" on="1"/>
        <pt x="521" y="678" on="1"/>
      </contour>
    </TTGlyph>
    <TTGlyph name="AEacute" xMin="-21" yMin="0" xMax="903" yMax="931">
      <component glyphName="AE" x="0" y="0" flags="0x204"/>
      <component glyphName="acute.case" x="350" y="0" flags="0x4"/>
    </TTGlyph>
    <TTGlyph name="Aacute" xMin="-12" yMin="0" xMax="523" yMax="931">
      <component glyphName="A" x="0" y="0" flags="0x204"/>
      <component glyphName="acute.case" x="69" y="0" flags="0x4"/>
    </TTGlyph>
    <TTGlyph name="Abreve" xMin="-12" yMin="0" xMax="535" yMax="910">
      <component glyphName="A" x="0" y="0" flags="0x204"/>
      <component glyphName="breve.case" x="69" y="0" flags="0x4"/>
    </TTGlyph>
    <TTGlyph name="Acircumflex" xMin="-12" yMin="0" xMax="531" yMax="923">
      <component glyphName="A" x="0" y="0" flags="0x204"/>
      <component glyphName="circumflex.case" x="69" y="0" flags="0x4"/>
    </TTGlyph>
    <TTGlyph name="Adieresis" xMin="-12" yMin="0" xMax="519" yMax="868">
      <component glyphName="A" x="0" y="0" flags="0x204"/>
      <component glyphName="dieresis.case" x="69" y="0" flags="0x4"/>
    </TTGlyph>
    <TTGlyph name="Agrave" xMin="-12" yMin="0" xMax="519" yMax="932">
      <component glyphName="A" x="0" y="0" flags="0x204"/>
      <component glyphName="grave.case" x="69" y="0" flags="0x4"/>
    </TTGlyph>
    <TTGlyph name="Alpha" xMin="-12" yMin="0" xMax="519" yMax="698">
      <component glyphName="A" x="0" y="0" flags="0x204"/>
    </TTGlyph>
    <TTGlyph name="Alphatonos" xMin="-12" yMin="0" xMax="519" yMax="751">
      <component glyphName="A" x="0" y="0" flags="0x204"/>
      <component glyphName="tonos.case" x="-196" y="0" flags="0x4"/>
    </TTGlyph>
    <TTGlyph name="Amacron" xMin="-12" yMin="0" xMax="528" yMax="856">
      <component glyphName="A" x="0" y="0" flags="0x204"/>
      <component glyphName="macron.case" x="69" y="0" flags="0x4"/>
    </TTGlyph>
    <TTGlyph name="Aogonek" xMin="-12" yMin="-202" xMax="519" yMax="698">
      <contour>
        <pt x="354" y="698" on="1"/>
        <pt x="384" y="698" on="1"/>
        <pt x="519" y="0" on="1"/>
        <pt x="480" y="-22" on="0"/>
        <pt x="424" y="-55" on="0"/>
        <pt x="388" y="-86" on="0"/>
        <pt x="371" y="-117" on="0"/>
        <pt x="371" y="-136" on="1"/>
        <pt x="371" y="-160" on="0"/>
        <pt x="400" y="-184" on="0"/>
        <pt x="422" y="-184" on="1"/>
        <pt x="446" y="-184" on="0"/>
        <pt x="478" y="-168" on="0"/>
        <pt x="487" y="-159" on="1"/>
        <pt x="500" y="-170" on="1"/>
        <pt x="488" y="-184" on="0"/>
        <pt x="448" y="-202" on="0"/>
        <pt x="422" y="-202" on="1"/>
        <pt x="391" y="-202" on="0"/>
        <pt x="350" y="-170" on="0"/>
        <pt x="350" y="-136" on="1"/>
        <pt x="350" y="-122" on="0"/>
        <pt x="362" y="-92" on="0"/>
        <pt x="395" y="-59" on="0"/>
        <pt x="451" y="-21" on="0"/>
        <pt x="496" y="0" on="1"/>
        <pt x="452" y="234" on="1"/>
        <pt x="134" y="234" on="1"/>
        <pt x="12" y="0" on="1"/>
        <pt x="-12" y="0" on="1"/>
      </contour>
      <contour>
        <pt x="367" y="673" on="1"/>
        <pt x="364" y="673" on="1"/>
        <pt x="144" y="253" on="1"/>
        <pt x="448" y="253" on="1"/>
      </contour>
    </TTGlyph>
    <TTGlyph name="Aring" xMin="-12" yMin="0" xMax="519" yMax="951">
      <component glyphName="A" x="0" y="0" flags="0x204"/>
      <component glyphName="ring.case" x="69" y="0" flags="0x4"/>
    </TTGlyph>
    <TTGlyph name="Aringacute" xMin="-12" yMin="0" xMax="519" yMax="1089">
      <component glyphName="A" x="0" y="0" flags="0x204"/>
      <component glyphName="ringacute.case" x="69" y="0" flags="0x4"/>
    </TTGlyph>
    <TTGlyph name="Atilde" xMin="-12" yMin="0" xMax="537" yMax="882">
      <component glyphName="A" x="0" y="0" flags="0x204"/>
      <component glyphName="tilde.case" x="69" y="0" flags="0x4"/>
    </TTGlyph>
    <TTGlyph name="B" xMin="55" yMin="0" xMax="564" yMax="698">
      <contour>
        <pt x="193" y="698" on="1"/>
        <pt x="414" y="698" on="1"/>
        <pt x="486" y="698" on="0"/>
        <pt x="564" y="627" on="0"/>
        <pt x="564" y="561" on="1"/>
        <pt x="564" y="530" on="0"/>
        <pt x="552" y="469" on="0"/>
        <pt x="521" y="416" on="0"/>
        <pt x="469" y="378" on="0"/>
        <pt x="429" y="370" on="1"/>
        <pt x="429" y="367" on="1"/>
        <pt x="479" y="356" on="0"/>
        <pt x="531" y="279" on="0"/>
        <pt x="531" y="228" on="1"/>
        <pt x="531" y="119" on="0"/>
        <pt x="419" y="0" on="0"/>
        <pt x="321" y="0" on="1"/>
        <pt x="55" y="0" on="1"/>
      </contour>
      <contour>
        <pt x="323" y="20" on="1"/>
        <pt x="401" y="20" on="0"/>
        <pt x="488" y="99" on="0"/>
        <pt x="500" y="159" on="1"/>
        <pt x="506" y="188" on="0"/>
        <pt x="509" y="220" on="0"/>
        <pt x="509" y="228" on="1"/>
        <pt x="509" y="254" on="0"/>
        <pt x="494" y="301" on="0"/>
        <pt x="461" y="337" on="0"/>
        <pt x="411" y="358" on="0"/>
        <pt x="377" y="358" on="1"/>
        <pt x="148" y="358" on="1"/>
        <pt x="81" y="20" on="1"/>
      </contour>
      <contour>
        <pt x="367" y="378" on="1"/>
        <pt x="438" y="378" on="0"/>
        <pt x="522" y="440" on="0"/>
        <pt x="533" y="495" on="1"/>
        <pt x="539" y="527" on="0"/>
        <pt x="542" y="554" on="0"/>
        <pt x="542" y="562" on="1"/>
        <pt x="542" y="615" on="0"/>
        <pt x="482" y="678" on="0"/>
        <pt x="413" y="678" on="1"/>
        <pt x="211" y="678" on="1"/>
        <pt x="152" y="378" on="1"/>
      </contour>
    </TTGlyph>
    <TTGlyph name="Beta" xMin="55" yMin="0" xMax="564" yMax="698">
      <component glyphName="B" x="0" y="0" flags="0x204"/>
    </TTGlyph>
    <TTGlyph name="C" xMin="69" yMin="-12" xMax="589" yMax="710">
      <contour>
        <pt x="291" y="-12" on="1"/>
        <pt x="241" y="-12" on="0"/>
        <pt x="160" y="18" on="0"/>
        <pt x="101" y="77" on="0"/>
        <pt x="69" y="163" on="0"/>
        <pt x="69" y="220" on="1"/>
        <pt x="69" y="269" on="0"/>
        <pt x="84" y="381" on="0"/>
        <pt x="118" y="489" on="0"/>
        <pt x="169" y="589" on="0"/>
        <pt x="243" y="665" on="0"/>
        <pt x="338" y="710" on="0"/>
        <pt x="398" y="710" on="1"/>
        <pt x="482" y="710" on="0"/>
        <pt x="572" y="634" on="0"/>
        <pt x="589" y="569" on="1"/>
        <pt x="568" y="564" on="1"/>
        <pt x="560" y="592" on="0"/>
        <pt x="534" y="639" on="0"/>
        <pt x="493" y="672" on="0"/>
        <pt x="436" y="690" on="0"/>
        <pt x="397" y="690" on="1"/>
        <pt x="344" y="690" on="0"/>
        <pt x="252" y="647" on="0"/>
        <pt x="178" y="567" on="0"/>
        <pt x="126" y="454" on="0"/>
        <pt x="112" y="384" on="1"/>
        <pt x="101" y="329" on="1"/>
        <pt x="95" y="297" on="0"/>
        <pt x="91" y="241" on="0"/>
        <pt x="91" y="220" on="1"/>
        <pt x="91" y="122" on="0"/>
        <pt x="194" y="8" on="0"/>
        <pt x="291" y="8" on="1"/>
        <pt x="361" y="8" on="0"/>
        <pt x="460" y="79" on="0"/>
        <pt x="500" y="151" on="1"/>
        <pt x="519" y="141" on="1"/>
        <pt x="472" y="59" on="0"/>
        <pt x="364" y="-12" on="0"/>
      </contour>
    </TTGlyph>
    <TTGlyph name="Cacute" xMin="69" yMin="-12" xMax="589" yMax="931">
      <component glyphName="C" x="0" y="0" flags="0x204"/>
      <component glyphName="acute.case" x="98" y="0" flags="0x4"/>
    </TTGlyph>
    <TTGlyph name="Ccaron" xMin="69" yMin="-12" xMax="589" yMax="927">
      <component glyphName="C" x="0" y="0" flags="0x204"/>
      <component glyphName="caron.case" x="98" y="0" flags="0x4"/>
    </TTGlyph>
    <TTGlyph name="Ccedilla" xMin="69" yMin="-202" xMax="589" yMax="710">
      <contour>
        <pt x="397" y="690" on="1"/>
        <pt x="344" y="690" on="0"/>
        <pt x="252" y="647" on="0"/>
        <pt x="178" y="567" on="0"/>
        <pt x="126" y="454" on="0"/>
        <pt x="112" y="384" on="1"/>
        <pt x="101" y="329" on="1"/>
        <pt x="95" y="297" on="0"/>
        <pt x="91" y="241" on="0"/>
        <pt x="91" y="220" on="1"/>
        <pt x="91" y="122" on="0"/>
        <pt x="194" y="8" on="0"/>
        <pt x="291" y="8" on="1"/>
        <pt x="361" y="8" on="0"/>
        <pt x="460" y="79" on="0"/>
        <pt x="500" y="151" on="1"/>
        <pt x="519" y="141" on="1"/>
        <pt x="473" y="61" on="0"/>
        <pt x="367" y="-11" on="0"/>
        <pt x="296" y="-12" on="1"/>
        <pt x="269" y="-73" on="1"/>
        <pt x="271" y="-75" on="1"/>
        <pt x="278" y="-73" on="0"/>
        <pt x="294" y="-72" on="0"/>
        <pt x="300" y="-72" on="1"/>
        <pt x="327" y="-72" on="0"/>
        <pt x="357" y="-100" on="0"/>
        <pt x="357" y="-125" on="1"/>
        <pt x="357" y="-157" on="0"/>
        <pt x="306" y="-202" on="0"/>
        <pt x="263" y="-202" on="1"/>
        <pt x="235" y="-202" on="0"/>
        <pt x="196" y="-183" on="0"/>
        <pt x="188" y="-170" on="1"/>
        <pt x="202" y="-157" on="1"/>
        <pt x="223" y="-184" on="0"/>
        <pt x="263" y="-184" on="1"/>
        <pt x="295" y="-184" on="0"/>
        <pt x="336" y="-152" on="0"/>
        <pt x="336" y="-126" on="1"/>
        <pt x="336" y="-109" on="0"/>
        <pt x="313" y="-88" on="0"/>
        <pt x="284" y="-86" on="1"/>
        <pt x="247" y="-84" on="1"/>
        <pt x="279" y="-12" on="1"/>
        <pt x="232" y="-10" on="0"/>
        <pt x="154" y="22" on="0"/>
        <pt x="99" y="80" on="0"/>
        <pt x="69" y="165" on="0"/>
        <pt x="69" y="220" on="1"/>
        <pt x="69" y="269" on="0"/>
        <pt x="84" y="381" on="0"/>
        <pt x="118" y="489" on="0"/>
        <pt x="169" y="589" on="0"/>
        <pt x="243" y="665" on="0"/>
        <pt x="338" y="710" on="0"/>
        <pt x="398" y="710" on="1"/>
        <pt x="482" y="710" on="0"/>
        <pt x="572" y="634" on="0"/>
        <pt x="589" y="569" on="1"/>
        <pt x="568" y="564" on="1"/>
        <pt x="560" y="592" on="0"/>
        <pt x="534" y="639" on="0"/>
        <pt x="493" y="672" on="0"/>
        <pt x="436" y="690" on="0"/>
      </contour>
    </TTGlyph>
    <TTGlyph name="Ccircumflex" xMin="69" yMin="-12" xMax="589" yMax="923">
      <component glyphName="C" x="0" y="0" flags="0x204"/>
      <component glyphName="circumflex.case" x="98" y="0" flags="0x4"/>
    </TTGlyph>
    <TTGlyph name="Cdotaccent" xMin="69" yMin="-12" xMax="589" yMax="871">
      <component glyphName="C" x="0" y="0" flags="0x204"/>
      <component glyphName="dotaccent.case" x="98" y="0" flags="0x4"/>
    </TTGlyph>
    <TTGlyph name="Chi" xMin="-29" yMin="0" xMax="602" yMax="698">
      <component glyphName="X" x="0" y="0" flags="0x204"/>
    </TTGlyph>
    <TTGlyph name="D" xMin="55" yMin="0" xMax="610" yMax="698">
      <contour>
        <pt x="193" y="698" on="1"/>
        <pt x="378" y="698" on="1"/>
        <pt x="493" y="698" on="0"/>
        <pt x="610" y="577" on="0"/>
        <pt x="610" y="468" on="1"/>
        <pt x="610" y="383" on="0"/>
        <pt x="572" y="215" on="0"/>
        <pt x="491" y="82" on="0"/>
        <pt x="367" y="0" on="0"/>
        <pt x="282" y="0" on="1"/>
        <pt x="55" y="0" on="1"/>
      </contour>
      <contour>
        <pt x="282" y="20" on="1"/>
        <pt x="341" y="20" on="0"/>
        <pt x="436" y="65" on="0"/>
        <pt x="508" y="143" on="0"/>
        <pt x="555" y="246" on="0"/>
        <pt x="567" y="303" on="1"/>
        <pt x="578" y="358" on="1"/>
        <pt x="584" y="390" on="0"/>
        <pt x="588" y="447" on="0"/>
        <pt x="588" y="468" on="1"/>
        <pt x="588" y="565" on="0"/>
        <pt x="483" y="678" on="0"/>
        <pt x="375" y="678" on="1"/>
        <pt x="211" y="678" on="1"/>
        <pt x="81" y="20" on="1"/>
      </contour>
    </TTGlyph>
    <TTGlyph name="Dcaron" xMin="55" yMin="0" xMax="610" yMax="927">
      <component glyphName="D" x="0" y="0" flags="0x204"/>
      <component glyphName="caron.case" x="67" y="0" flags="0x4"/>
    </TTGlyph>
    <TTGlyph name="Dcroat" xMin="41" yMin="0" xMax="613" yMax="698">
      <contour>
        <pt x="129" y="359" on="1"/>
        <pt x="41" y="359" on="1"/>
        <pt x="45" y="378" on="1"/>
        <pt x="133" y="378" on="1"/>
        <pt x="196" y="698" on="1"/>
        <pt x="381" y="698" on="1"/>
        <pt x="496" y="698" on="0"/>
        <pt x="613" y="577" on="0"/>
        <pt x="613" y="468" on="1"/>
        <pt x="613" y="383" on="0"/>
        <pt x="575" y="215" on="0"/>
        <pt x="494" y="82" on="0"/>
        <pt x="370" y="0" on="0"/>
        <pt x="285" y="0" on="1"/>
        <pt x="58" y="0" on="1"/>
      </contour>
      <contour>
        <pt x="285" y="20" on="1"/>
        <pt x="344" y="20" on="0"/>
        <pt x="439" y="65" on="0"/>
        <pt x="511" y="143" on="0"/>
        <pt x="558" y="246" on="0"/>
        <pt x="570" y="303" on="1"/>
        <pt x="581" y="358" on="1"/>
        <pt x="587" y="390" on="0"/>
        <pt x="591" y="447" on="0"/>
        <pt x="591" y="468" on="1"/>
        <pt x="591" y="565" on="0"/>
        <pt x="486" y="678" on="0"/>
        <pt x="378" y="678" on="1"/>
        <pt x="214" y="678" on="1"/>
        <pt x="155" y="378" on="1"/>
        <pt x="322" y="378" on="1"/>
        <pt x="318" y="359" on="1"/>
        <pt x="151" y="359" on="1"/>
        <pt x="84" y="20" on="1"/>
      </contour>
    </TTGlyph>
    <TTGlyph name="Delta" xMin="-5" yMin="0" xMax="515" yMax="698">
      <contour>
        <pt x="-1" y="21" on="1"/>
        <pt x="354" y="698" on="1"/>
        <pt x="384" y="698" on="1"/>
        <pt x="515" y="22" on="1"/>
        <pt x="511" y="0" on="1"/>
        <pt x="-5" y="0" on="1"/>
      </contour>
      <contour>
        <pt x="367" y="673" on="1"/>
        <pt x="364" y="673" on="1"/>
        <pt x="22" y="20" on="1"/>
        <pt x="493" y="20" on="1"/>
      </contour>
    </TTGlyph>
    <TTGlyph name="E" xMin="54" yMin="0" xMax="572" yMax="698">
      <contour>
        <pt x="54" y="0" on="1"/>
        <pt x="194" y="698" on="1"/>
        <pt x="572" y="698" on="1"/>
        <pt x="568" y="678" on="1"/>
        <pt x="212" y="678" on="1"/>
        <pt x="149" y="364" on="1"/>
        <pt x="493" y="364" on="1"/>
        <pt x="489" y="344" on="1"/>
        <pt x="145" y="344" on="1"/>
        <pt x="80" y="20" on="1"/>
        <pt x="436" y="20" on="1"/>
        <pt x="432" y="0" on="1"/>
      </contour>
    </TTGlyph>
    <TTGlyph name="Eacute" xMin="54" yMin="0" xMax="572" yMax="931">
      <component glyphName="E" x="0" y="0" flags="0x204"/>
      <component glyphName="acute.case" x="80" y="0" flags="0x4"/>
    </TTGlyph>
    <TTGlyph name="Ebreve" xMin="54" yMin="0" xMax="572" yMax="910">
      <component glyphName="E" x="0" y="0" flags="0x204"/>
      <component glyphName="breve.case" x="80" y="0" flags="0x4"/>
    </TTGlyph>
    <TTGlyph name="Ecaron" xMin="54" yMin="0" xMax="572" yMax="927">
      <component glyphName="E" x="0" y="0" flags="0x204"/>
      <component glyphName="caron.case" x="80" y="0" flags="0x4"/>
    </TTGlyph>
    <TTGlyph name="Ecircumflex" xMin="54" yMin="0" xMax="572" yMax="923">
      <component glyphName="E" x="0" y="0" flags="0x204"/>
      <component glyphName="circumflex.case" x="80" y="0" flags="0x4"/>
    </TTGlyph>
    <TTGlyph name="Edieresis" xMin="54" yMin="0" xMax="572" yMax="868">
      <component glyphName="E" x="0" y="0" flags="0x204"/>
      <component glyphName="dieresis.case" x="80" y="0" flags="0x4"/>
    </TTGlyph>
    <TTGlyph name="Edotaccent" xMin="54" yMin="0" xMax="572" yMax="871">
      <component glyphName="E" x="0" y="0" flags="0x204"/>
      <component glyphName="dotaccent.case" x="80" y="0" flags="0x4"/>
    </TTGlyph>
    <TTGlyph name="Egrave" xMin="54" yMin="0" xMax="572" yMax="932">
      <component glyphName="E" x="0" y="0" flags="0x204"/>
      <component glyphName="grave.case" x="80" y="0" flags="0x4"/>
    </TTGlyph>
    <TTGlyph name="Emacron" xMin="54" yMin="0" xMax="572" yMax="856">
      <component glyphName="E" x="0" y="0" flags="0x204"/>
      <component glyphName="macron.case" x="80" y="0" flags="0x4"/>
    </TTGlyph>
    <TTGlyph name="Eng" xMin="54" yMin="-200" xMax="664" yMax="698">
      <contour>
        <pt x="54" y="0" on="1"/>
        <pt x="194" y="698" on="1"/>
        <pt x="224" y="698" on="1"/>
        <pt x="506" y="27" on="1"/>
        <pt x="509" y="27" on="1"/>
        <pt x="643" y="698" on="1"/>
        <pt x="664" y="698" on="1"/>
        <pt x="490" y="-171" on="1"/>
        <pt x="484" y="-200" on="0"/>
        <pt x="455" y="-200" on="1"/>
        <pt x="378" y="-200" on="1"/>
        <pt x="382" y="-181" on="1"/>
        <pt x="467" y="-181" on="1"/>
        <pt x="503" y="0" on="1"/>
        <pt x="494" y="0" on="1"/>
        <pt x="212" y="671" on="1"/>
        <pt x="209" y="671" on="1"/>
        <pt x="75" y="0" on="1"/>
      </contour>
    </TTGlyph>
    <TTGlyph name="Eogonek" xMin="54" yMin="-202" xMax="572" yMax="698">
      <contour>
        <pt x="194" y="698" on="1"/>
        <pt x="572" y="698" on="1"/>
        <pt x="568" y="678" on="1"/>
        <pt x="212" y="678" on="1"/>
        <pt x="149" y="364" on="1"/>
        <pt x="493" y="364" on="1"/>
        <pt x="489" y="344" on="1"/>
        <pt x="145" y="344" on="1"/>
        <pt x="80" y="20" on="1"/>
        <pt x="436" y="20" on="1"/>
        <pt x="432" y="0" on="1"/>
        <pt x="393" y="-22" on="0"/>
        <pt x="337" y="-55" on="0"/>
        <pt x="301" y="-86" on="0"/>
        <pt x="284" y="-117" on="0"/>
        <pt x="284" y="-136" on="1"/>
        <pt x="284" y="-160" on="0"/>
        <pt x="313" y="-184" on="0"/>
        <pt x="335" y="-184" on="1"/>
        <pt x="359" y="-184" on="0"/>
        <pt x="391" y="-168" on="0"/>
        <pt x="400" y="-159" on="1"/>
        <pt x="413" y="-170" on="1"/>
        <pt x="401" y="-184" on="0"/>
        <pt x="361" y="-202" on="0"/>
        <pt x="335" y="-202" on="1"/>
        <pt x="304" y="-202" on="0"/>
        <pt x="263" y="-170" on="0"/>
        <pt x="263" y="-136" on="1"/>
        <pt x="263" y="-123" on="0"/>
        <pt x="275" y="-93" on="0"/>
        <pt x="306" y="-60" on="0"/>
        <pt x="360" y="-24" on="0"/>
        <pt x="402" y="-3" on="1"/>
        <pt x="401" y="0" on="1"/>
        <pt x="54" y="0" on="1"/>
      </contour>
    </TTGlyph>
    <TTGlyph name="Epsilon" xMin="54" yMin="0" xMax="572" yMax="698">
      <component glyphName="E" x="0" y="0" flags="0x204"/>
    </TTGlyph>
    <TTGlyph name="Epsilontonos" xMin="48" yMin="0" xMax="594" yMax="751">
      <component glyphName="E" x="22" y="0" flags="0x4"/>
      <component glyphName="tonos.case" x="-301" y="0" flags="0x4"/>
    </TTGlyph>
    <TTGlyph name="Eta" xMin="54" yMin="0" xMax="664" yMax="698">
      <component glyphName="H" x="0" y="0" flags="0x204"/>
    </TTGlyph>
    <TTGlyph name="Etatonos" xMin="48" yMin="0" xMax="686" yMax="751">
      <component glyphName="H" x="22" y="0" flags="0x4"/>
      <component glyphName="tonos.case" x="-301" y="0" flags="0x4"/>
    </TTGlyph>
    <TTGlyph name="Eth" xMin="41" yMin="0" xMax="613" yMax="698">
      <component glyphName="Dcroat" x="0" y="0" flags="0x204"/>
    </TTGlyph>
    <TTGlyph name="Euro" xMin="69" yMin="-12" xMax="589" yMax="710">
      <contour>
        <pt x="291" y="-12" on="1"/>
        <pt x="241" y="-12" on="0"/>
        <pt x="160" y="18" on="0"/>
        <pt x="101" y="77" on="0"/>
        <pt x="69" y="163" on="0"/>
        <pt x="69" y="220" on="1"/>
        <pt x="69" y="269" on="0"/>
        <pt x="84" y="381" on="0"/>
        <pt x="118" y="489" on="0"/>
        <pt x="169" y="589" on="0"/>
        <pt x="243" y="665" on="0"/>
        <pt x="338" y="710" on="0"/>
        <pt x="398" y="710" on="1"/>
        <pt x="482" y="710" on="0"/>
        <pt x="572" y="634" on="0"/>
        <pt x="589" y="569" on="1"/>
        <pt x="568" y="564" on="1"/>
        <pt x="560" y="592" on="0"/>
        <pt x="534" y="639" on="0"/>
        <pt x="493" y="672" on="0"/>
        <pt x="436" y="690" on="0"/>
        <pt x="397" y="690" on="1"/>
        <pt x="349" y="690" on="0"/>
        <pt x="264" y="654" on="0"/>
        <pt x="194" y="588" on="0"/>
        <pt x="141" y="494" on="0"/>
        <pt x="124" y="435" on="1"/>
        <pt x="386" y="435" on="1"/>
        <pt x="382" y="416" on="1"/>
        <pt x="119" y="416" on="1"/>
        <pt x="111" y="385" on="0"/>
        <pt x="99" y="326" on="0"/>
        <pt x="94" y="282" on="1"/>
        <pt x="356" y="282" on="1"/>
        <pt x="352" y="263" on="1"/>
        <pt x="92" y="263" on="1"/>
        <pt x="91" y="252" on="0"/>
        <pt x="91" y="220" on="1"/>
        <pt x="91" y="122" on="0"/>
        <pt x="194" y="8" on="0"/>
        <pt x="291" y="8" on="1"/>
        <pt x="361" y="8" on="0"/>
        <pt x="460" y="79" on="0"/>
        <pt x="500" y="151" on="1"/>
        <pt x="519" y="141" on="1"/>
        <pt x="472" y="59" on="0"/>
        <pt x="364" y="-12" on="0"/>
      </contour>
    </TTGlyph>
    <TTGlyph name="F" xMin="54" yMin="0" xMax="564" yMax="698">
      <contour>
        <pt x="54" y="0" on="1"/>
        <pt x="194" y="698" on="1"/>
        <pt x="564" y="698" on="1"/>
        <pt x="560" y="678" on="1"/>
        <pt x="212" y="678" on="1"/>
        <pt x="149" y="364" on="1"/>
        <pt x="483" y="364" on="1"/>
        <pt x="479" y="344" on="1"/>
        <pt x="145" y="344" on="1"/>
        <pt x="76" y="0" on="1"/>
      </contour>
    </TTGlyph>
    <TTGlyph name="G" xMin="69" yMin="-12" xMax="610" yMax="710">
      <contour>
        <pt x="525" y="114" on="1"/>
        <pt x="522" y="114" on="1"/>
        <pt x="483" y="48" on="0"/>
        <pt x="367" y="-12" on="0"/>
        <pt x="295" y="-12" on="1"/>
        <pt x="245" y="-12" on="0"/>
        <pt x="162" y="18" on="0"/>
        <pt x="102" y="77" on="0"/>
        <pt x="69" y="163" on="0"/>
        <pt x="69" y="220" on="1"/>
        <pt x="69" y="269" on="0"/>
        <pt x="84" y="381" on="0"/>
        <pt x="117" y="489" on="0"/>
        <pt x="170" y="589" on="0"/>
        <pt x="244" y="665" on="0"/>
        <pt x="341" y="710" on="0"/>
        <pt x="403" y="710" on="1"/>
        <pt x="494" y="710" on="0"/>
        <pt x="592" y="635" on="0"/>
        <pt x="610" y="569" on="1"/>
        <pt x="589" y="564" on="1"/>
        <pt x="572" y="622" on="0"/>
        <pt x="487" y="690" on="0"/>
        <pt x="402" y="690" on="1"/>
        <pt x="347" y="690" on="0"/>
        <pt x="253" y="647" on="0"/>
        <pt x="179" y="567" on="0"/>
        <pt x="126" y="454" on="0"/>
        <pt x="112" y="384" on="1"/>
        <pt x="101" y="329" on="1"/>
        <pt x="95" y="297" on="0"/>
        <pt x="91" y="241" on="0"/>
        <pt x="91" y="220" on="1"/>
        <pt x="91" y="122" on="0"/>
        <pt x="195" y="8" on="0"/>
        <pt x="295" y="8" on="1"/>
        <pt x="335" y="8" on="0"/>
        <pt x="414" y="31" on="0"/>
        <pt x="481" y="79" on="0"/>
        <pt x="530" y="153" on="0"/>
        <pt x="541" y="205" on="1"/>
        <pt x="563" y="312" on="1"/>
        <pt x="387" y="312" on="1"/>
        <pt x="391" y="332" on="1"/>
        <pt x="589" y="332" on="1"/>
        <pt x="523" y="0" on="1"/>
        <pt x="502" y="0" on="1"/>
      </contour>
    </TTGlyph>
    <TTGlyph name="Gamma" xMin="54" yMin="0" xMax="534" yMax="698">
      <component glyphName="uni0413" x="0" y="0" flags="0x204"/>
    </TTGlyph>
    <TTGlyph name="Gbreve" xMin="69" yMin="-12" xMax="610" yMax="910">
      <component glyphName="G" x="0" y="0" flags="0x204"/>
      <component glyphName="breve.case" x="105" y="0" flags="0x4"/>
    </TTGlyph>
    <TTGlyph name="Gcircumflex" xMin="69" yMin="-12" xMax="610" yMax="923">
      <component glyphName="G" x="0" y="0" flags="0x204"/>
      <component glyphName="circumflex.case" x="105" y="0" flags="0x4"/>
    </TTGlyph>
    <TTGlyph name="Gcommaaccent" xMin="69" yMin="-212" xMax="610" yMax="710">
      <component glyphName="G" x="0" y="0" flags="0x204"/>
      <component glyphName="uni0326" x="296" y="0" flags="0x4"/>
    </TTGlyph>
    <TTGlyph name="Gdotaccent" xMin="69" yMin="-12" xMax="610" yMax="871">
      <component glyphName="G" x="0" y="0" flags="0x204"/>
      <component glyphName="dotaccent.case" x="105" y="0" flags="0x4"/>
    </TTGlyph>
    <TTGlyph name="H" xMin="54" yMin="0" xMax="664" yMax="698">
      <contour>
        <pt x="571" y="344" on="1"/>
        <pt x="145" y="344" on="1"/>
        <pt x="76" y="0" on="1"/>
        <pt x="54" y="0" on="1"/>
        <pt x="194" y="698" on="1"/>
        <pt x="216" y="698" on="1"/>
        <pt x="149" y="364" on="1"/>
        <pt x="575" y="364" on="1"/>
        <pt x="642" y="698" on="1"/>
        <pt x="664" y="698" on="1"/>
        <pt x="524" y="0" on="1"/>
        <pt x="502" y="0" on="1"/>
      </contour>
    </TTGlyph>
    <TTGlyph name="Hbar" xMin="57" yMin="0" xMax="722" yMax="698">
      <contour>
        <pt x="574" y="344" on="1"/>
        <pt x="148" y="344" on="1"/>
        <pt x="79" y="0" on="1"/>
        <pt x="57" y="0" on="1"/>
        <pt x="165" y="537" on="1"/>
        <pt x="82" y="537" on="1"/>
        <pt x="86" y="556" on="1"/>
        <pt x="169" y="556" on="1"/>
        <pt x="197" y="698" on="1"/>
        <pt x="219" y="698" on="1"/>
        <pt x="191" y="556" on="1"/>
        <pt x="617" y="556" on="1"/>
        <pt x="645" y="698" on="1"/>
        <pt x="667" y="698" on="1"/>
        <pt x="639" y="556" on="1"/>
        <pt x="722" y="556" on="1"/>
        <pt x="718" y="537" on="1"/>
        <pt x="635" y="537" on="1"/>
        <pt x="527" y="0" on="1"/>
        <pt x="505" y="0" on="1"/>
      </contour>
      <contour>
        <pt x="578" y="364" on="1"/>
        <pt x="613" y="537" on="1"/>
        <pt x="187" y="537" on="1"/>
        <pt x="152" y="364" on="1"/>
      </contour>
    </TTGlyph>
    <TTGlyph name="Hcircumflex" xMin="54" yMin="0" xMax="664" yMax="923">
      <component glyphName="H" x="0" y="0" flags="0x204"/>
      <component glyphName="circumflex.case" x="129" y="0" flags="0x4"/>
    </TTGlyph>
    <TTGlyph name="I" xMin="15" yMin="0" xMax="391" yMax="698">
      <contour>
        <pt x="15" y="0" on="1"/>
        <pt x="19" y="19" on="1"/>
        <pt x="126" y="19" on="1"/>
        <pt x="258" y="679" on="1"/>
        <pt x="151" y="679" on="1"/>
        <pt x="155" y="698" on="1"/>
        <pt x="391" y="698" on="1"/>
        <pt x="387" y="679" on="1"/>
        <pt x="280" y="679" on="1"/>
        <pt x="148" y="19" on="1"/>
        <pt x="255" y="19" on="1"/>
        <pt x="251" y="0" on="1"/>
      </contour>
    </TTGlyph>
    <TTGlyph name="IJ" xMin="69" yMin="-12" xMax="616" yMax="698">
      <contour>
        <pt x="616" y="698" on="1"/>
        <pt x="517" y="202" on="1"/>
        <pt x="496" y="97" on="0"/>
        <pt x="367" y="-12" on="0"/>
        <pt x="264" y="-12" on="1"/>
        <pt x="176" y="-12" on="0"/>
        <pt x="76" y="68" on="0"/>
        <pt x="69" y="134" on="1"/>
        <pt x="89" y="139" on="1"/>
        <pt x="96" y="71" on="0"/>
        <pt x="192" y="7" on="0"/>
        <pt x="267" y="7" on="1"/>
        <pt x="358" y="7" on="0"/>
        <pt x="476" y="107" on="0"/>
        <pt x="495" y="202" on="1"/>
        <pt x="590" y="678" on="1"/>
        <pt x="394" y="678" on="1"/>
        <pt x="398" y="698" on="1"/>
      </contour>
      <contour>
        <pt x="185" y="698" on="1"/>
        <pt x="207" y="698" on="1"/>
        <pt x="125" y="290" on="1"/>
        <pt x="103" y="290" on="1"/>
      </contour>
    </TTGlyph>
    <TTGlyph name="IJacute" xMin="69" yMin="-12" xMax="692" yMax="931">
      <component glyphName="IJ" x="0" y="0" flags="0x204"/>
      <component glyphName="acute.case" x="-82" y="0" flags="0x4"/>
      <component glyphName="acute.case" x="238" y="0" flags="0x4"/>
    </TTGlyph>
    <TTGlyph name="Iacute" xMin="15" yMin="0" xMax="427" yMax="931">
      <component glyphName="I" x="0" y="0" flags="0x204"/>
      <component glyphName="acute.case" x="-27" y="0" flags="0x4"/>
    </TTGlyph>
    <TTGlyph name="Ibreve" xMin="15" yMin="0" xMax="439" yMax="910">
      <component glyphName="I" x="0" y="0" flags="0x204"/>
      <component glyphName="breve.case" x="-27" y="0" flags="0x4"/>
    </TTGlyph>
    <TTGlyph name="Icircumflex" xMin="15" yMin="0" xMax="450" yMax="923">
      <component glyphName="I" x="0" y="0" flags="0x204"/>
      <component glyphName="circumflex.case" x="-12" y="0" flags="0x4"/>
    </TTGlyph>
    <TTGlyph name="Idieresis" xMin="15" yMin="0" xMax="416" yMax="868">
      <component glyphName="I" x="0" y="0" flags="0x204"/>
      <component glyphName="dieresis.case" x="-27" y="0" flags="0x4"/>
    </TTGlyph>
    <TTGlyph name="Idotaccent" xMin="15" yMin="0" xMax="391" yMax="871">
      <component glyphName="I" x="0" y="0" flags="0x204"/>
      <component glyphName="dotaccent.case" x="-27" y="0" flags="0x4"/>
    </TTGlyph>
    <TTGlyph name="Igrave" xMin="15" yMin="0" xMax="391" yMax="932">
      <component glyphName="I" x="0" y="0" flags="0x204"/>
      <component glyphName="grave.case" x="-27" y="0" flags="0x4"/>
    </TTGlyph>
    <TTGlyph name="Imacron" xMin="15" yMin="0" xMax="432" yMax="856">
      <component glyphName="I" x="0" y="0" flags="0x204"/>
      <component glyphName="macron.case" x="-27" y="0" flags="0x4"/>
    </TTGlyph>
    <TTGlyph name="Iogonek" xMin="15" yMin="-202" xMax="391" yMax="698">
      <contour>
        <pt x="19" y="19" on="1"/>
        <pt x="126" y="19" on="1"/>
        <pt x="258" y="679" on="1"/>
        <pt x="151" y="679" on="1"/>
        <pt x="155" y="698" on="1"/>
        <pt x="391" y="698" on="1"/>
        <pt x="387" y="679" on="1"/>
        <pt x="280" y="679" on="1"/>
        <pt x="148" y="19" on="1"/>
        <pt x="255" y="19" on="1"/>
        <pt x="251" y="0" on="1"/>
        <pt x="212" y="-22" on="0"/>
        <pt x="156" y="-55" on="0"/>
        <pt x="120" y="-86" on="0"/>
        <pt x="103" y="-117" on="0"/>
        <pt x="103" y="-136" on="1"/>
        <pt x="103" y="-160" on="0"/>
        <pt x="132" y="-184" on="0"/>
        <pt x="154" y="-184" on="1"/>
        <pt x="178" y="-184" on="0"/>
        <pt x="210" y="-168" on="0"/>
        <pt x="219" y="-159" on="1"/>
        <pt x="232" y="-170" on="1"/>
        <pt x="220" y="-184" on="0"/>
        <pt x="180" y="-202" on="0"/>
        <pt x="154" y="-202" on="1"/>
        <pt x="123" y="-202" on="0"/>
        <pt x="82" y="-170" on="0"/>
        <pt x="82" y="-136" on="1"/>
        <pt x="82" y="-123" on="0"/>
        <pt x="94" y="-93" on="0"/>
        <pt x="125" y="-60" on="0"/>
        <pt x="179" y="-24" on="0"/>
        <pt x="221" y="-3" on="1"/>
        <pt x="220" y="0" on="1"/>
        <pt x="15" y="0" on="1"/>
      </contour>
    </TTGlyph>
    <TTGlyph name="Iota" xMin="15" yMin="0" xMax="391" yMax="698">
      <component glyphName="I" x="0" y="0" flags="0x204"/>
    </TTGlyph>
    <TTGlyph name="Iotadieresis" xMin="15" yMin="0" xMax="416" yMax="868">
      <component glyphName="I" x="0" y="0" flags="0x204"/>
      <component glyphName="dieresis.case" x="-27" y="0" flags="0x4"/>
    </TTGlyph>
    <TTGlyph name="Iotatonos" xMin="48" yMin="0" xMax="442" yMax="751">
      <component glyphName="I" x="51" y="0" flags="0x4"/>
      <component glyphName="tonos.case" x="-301" y="0" flags="0x4"/>
    </TTGlyph>
    <TTGlyph name="Itilde" xMin="15" yMin="0" xMax="441" yMax="882">
      <component glyphName="I" x="0" y="0" flags="0x204"/>
      <component glyphName="tilde.case" x="-27" y="0" flags="0x4"/>
    </TTGlyph>
    <TTGlyph name="J" xMin="-14" yMin="-12" xMax="446" yMax="698">
      <contour>
        <pt x="446" y="698" on="1"/>
        <pt x="343" y="178" on="1"/>
        <pt x="325" y="86" on="0"/>
        <pt x="220" y="-12" on="0"/>
        <pt x="142" y="-12" on="1"/>
        <pt x="69" y="-12" on="0"/>
        <pt x="-9" y="61" on="0"/>
        <pt x="-14" y="118" on="1"/>
        <pt x="6" y="123" on="1"/>
        <pt x="12" y="65" on="0"/>
        <pt x="83" y="8" on="0"/>
        <pt x="142" y="8" on="1"/>
        <pt x="214" y="8" on="0"/>
        <pt x="305" y="99" on="0"/>
        <pt x="322" y="184" on="1"/>
        <pt x="421" y="678" on="1"/>
        <pt x="175" y="678" on="1"/>
        <pt x="178" y="698" on="1"/>
      </contour>
    </TTGlyph>
    <TTGlyph name="Jacute" xMin="-14" yMin="-12" xMax="448" yMax="931">
      <component glyphName="J" x="0" y="0" flags="0x204"/>
      <component glyphName="acute.case" x="-6" y="0" flags="0x4"/>
    </TTGlyph>
    <TTGlyph name="Jcircumflex" xMin="-14" yMin="-12" xMax="456" yMax="923">
      <component glyphName="J" x="0" y="0" flags="0x204"/>
      <component glyphName="circumflex.case" x="-6" y="0" flags="0x4"/>
    </TTGlyph>
    <TTGlyph name="K" xMin="54" yMin="0" xMax="633" yMax="698">
      <contour>
        <pt x="290" y="388" on="1"/>
        <pt x="125" y="237" on="1"/>
        <pt x="76" y="0" on="1"/>
        <pt x="54" y="0" on="1"/>
        <pt x="194" y="698" on="1"/>
        <pt x="216" y="698" on="1"/>
        <pt x="131" y="271" on="1"/>
        <pt x="134" y="271" on="1"/>
        <pt x="300" y="423" on="1"/>
        <pt x="604" y="698" on="1"/>
        <pt x="633" y="698" on="1"/>
        <pt x="307" y="402" on="1"/>
        <pt x="497" y="0" on="1"/>
        <pt x="474" y="0" on="1"/>
      </contour>
    </TTGlyph>
    <TTGlyph name="Kappa" xMin="54" yMin="0" xMax="633" yMax="698">
      <component glyphName="K" x="0" y="0" flags="0x204"/>
    </TTGlyph>
    <TTGlyph name="Kcommaaccent" xMin="54" yMin="-212" xMax="633" yMax="698">
      <component glyphName="K" x="0" y="0" flags="0x204"/>
      <component glyphName="uni0326" x="263" y="0" flags="0x4"/>
    </TTGlyph>
    <TTGlyph name="L" xMin="54" yMin="0" xMax="405" yMax="698">
      <contour>
        <pt x="54" y="0" on="1"/>
        <pt x="194" y="698" on="1"/>
        <pt x="216" y="698" on="1"/>
        <pt x="80" y="20" on="1"/>
        <pt x="405" y="20" on="1"/>
        <pt x="401" y="0" on="1"/>
      </contour>
    </TTGlyph>
    <TTGlyph name="Lacute" xMin="54" yMin="0" xMax="405" yMax="931">
      <component glyphName="L" x="0" y="0" flags="0x204"/>
      <component glyphName="acute.case" x="-86" y="0" flags="0x4"/>
    </TTGlyph>
    <TTGlyph name="Lambda" xMin="-12" yMin="0" xMax="519" yMax="698">
      <contour>
        <pt x="384" y="698" on="1"/>
        <pt x="519" y="0" on="1"/>
        <pt x="497" y="0" on="1"/>
        <pt x="367" y="673" on="1"/>
        <pt x="364" y="673" on="1"/>
        <pt x="12" y="0" on="1"/>
        <pt x="-12" y="0" on="1"/>
        <pt x="354" y="698" on="1"/>
      </contour>
    </TTGlyph>
    <TTGlyph name="Lcaron" xMin="54" yMin="0" xMax="405" yMax="740">
      <component glyphName="L" x="0" y="0" flags="0x204"/>
      <component glyphName="uni02BC" x="24" y="0" flags="0x4"/>
    </TTGlyph>
    <TTGlyph name="Lcommaaccent" xMin="54" yMin="-212" xMax="405" yMax="698">
      <component glyphName="L" x="0" y="0" flags="0x204"/>
      <component glyphName="uni0326" x="232" y="0" flags="0x4"/>
    </TTGlyph>
    <TTGlyph name="Ldot" xMin="54" yMin="0" xMax="405" yMax="698">
      <component glyphName="L" x="0" y="0" flags="0x204"/>
      <component glyphName="dotaccent" x="24" y="-368" flags="0x4"/>
    </TTGlyph>
    <TTGlyph name="Lslash" xMin="20" yMin="0" xMax="408" yMax="698">
      <contour>
        <pt x="404" y="0" on="1"/>
        <pt x="57" y="0" on="1"/>
        <pt x="118" y="303" on="1"/>
        <pt x="20" y="272" on="1"/>
        <pt x="21" y="292" on="1"/>
        <pt x="122" y="324" on="1"/>
        <pt x="197" y="698" on="1"/>
        <pt x="219" y="698" on="1"/>
        <pt x="145" y="331" on="1"/>
        <pt x="347" y="394" on="1"/>
        <pt x="346" y="374" on="1"/>
        <pt x="141" y="310" on="1"/>
        <pt x="83" y="20" on="1"/>
        <pt x="408" y="20" on="1"/>
      </contour>
    </TTGlyph>
    <TTGlyph name="M" xMin="54" yMin="0" xMax="764" yMax="698">
      <contour>
        <pt x="738" y="673" on="1"/>
        <pt x="735" y="673" on="1"/>
        <pt x="386" y="236" on="1"/>
        <pt x="213" y="673" on="1"/>
        <pt x="210" y="673" on="1"/>
        <pt x="75" y="0" on="1"/>
        <pt x="54" y="0" on="1"/>
        <pt x="194" y="698" on="1"/>
        <pt x="226" y="698" on="1"/>
        <pt x="392" y="278" on="1"/>
        <pt x="395" y="278" on="1"/>
        <pt x="729" y="698" on="1"/>
        <pt x="764" y="698" on="1"/>
        <pt x="624" y="0" on="1"/>
        <pt x="603" y="0" on="1"/>
      </contour>
    </TTGlyph>
    <TTGlyph name="Mu" xMin="54" yMin="0" xMax="764" yMax="698">
      <component glyphName="M" x="0" y="0" flags="0x204"/>
    </TTGlyph>
    <TTGlyph name="N" xMin="54" yMin="0" xMax="664" yMax="698">
      <contour>
        <pt x="212" y="671" on="1"/>
        <pt x="209" y="671" on="1"/>
        <pt x="75" y="0" on="1"/>
        <pt x="54" y="0" on="1"/>
        <pt x="194" y="698" on="1"/>
        <pt x="224" y="698" on="1"/>
        <pt x="506" y="27" on="1"/>
        <pt x="509" y="27" on="1"/>
        <pt x="643" y="698" on="1"/>
        <pt x="664" y="698" on="1"/>
        <pt x="524" y="0" on="1"/>
        <pt x="494" y="0" on="1"/>
      </contour>
    </TTGlyph>
    <TTGlyph name="Nacute" xMin="54" yMin="0" xMax="664" yMax="931">
      <component glyphName="N" x="0" y="0" flags="0x204"/>
      <component glyphName="acute.case" x="138" y="0" flags="0x4"/>
    </TTGlyph>
    <TTGlyph name="Ncaron" xMin="54" yMin="0" xMax="664" yMax="927">
      <component glyphName="N" x="0" y="0" flags="0x204"/>
      <component glyphName="caron.case" x="138" y="0" flags="0x4"/>
    </TTGlyph>
    <TTGlyph name="Ncommaaccent" xMin="54" yMin="-212" xMax="664" yMax="698">
      <component glyphName="N" x="0" y="0" flags="0x204"/>
      <component glyphName="uni0326" x="297" y="0" flags="0x4"/>
    </TTGlyph>
    <TTGlyph name="Ntilde" xMin="54" yMin="0" xMax="664" yMax="882">
      <component glyphName="N" x="0" y="0" flags="0x204"/>
      <component glyphName="tilde.case" x="138" y="0" flags="0x4"/>
    </TTGlyph>
    <TTGlyph name="Nu" xMin="54" yMin="0" xMax="664" yMax="698">
      <component glyphName="N" x="0" y="0" flags="0x204"/>
    </TTGlyph>
    <TTGlyph name="O" xMin="69" yMin="-12" xMax="623" yMax="710">
      <contour>
        <pt x="291" y="-12" on="1"/>
        <pt x="241" y="-12" on="0"/>
        <pt x="160" y="18" on="0"/>
        <pt x="101" y="77" on="0"/>
        <pt x="69" y="163" on="0"/>
        <pt x="69" y="220" on="1"/>
        <pt x="69" y="269" on="0"/>
        <pt x="84" y="381" on="0"/>
        <pt x="117" y="489" on="0"/>
        <pt x="170" y="589" on="0"/>
        <pt x="243" y="665" on="0"/>
        <pt x="340" y="710" on="0"/>
        <pt x="401" y="710" on="1"/>
        <pt x="450" y="710" on="0"/>
        <pt x="532" y="680" on="0"/>
        <pt x="591" y="621" on="0"/>
        <pt x="623" y="535" on="0"/>
        <pt x="623" y="478" on="1"/>
        <pt x="623" y="429" on="0"/>
        <pt x="608" y="317" on="0"/>
        <pt x="575" y="209" on="0"/>
        <pt x="522" y="109" on="0"/>
        <pt x="449" y="33" on="0"/>
        <pt x="352" y="-12" on="0"/>
      </contour>
      <contour>
        <pt x="291" y="8" on="1"/>
        <pt x="345" y="8" on="0"/>
        <pt x="439" y="51" on="0"/>
        <pt x="513" y="131" on="0"/>
        <pt x="566" y="244" on="0"/>
        <pt x="580" y="314" on="1"/>
        <pt x="591" y="369" on="1"/>
        <pt x="597" y="401" on="0"/>
        <pt x="601" y="457" on="0"/>
        <pt x="601" y="478" on="1"/>
        <pt x="601" y="576" on="0"/>
        <pt x="498" y="690" on="0"/>
        <pt x="401" y="690" on="1"/>
        <pt x="347" y="690" on="0"/>
        <pt x="253" y="647" on="0"/>
        <pt x="179" y="567" on="0"/>
        <pt x="126" y="454" on="0"/>
        <pt x="112" y="384" on="1"/>
        <pt x="101" y="329" on="1"/>
        <pt x="95" y="297" on="0"/>
        <pt x="91" y="241" on="0"/>
        <pt x="91" y="220" on="1"/>
        <pt x="91" y="122" on="0"/>
        <pt x="194" y="8" on="0"/>
      </contour>
    </TTGlyph>
    <TTGlyph name="OE" xMin="69" yMin="-12" xMax="947" yMax="710">
      <contour>
        <pt x="432" y="0" on="1"/>
        <pt x="406" y="-8" on="0"/>
        <pt x="338" y="-12" on="0"/>
        <pt x="312" y="-12" on="1"/>
        <pt x="258" y="-12" on="0"/>
        <pt x="168" y="17" on="0"/>
        <pt x="104" y="74" on="0"/>
        <pt x="69" y="160" on="0"/>
        <pt x="69" y="217" on="1"/>
        <pt x="69" y="243" on="0"/>
        <pt x="77" y="336" on="0"/>
        <pt x="102" y="446" on="0"/>
        <pt x="149" y="559" on="0"/>
        <pt x="228" y="651" on="0"/>
        <pt x="344" y="710" on="0"/>
        <pt x="426" y="710" on="1"/>
        <pt x="462" y="710" on="0"/>
        <pt x="542" y="703" on="0"/>
        <pt x="569" y="698" on="1"/>
        <pt x="947" y="698" on="1"/>
        <pt x="943" y="678" on="1"/>
        <pt x="587" y="678" on="1"/>
        <pt x="524" y="364" on="1"/>
        <pt x="868" y="364" on="1"/>
        <pt x="864" y="344" on="1"/>
        <pt x="520" y="344" on="1"/>
        <pt x="455" y="20" on="1"/>
        <pt x="811" y="20" on="1"/>
        <pt x="807" y="0" on="1"/>
      </contour>
      <contour>
        <pt x="312" y="8" on="1"/>
        <pt x="325" y="8" on="0"/>
        <pt x="356" y="8" on="0"/>
        <pt x="388" y="11" on="0"/>
        <pt x="420" y="17" on="0"/>
        <pt x="433" y="22" on="1"/>
        <pt x="565" y="677" on="1"/>
        <pt x="542" y="682" on="0"/>
        <pt x="463" y="690" on="0"/>
        <pt x="424" y="690" on="1"/>
        <pt x="361" y="690" on="0"/>
        <pt x="259" y="646" on="0"/>
        <pt x="181" y="568" on="0"/>
        <pt x="129" y="462" on="0"/>
        <pt x="116" y="400" on="1"/>
        <pt x="104" y="341" on="1"/>
        <pt x="97" y="306" on="0"/>
        <pt x="91" y="241" on="0"/>
        <pt x="91" y="217" on="1"/>
        <pt x="91" y="115" on="0"/>
        <pt x="206" y="8" on="0"/>
      </contour>
    </TTGlyph>
    <TTGlyph name="Oacute" xMin="69" yMin="-12" xMax="623" yMax="931">
      <component glyphName="O" x="0" y="0" flags="0x204"/>
      <component glyphName="acute.case" x="121" y="0" flags="0x4"/>
    </TTGlyph>
    <TTGlyph name="Obreve" xMin="69" yMin="-12" xMax="623" yMax="910">
      <component glyphName="O" x="0" y="0" flags="0x204"/>
      <component glyphName="breve.case" x="121" y="0" flags="0x4"/>
    </TTGlyph>
    <TTGlyph name="Ocircumflex" xMin="69" yMin="-12" xMax="623" yMax="923">
      <component glyphName="O" x="0" y="0" flags="0x204"/>
      <component glyphName="circumflex.case" x="121" y="0" flags="0x4"/>
    </TTGlyph>
    <TTGlyph name="Odieresis" xMin="69" yMin="-12" xMax="623" yMax="868">
      <component glyphName="O" x="0" y="0" flags="0x204"/>
      <component glyphName="dieresis.case" x="121" y="0" flags="0x4"/>
    </TTGlyph>
    <TTGlyph name="Ograve" xMin="69" yMin="-12" xMax="623" yMax="932">
      <component glyphName="O" x="0" y="0" flags="0x204"/>
      <component glyphName="grave.case" x="121" y="0" flags="0x4"/>
    </TTGlyph>
    <TTGlyph name="Ohorn" xMin="69" yMin="-12" xMax="657" yMax="811">
      <contour>
        <pt x="657" y="811" on="1"/>
        <pt x="638" y="709" on="1"/>
        <pt x="632" y="680" on="0"/>
        <pt x="603" y="680" on="1"/>
        <pt x="523" y="680" on="1"/>
        <pt x="571" y="652" on="0"/>
        <pt x="623" y="550" on="0"/>
        <pt x="623" y="478" on="1"/>
        <pt x="623" y="429" on="0"/>
        <pt x="608" y="317" on="0"/>
        <pt x="575" y="209" on="0"/>
        <pt x="522" y="109" on="0"/>
        <pt x="449" y="33" on="0"/>
        <pt x="352" y="-12" on="0"/>
        <pt x="291" y="-12" on="1"/>
        <pt x="241" y="-12" on="0"/>
        <pt x="160" y="18" on="0"/>
        <pt x="101" y="77" on="0"/>
        <pt x="69" y="163" on="0"/>
        <pt x="69" y="220" on="1"/>
        <pt x="69" y="269" on="0"/>
        <pt x="84" y="381" on="0"/>
        <pt x="117" y="489" on="0"/>
        <pt x="170" y="589" on="0"/>
        <pt x="243" y="665" on="0"/>
        <pt x="340" y="710" on="0"/>
        <pt x="401" y="710" on="1"/>
        <pt x="425" y="710" on="0"/>
        <pt x="463" y="704" on="0"/>
        <pt x="483" y="698" on="1"/>
        <pt x="615" y="698" on="1"/>
        <pt x="637" y="811" on="1"/>
      </contour>
      <contour>
        <pt x="291" y="8" on="1"/>
        <pt x="345" y="8" on="0"/>
        <pt x="439" y="51" on="0"/>
        <pt x="513" y="131" on="0"/>
        <pt x="566" y="244" on="0"/>
        <pt x="580" y="314" on="1"/>
        <pt x="591" y="369" on="1"/>
        <pt x="597" y="401" on="0"/>
        <pt x="601" y="457" on="0"/>
        <pt x="601" y="478" on="1"/>
        <pt x="601" y="576" on="0"/>
        <pt x="498" y="690" on="0"/>
        <pt x="401" y="690" on="1"/>
        <pt x="347" y="690" on="0"/>
        <pt x="253" y="647" on="0"/>
        <pt x="179" y="567" on="0"/>
        <pt x="126" y="454" on="0"/>
        <pt x="112" y="384" on="1"/>
        <pt x="101" y="329" on="1"/>
        <pt x="95" y="297" on="0"/>
        <pt x="91" y="241" on="0"/>
        <pt x="91" y="220" on="1"/>
        <pt x="91" y="122" on="0"/>
        <pt x="194" y="8" on="0"/>
      </contour>
    </TTGlyph>
    <TTGlyph name="Ohungarumlaut" xMin="69" yMin="-12" xMax="654" yMax="931">
      <component glyphName="O" x="0" y="0" flags="0x204"/>
      <component glyphName="hungarumlaut.case" x="121" y="0" flags="0x4"/>
    </TTGlyph>
    <TTGlyph name="Omacron" xMin="69" yMin="-12" xMax="623" yMax="856">
      <component glyphName="O" x="0" y="0" flags="0x204"/>
      <component glyphName="macron.case" x="121" y="0" flags="0x4"/>
    </TTGlyph>
    <TTGlyph name="Omega" xMin="25" yMin="0" xMax="630" yMax="710">
      <contour>
        <pt x="28" y="20" on="1"/>
        <pt x="200" y="20" on="1"/>
        <pt x="204" y="41" on="1"/>
        <pt x="182" y="58" on="0"/>
        <pt x="140" y="99" on="0"/>
        <pt x="108" y="153" on="0"/>
        <pt x="88" y="224" on="0"/>
        <pt x="88" y="272" on="1"/>
        <pt x="88" y="315" on="0"/>
        <pt x="101" y="413" on="0"/>
        <pt x="131" y="510" on="0"/>
        <pt x="179" y="600" on="0"/>
        <pt x="251" y="669" on="0"/>
        <pt x="347" y="710" on="0"/>
        <pt x="410" y="710" on="1"/>
        <pt x="515" y="710" on="0"/>
        <pt x="630" y="599" on="0"/>
        <pt x="630" y="492" on="1"/>
        <pt x="630" y="404" on="0"/>
        <pt x="595" y="260" on="0"/>
        <pt x="531" y="148" on="0"/>
        <pt x="441" y="66" on="0"/>
        <pt x="386" y="40" on="1"/>
        <pt x="382" y="20" on="1"/>
        <pt x="552" y="20" on="1"/>
        <pt x="549" y="0" on="1"/>
        <pt x="357" y="0" on="1"/>
        <pt x="366" y="49" on="1"/>
        <pt x="447" y="86" on="0"/>
        <pt x="567" y="227" on="0"/>
        <pt x="587" y="327" on="1"/>
        <pt x="599" y="389" on="1"/>
        <pt x="604" y="415" on="0"/>
        <pt x="608" y="468" on="0"/>
        <pt x="608" y="492" on="1"/>
        <pt x="608" y="589" on="0"/>
        <pt x="506" y="690" on="0"/>
        <pt x="410" y="690" on="1"/>
        <pt x="305" y="690" on="0"/>
        <pt x="154" y="550" on="0"/>
        <pt x="128" y="416" on="1"/>
        <pt x="116" y="354" on="1"/>
        <pt x="113" y="337" on="0"/>
        <pt x="110" y="293" on="0"/>
        <pt x="110" y="272" on="1"/>
        <pt x="110" y="227" on="0"/>
        <pt x="128" y="159" on="0"/>
        <pt x="159" y="106" on="0"/>
        <pt x="202" y="66" on="0"/>
        <pt x="227" y="49" on="1"/>
        <pt x="217" y="0" on="1"/>
        <pt x="25" y="0" on="1"/>
      </contour>
    </TTGlyph>
    <TTGlyph name="Omegatonos" xMin="33" yMin="0" xMax="638" yMax="751">
      <component glyphName="Omega" x="8" y="0" flags="0x4"/>
      <component glyphName="tonos.case" x="-301" y="0" flags="0x4"/>
    </TTGlyph>
    <TTGlyph name="Omicron" xMin="69" yMin="-12" xMax="623" yMax="710">
      <component glyphName="O" x="0" y="0" flags="0x204"/>
    </TTGlyph>
    <TTGlyph name="Omicrontonos" xMin="48" yMin="-12" xMax="633" yMax="751">
      <component glyphName="O" x="10" y="0" flags="0x4"/>
      <component glyphName="tonos.case" x="-301" y="0" flags="0x4"/>
    </TTGlyph>
    <TTGlyph name="Oslash" xMin="3" yMin="-33" xMax="689" yMax="731">
      <contour>
        <pt x="291" y="-12" on="1"/>
        <pt x="232" y="-12" on="0"/>
        <pt x="140" y="29" on="0"/>
        <pt x="111" y="71" on="1"/>
        <pt x="18" y="-33" on="1"/>
        <pt x="3" y="-21" on="1"/>
        <pt x="100" y="88" on="1"/>
        <pt x="69" y="142" on="0"/>
        <pt x="69" y="220" on="1"/>
        <pt x="69" y="269" on="0"/>
        <pt x="84" y="381" on="0"/>
        <pt x="118" y="489" on="0"/>
        <pt x="170" y="589" on="0"/>
        <pt x="244" y="665" on="0"/>
        <pt x="340" y="710" on="0"/>
        <pt x="401" y="710" on="1"/>
        <pt x="460" y="710" on="0"/>
        <pt x="552" y="669" on="0"/>
        <pt x="581" y="627" on="1"/>
        <pt x="674" y="731" on="1"/>
        <pt x="689" y="719" on="1"/>
        <pt x="592" y="610" on="1"/>
        <pt x="623" y="556" on="0"/>
        <pt x="623" y="478" on="1"/>
        <pt x="623" y="429" on="0"/>
        <pt x="608" y="317" on="0"/>
        <pt x="575" y="209" on="0"/>
        <pt x="522" y="109" on="0"/>
        <pt x="449" y="33" on="0"/>
        <pt x="352" y="-12" on="0"/>
      </contour>
      <contour>
        <pt x="101" y="329" on="1"/>
        <pt x="95" y="297" on="0"/>
        <pt x="91" y="241" on="0"/>
        <pt x="91" y="220" on="1"/>
        <pt x="91" y="153" on="0"/>
        <pt x="115" y="105" on="1"/>
        <pt x="567" y="611" on="1"/>
        <pt x="542" y="649" on="0"/>
        <pt x="458" y="690" on="0"/>
        <pt x="401" y="690" on="1"/>
        <pt x="347" y="690" on="0"/>
        <pt x="253" y="647" on="0"/>
        <pt x="179" y="567" on="0"/>
        <pt x="126" y="454" on="0"/>
        <pt x="112" y="384" on="1"/>
      </contour>
      <contour>
        <pt x="591" y="369" on="1"/>
        <pt x="597" y="401" on="0"/>
        <pt x="601" y="457" on="0"/>
        <pt x="601" y="478" on="1"/>
        <pt x="601" y="545" on="0"/>
        <pt x="577" y="593" on="1"/>
        <pt x="125" y="87" on="1"/>
        <pt x="150" y="49" on="0"/>
        <pt x="234" y="8" on="0"/>
        <pt x="291" y="8" on="1"/>
        <pt x="345" y="8" on="0"/>
        <pt x="439" y="51" on="0"/>
        <pt x="513" y="131" on="0"/>
        <pt x="566" y="244" on="0"/>
        <pt x="580" y="314" on="1"/>
      </contour>
    </TTGlyph>
    <TTGlyph name="Oslashacute" xMin="3" yMin="-33" xMax="689" yMax="931">
      <component glyphName="Oslash" x="0" y="0" flags="0x204"/>
      <component glyphName="acute.case" x="113" y="0" flags="0x4"/>
    </TTGlyph>
    <TTGlyph name="Otilde" xMin="69" yMin="-12" xMax="623" yMax="882">
      <component glyphName="O" x="0" y="0" flags="0x204"/>
      <component glyphName="tilde.case" x="121" y="0" flags="0x4"/>
    </TTGlyph>
    <TTGlyph name="P" xMin="54" yMin="0" xMax="596" yMax="698">
      <contour>
        <pt x="54" y="0" on="1"/>
        <pt x="194" y="698" on="1"/>
        <pt x="445" y="698" on="1"/>
        <pt x="518" y="698" on="0"/>
        <pt x="596" y="614" on="0"/>
        <pt x="596" y="550" on="1"/>
        <pt x="596" y="441" on="0"/>
        <pt x="484" y="322" on="0"/>
        <pt x="386" y="322" on="1"/>
        <pt x="141" y="322" on="1"/>
        <pt x="76" y="0" on="1"/>
      </contour>
      <contour>
        <pt x="145" y="342" on="1"/>
        <pt x="388" y="342" on="1"/>
        <pt x="466" y="342" on="0"/>
        <pt x="553" y="421" on="0"/>
        <pt x="565" y="481" on="1"/>
        <pt x="571" y="510" on="0"/>
        <pt x="574" y="542" on="0"/>
        <pt x="574" y="550" on="1"/>
        <pt x="574" y="576" on="0"/>
        <pt x="559" y="623" on="0"/>
        <pt x="527" y="658" on="0"/>
        <pt x="477" y="678" on="0"/>
        <pt x="443" y="678" on="1"/>
        <pt x="211" y="678" on="1"/>
      </contour>
    </TTGlyph>
    <TTGlyph name="Phi" xMin="76" yMin="-29" xMax="773" yMax="725">
      <contour>
        <pt x="350" y="37" on="1"/>
        <pt x="317" y="37" on="1"/>
        <pt x="258" y="37" on="0"/>
        <pt x="168" y="73" on="0"/>
        <pt x="107" y="139" on="0"/>
        <pt x="76" y="233" on="0"/>
        <pt x="76" y="290" on="1"/>
        <pt x="76" y="372" on="0"/>
        <pt x="126" y="511" on="0"/>
        <pt x="220" y="613" on="0"/>
        <pt x="354" y="671" on="0"/>
        <pt x="439" y="671" on="1"/>
        <pt x="477" y="671" on="1"/>
        <pt x="488" y="725" on="1"/>
        <pt x="510" y="725" on="1"/>
        <pt x="499" y="671" on="1"/>
        <pt x="532" y="671" on="1"/>
        <pt x="591" y="671" on="0"/>
        <pt x="681" y="635" on="0"/>
        <pt x="742" y="569" on="0"/>
        <pt x="773" y="475" on="0"/>
        <pt x="773" y="418" on="1"/>
        <pt x="773" y="336" on="0"/>
        <pt x="723" y="197" on="0"/>
        <pt x="629" y="95" on="0"/>
        <pt x="495" y="37" on="0"/>
        <pt x="410" y="37" on="1"/>
        <pt x="372" y="37" on="1"/>
        <pt x="359" y="-29" on="1"/>
        <pt x="337" y="-29" on="1"/>
      </contour>
      <contour>
        <pt x="473" y="651" on="1"/>
        <pt x="438" y="651" on="1"/>
        <pt x="363" y="651" on="0"/>
        <pt x="249" y="605" on="0"/>
        <pt x="169" y="534" on="0"/>
        <pt x="122" y="450" on="0"/>
        <pt x="115" y="412" on="1"/>
        <pt x="106" y="367" on="1"/>
        <pt x="103" y="352" on="0"/>
        <pt x="100" y="330" on="0"/>
        <pt x="98" y="313" on="0"/>
        <pt x="98" y="298" on="0"/>
        <pt x="98" y="290" on="1"/>
        <pt x="98" y="183" on="0"/>
        <pt x="210" y="57" on="0"/>
        <pt x="320" y="57" on="1"/>
        <pt x="354" y="57" on="1"/>
      </contour>
      <contour>
        <pt x="411" y="57" on="1"/>
        <pt x="486" y="57" on="0"/>
        <pt x="600" y="103" on="0"/>
        <pt x="680" y="173" on="0"/>
        <pt x="726" y="258" on="0"/>
        <pt x="734" y="296" on="1"/>
        <pt x="743" y="341" on="1"/>
        <pt x="746" y="356" on="0"/>
        <pt x="749" y="378" on="0"/>
        <pt x="751" y="395" on="0"/>
        <pt x="751" y="410" on="0"/>
        <pt x="751" y="418" on="1"/>
        <pt x="751" y="471" on="0"/>
        <pt x="723" y="557" on="0"/>
        <pt x="667" y="618" on="0"/>
        <pt x="584" y="651" on="0"/>
        <pt x="529" y="651" on="1"/>
        <pt x="495" y="651" on="1"/>
        <pt x="376" y="57" on="1"/>
      </contour>
    </TTGlyph>
    <TTGlyph name="Pi" xMin="54" yMin="0" xMax="649" yMax="698">
      <component glyphName="uni041F" x="0" y="0" flags="0x204"/>
    </TTGlyph>
    <TTGlyph name="Psi" xMin="112" yMin="0" xMax="717" yMax="698">
      <contour>
        <pt x="332" y="208" on="1"/>
        <pt x="226" y="208" on="0"/>
        <pt x="112" y="296" on="0"/>
        <pt x="112" y="380" on="1"/>
        <pt x="112" y="407" on="0"/>
        <pt x="118" y="465" on="0"/>
        <pt x="127" y="509" on="1"/>
        <pt x="165" y="698" on="1"/>
        <pt x="187" y="698" on="1"/>
        <pt x="148" y="504" on="1"/>
        <pt x="140" y="468" on="0"/>
        <pt x="134" y="412" on="0"/>
        <pt x="134" y="380" on="1"/>
        <pt x="134" y="308" on="0"/>
        <pt x="231" y="228" on="0"/>
        <pt x="336" y="228" on="1"/>
        <pt x="430" y="698" on="1"/>
        <pt x="452" y="698" on="1"/>
        <pt x="358" y="228" on="1"/>
        <pt x="422" y="228" on="0"/>
        <pt x="519" y="253" on="0"/>
        <pt x="590" y="311" on="0"/>
        <pt x="636" y="408" on="0"/>
        <pt x="651" y="480" on="1"/>
        <pt x="695" y="698" on="1"/>
        <pt x="717" y="698" on="1"/>
        <pt x="673" y="480" on="1"/>
        <pt x="657" y="400" on="0"/>
        <pt x="604" y="295" on="0"/>
        <pt x="527" y="233" on="0"/>
        <pt x="422" y="208" on="0"/>
        <pt x="354" y="208" on="1"/>
        <pt x="312" y="0" on="1"/>
        <pt x="290" y="0" on="1"/>
      </contour>
    </TTGlyph>
    <TTGlyph name="Q" xMin="69" yMin="-146" xMax="623" yMax="710">
      <contour>
        <pt x="283" y="-12" on="1"/>
        <pt x="257" y="-126" on="1"/>
        <pt x="361" y="-126" on="1"/>
        <pt x="357" y="-146" on="1"/>
        <pt x="259" y="-146" on="1"/>
        <pt x="246" y="-146" on="0"/>
        <pt x="236" y="-136" on="0"/>
        <pt x="236" y="-128" on="1"/>
        <pt x="236" y="-121" on="0"/>
        <pt x="241" y="-99" on="1"/>
        <pt x="261" y="-10" on="1"/>
        <pt x="174" y="-2" on="0"/>
        <pt x="69" y="115" on="0"/>
        <pt x="69" y="220" on="1"/>
        <pt x="69" y="269" on="0"/>
        <pt x="84" y="381" on="0"/>
        <pt x="117" y="489" on="0"/>
        <pt x="170" y="589" on="0"/>
        <pt x="243" y="665" on="0"/>
        <pt x="340" y="710" on="0"/>
        <pt x="401" y="710" on="1"/>
        <pt x="450" y="710" on="0"/>
        <pt x="532" y="680" on="0"/>
        <pt x="591" y="621" on="0"/>
        <pt x="623" y="535" on="0"/>
        <pt x="623" y="478" on="1"/>
        <pt x="623" y="429" on="0"/>
        <pt x="608" y="317" on="0"/>
        <pt x="575" y="209" on="0"/>
        <pt x="522" y="109" on="0"/>
        <pt x="449" y="33" on="0"/>
        <pt x="352" y="-12" on="0"/>
        <pt x="291" y="-12" on="1"/>
      </contour>
      <contour>
        <pt x="291" y="8" on="1"/>
        <pt x="345" y="8" on="0"/>
        <pt x="439" y="51" on="0"/>
        <pt x="513" y="131" on="0"/>
        <pt x="566" y="244" on="0"/>
        <pt x="580" y="314" on="1"/>
        <pt x="591" y="369" on="1"/>
        <pt x="597" y="401" on="0"/>
        <pt x="601" y="457" on="0"/>
        <pt x="601" y="478" on="1"/>
        <pt x="601" y="576" on="0"/>
        <pt x="498" y="690" on="0"/>
        <pt x="401" y="690" on="1"/>
        <pt x="347" y="690" on="0"/>
        <pt x="253" y="647" on="0"/>
        <pt x="179" y="567" on="0"/>
        <pt x="126" y="454" on="0"/>
        <pt x="112" y="384" on="1"/>
        <pt x="101" y="329" on="1"/>
        <pt x="95" y="297" on="0"/>
        <pt x="91" y="241" on="0"/>
        <pt x="91" y="220" on="1"/>
        <pt x="91" y="122" on="0"/>
        <pt x="194" y="8" on="0"/>
      </contour>
    </TTGlyph>
    <TTGlyph name="R" xMin="54" yMin="0" xMax="596" yMax="698">
      <contour>
        <pt x="76" y="0" on="1"/>
        <pt x="54" y="0" on="1"/>
        <pt x="194" y="698" on="1"/>
        <pt x="445" y="698" on="1"/>
        <pt x="518" y="698" on="0"/>
        <pt x="596" y="614" on="0"/>
        <pt x="596" y="550" on="1"/>
        <pt x="596" y="441" on="0"/>
        <pt x="484" y="322" on="0"/>
        <pt x="382" y="322" on="1"/>
        <pt x="507" y="0" on="1"/>
        <pt x="484" y="0" on="1"/>
        <pt x="359" y="322" on="1"/>
        <pt x="141" y="322" on="1"/>
      </contour>
      <contour>
        <pt x="388" y="342" on="1"/>
        <pt x="466" y="342" on="0"/>
        <pt x="553" y="421" on="0"/>
        <pt x="565" y="481" on="1"/>
        <pt x="571" y="510" on="0"/>
        <pt x="574" y="542" on="0"/>
        <pt x="574" y="550" on="1"/>
        <pt x="574" y="576" on="0"/>
        <pt x="559" y="623" on="0"/>
        <pt x="527" y="658" on="0"/>
        <pt x="477" y="678" on="0"/>
        <pt x="443" y="678" on="1"/>
        <pt x="211" y="678" on="1"/>
        <pt x="145" y="342" on="1"/>
      </contour>
    </TTGlyph>
    <TTGlyph name="Racute" xMin="54" yMin="0" xMax="596" yMax="931">
      <component glyphName="R" x="0" y="0" flags="0x204"/>
      <component glyphName="acute.case" x="74" y="0" flags="0x4"/>
    </TTGlyph>
    <TTGlyph name="Rcaron" xMin="54" yMin="0" xMax="596" yMax="927">
      <component glyphName="R" x="0" y="0" flags="0x204"/>
      <component glyphName="caron.case" x="74" y="0" flags="0x4"/>
    </TTGlyph>
    <TTGlyph name="Rcommaaccent" xMin="54" yMin="-212" xMax="596" yMax="698">
      <component glyphName="R" x="0" y="0" flags="0x204"/>
      <component glyphName="uni0326" x="272" y="0" flags="0x4"/>
    </TTGlyph>
    <TTGlyph name="Rho" xMin="54" yMin="0" xMax="596" yMax="698">
      <component glyphName="P" x="0" y="0" flags="0x204"/>
    </TTGlyph>
    <TTGlyph name="S" xMin="14" yMin="-12" xMax="528" yMax="710">
      <contour>
        <pt x="235" y="-12" on="1"/>
        <pt x="190" y="-12" on="0"/>
        <pt x="120" y="4" on="0"/>
        <pt x="68" y="33" on="0"/>
        <pt x="29" y="74" on="0"/>
        <pt x="14" y="99" on="1"/>
        <pt x="32" y="112" on="1"/>
        <pt x="46" y="88" on="0"/>
        <pt x="81" y="49" on="0"/>
        <pt x="129" y="22" on="0"/>
        <pt x="193" y="8" on="0"/>
        <pt x="236" y="8" on="1"/>
        <pt x="292" y="8" on="0"/>
        <pt x="371" y="40" on="0"/>
        <pt x="420" y="94" on="0"/>
        <pt x="443" y="165" on="0"/>
        <pt x="443" y="204" on="1"/>
        <pt x="443" y="258" on="0"/>
        <pt x="386" y="320" on="0"/>
        <pt x="322" y="337" on="1"/>
        <pt x="236" y="359" on="1"/>
        <pt x="168" y="376" on="0"/>
        <pt x="107" y="453" on="0"/>
        <pt x="107" y="513" on="1"/>
        <pt x="107" y="553" on="0"/>
        <pt x="134" y="625" on="0"/>
        <pt x="188" y="679" on="0"/>
        <pt x="269" y="710" on="0"/>
        <pt x="324" y="710" on="1"/>
        <pt x="367" y="710" on="0"/>
        <pt x="432" y="697" on="0"/>
        <pt x="480" y="672" on="0"/>
        <pt x="515" y="636" on="0"/>
        <pt x="528" y="612" on="1"/>
        <pt x="510" y="601" on="1"/>
        <pt x="483" y="650" on="0"/>
        <pt x="397" y="690" on="0"/>
        <pt x="323" y="690" on="1"/>
        <pt x="273" y="690" on="0"/>
        <pt x="200" y="661" on="0"/>
        <pt x="152" y="613" on="0"/>
        <pt x="129" y="549" on="0"/>
        <pt x="129" y="513" on="1"/>
        <pt x="129" y="458" on="0"/>
        <pt x="183" y="395" on="0"/>
        <pt x="244" y="379" on="1"/>
        <pt x="327" y="357" on="1"/>
        <pt x="466" y="320" on="0"/>
        <pt x="466" y="204" on="1"/>
        <pt x="466" y="160" on="0"/>
        <pt x="439" y="81" on="0"/>
        <pt x="383" y="22" on="0"/>
        <pt x="295" y="-12" on="0"/>
      </contour>
    </TTGlyph>
    <TTGlyph name="Sacute" xMin="14" yMin="-12" xMax="528" yMax="931">
      <component glyphName="S" x="0" y="0" flags="0x204"/>
      <component glyphName="acute.case" x="25" y="0" flags="0x4"/>
    </TTGlyph>
    <TTGlyph name="Scaron" xMin="14" yMin="-12" xMax="528" yMax="927">
      <component glyphName="S" x="0" y="0" flags="0x204"/>
      <component glyphName="caron.case" x="25" y="0" flags="0x4"/>
    </TTGlyph>
    <TTGlyph name="Scedilla" xMin="14" yMin="-202" xMax="528" yMax="710">
      <contour>
        <pt x="195" y="-202" on="1"/>
        <pt x="167" y="-202" on="0"/>
        <pt x="128" y="-183" on="0"/>
        <pt x="120" y="-170" on="1"/>
        <pt x="134" y="-157" on="1"/>
        <pt x="155" y="-184" on="0"/>
        <pt x="195" y="-184" on="1"/>
        <pt x="227" y="-184" on="0"/>
        <pt x="268" y="-152" on="0"/>
        <pt x="268" y="-126" on="1"/>
        <pt x="268" y="-109" on="0"/>
        <pt x="245" y="-88" on="0"/>
        <pt x="216" y="-86" on="1"/>
        <pt x="179" y="-84" on="1"/>
        <pt x="211" y="-11" on="1"/>
        <pt x="133" y="-7" on="0"/>
        <pt x="42" y="51" on="0"/>
        <pt x="14" y="99" on="1"/>
        <pt x="32" y="112" on="1"/>
        <pt x="46" y="88" on="0"/>
        <pt x="81" y="49" on="0"/>
        <pt x="129" y="22" on="0"/>
        <pt x="193" y="8" on="0"/>
        <pt x="236" y="8" on="1"/>
        <pt x="292" y="8" on="0"/>
        <pt x="371" y="40" on="0"/>
        <pt x="420" y="94" on="0"/>
        <pt x="443" y="165" on="0"/>
        <pt x="443" y="204" on="1"/>
        <pt x="443" y="258" on="0"/>
        <pt x="386" y="320" on="0"/>
        <pt x="322" y="337" on="1"/>
        <pt x="236" y="359" on="1"/>
        <pt x="168" y="376" on="0"/>
        <pt x="107" y="453" on="0"/>
        <pt x="107" y="513" on="1"/>
        <pt x="107" y="553" on="0"/>
        <pt x="134" y="625" on="0"/>
        <pt x="188" y="679" on="0"/>
        <pt x="269" y="710" on="0"/>
        <pt x="324" y="710" on="1"/>
        <pt x="367" y="710" on="0"/>
        <pt x="432" y="697" on="0"/>
        <pt x="480" y="672" on="0"/>
        <pt x="515" y="636" on="0"/>
        <pt x="528" y="612" on="1"/>
        <pt x="510" y="601" on="1"/>
        <pt x="483" y="650" on="0"/>
        <pt x="397" y="690" on="0"/>
        <pt x="323" y="690" on="1"/>
        <pt x="273" y="690" on="0"/>
        <pt x="200" y="661" on="0"/>
        <pt x="152" y="613" on="0"/>
        <pt x="129" y="549" on="0"/>
        <pt x="129" y="513" on="1"/>
        <pt x="129" y="458" on="0"/>
        <pt x="183" y="395" on="0"/>
        <pt x="244" y="379" on="1"/>
        <pt x="327" y="357" on="1"/>
        <pt x="466" y="320" on="0"/>
        <pt x="466" y="204" on="1"/>
        <pt x="466" y="160" on="0"/>
        <pt x="439" y="81" on="0"/>
        <pt x="383" y="22" on="0"/>
        <pt x="295" y="-12" on="0"/>
        <pt x="235" y="-12" on="1"/>
        <pt x="228" y="-12" on="1"/>
        <pt x="201" y="-73" on="1"/>
        <pt x="203" y="-75" on="1"/>
        <pt x="210" y="-73" on="0"/>
        <pt x="226" y="-72" on="0"/>
        <pt x="232" y="-72" on="1"/>
        <pt x="259" y="-72" on="0"/>
        <pt x="289" y="-100" on="0"/>
        <pt x="289" y="-125" on="1"/>
        <pt x="289" y="-157" on="0"/>
        <pt x="238" y="-202" on="0"/>
      </contour>
    </TTGlyph>
    <TTGlyph name="Scircumflex" xMin="14" yMin="-12" xMax="528" yMax="923">
      <component glyphName="S" x="0" y="0" flags="0x204"/>
      <component glyphName="circumflex.case" x="25" y="0" flags="0x4"/>
    </TTGlyph>
    <TTGlyph name="Scommaaccent" xMin="14" yMin="-212" xMax="528" yMax="710">
      <component glyphName="S" x="0" y="0" flags="0x204"/>
      <component glyphName="uni0326" x="224" y="0" flags="0x4"/>
    </TTGlyph>
    <TTGlyph name="Sigma" xMin="3" yMin="0" xMax="576" yMax="698">
      <contour>
        <pt x="3" y="0" on="1"/>
        <pt x="8" y="22" on="1"/>
        <pt x="339" y="355" on="1"/>
        <pt x="144" y="676" on="1"/>
        <pt x="149" y="698" on="1"/>
        <pt x="576" y="698" on="1"/>
        <pt x="572" y="678" on="1"/>
        <pt x="166" y="678" on="1"/>
        <pt x="364" y="352" on="1"/>
        <pt x="34" y="20" on="1"/>
        <pt x="440" y="20" on="1"/>
        <pt x="436" y="0" on="1"/>
      </contour>
    </TTGlyph>
    <TTGlyph name="T" xMin="99" yMin="0" xMax="623" yMax="698">
      <contour>
        <pt x="370" y="678" on="1"/>
        <pt x="234" y="0" on="1"/>
        <pt x="212" y="0" on="1"/>
        <pt x="348" y="678" on="1"/>
        <pt x="99" y="678" on="1"/>
        <pt x="103" y="698" on="1"/>
        <pt x="623" y="698" on="1"/>
        <pt x="619" y="678" on="1"/>
      </contour>
    </TTGlyph>
    <TTGlyph name="Tau" xMin="99" yMin="0" xMax="623" yMax="698">
      <component glyphName="T" x="0" y="0" flags="0x204"/>
    </TTGlyph>
    <TTGlyph name="Tbar" xMin="97" yMin="0" xMax="623" yMax="698">
      <contour>
        <pt x="307" y="365" on="1"/>
        <pt x="234" y="0" on="1"/>
        <pt x="212" y="0" on="1"/>
        <pt x="285" y="365" on="1"/>
        <pt x="97" y="365" on="1"/>
        <pt x="101" y="384" on="1"/>
        <pt x="289" y="384" on="1"/>
        <pt x="348" y="678" on="1"/>
        <pt x="99" y="678" on="1"/>
        <pt x="103" y="698" on="1"/>
        <pt x="623" y="698" on="1"/>
        <pt x="619" y="678" on="1"/>
        <pt x="370" y="678" on="1"/>
        <pt x="311" y="384" on="1"/>
        <pt x="498" y="384" on="1"/>
        <pt x="494" y="365" on="1"/>
      </contour>
    </TTGlyph>
    <TTGlyph name="Tcaron" xMin="99" yMin="0" xMax="623" yMax="927">
      <component glyphName="T" x="0" y="0" flags="0x204"/>
      <component glyphName="caron.case" x="62" y="0" flags="0x4"/>
    </TTGlyph>
    <TTGlyph name="Theta" xMin="69" yMin="-12" xMax="623" yMax="710">
      <contour>
        <pt x="291" y="-12" on="1"/>
        <pt x="241" y="-12" on="0"/>
        <pt x="160" y="18" on="0"/>
        <pt x="101" y="77" on="0"/>
        <pt x="69" y="163" on="0"/>
        <pt x="69" y="220" on="1"/>
        <pt x="69" y="269" on="0"/>
        <pt x="84" y="381" on="0"/>
        <pt x="117" y="489" on="0"/>
        <pt x="170" y="589" on="0"/>
        <pt x="243" y="665" on="0"/>
        <pt x="340" y="710" on="0"/>
        <pt x="401" y="710" on="1"/>
        <pt x="450" y="710" on="0"/>
        <pt x="532" y="680" on="0"/>
        <pt x="591" y="621" on="0"/>
        <pt x="623" y="535" on="0"/>
        <pt x="623" y="478" on="1"/>
        <pt x="623" y="429" on="0"/>
        <pt x="608" y="317" on="0"/>
        <pt x="575" y="209" on="0"/>
        <pt x="522" y="109" on="0"/>
        <pt x="449" y="33" on="0"/>
        <pt x="352" y="-12" on="0"/>
      </contour>
      <contour>
        <pt x="291" y="8" on="1"/>
        <pt x="345" y="8" on="0"/>
        <pt x="439" y="51" on="0"/>
        <pt x="513" y="131" on="0"/>
        <pt x="566" y="244" on="0"/>
        <pt x="580" y="314" on="1"/>
        <pt x="591" y="369" on="1"/>
        <pt x="597" y="401" on="0"/>
        <pt x="601" y="457" on="0"/>
        <pt x="601" y="478" on="1"/>
        <pt x="601" y="576" on="0"/>
        <pt x="498" y="690" on="0"/>
        <pt x="401" y="690" on="1"/>
        <pt x="347" y="690" on="0"/>
        <pt x="253" y="647" on="0"/>
        <pt x="179" y="567" on="0"/>
        <pt x="126" y="454" on="0"/>
        <pt x="112" y="384" on="1"/>
        <pt x="101" y="329" on="1"/>
        <pt x="95" y="297" on="0"/>
        <pt x="91" y="241" on="0"/>
        <pt x="91" y="220" on="1"/>
        <pt x="91" y="122" on="0"/>
        <pt x="194" y="8" on="0"/>
      </contour>
      <contour>
        <pt x="185" y="344" on="1"/>
        <pt x="189" y="364" on="1"/>
        <pt x="509" y="364" on="1"/>
        <pt x="505" y="344" on="1"/>
      </contour>
    </TTGlyph>
    <TTGlyph name="Thorn" xMin="54" yMin="0" xMax="565" yMax="698">
      <contour>
        <pt x="54" y="0" on="1"/>
        <pt x="194" y="698" on="1"/>
        <pt x="215" y="698" on="1"/>
        <pt x="184" y="542" on="1"/>
        <pt x="414" y="542" on="1"/>
        <pt x="487" y="542" on="0"/>
        <pt x="565" y="458" on="0"/>
        <pt x="565" y="394" on="1"/>
        <pt x="565" y="285" on="0"/>
        <pt x="453" y="166" on="0"/>
        <pt x="355" y="166" on="1"/>
        <pt x="109" y="166" on="1"/>
        <pt x="76" y="0" on="1"/>
      </contour>
      <contour>
        <pt x="113" y="186" on="1"/>
        <pt x="357" y="186" on="1"/>
        <pt x="435" y="186" on="0"/>
        <pt x="522" y="265" on="0"/>
        <pt x="534" y="325" on="1"/>
        <pt x="540" y="354" on="0"/>
        <pt x="543" y="386" on="0"/>
        <pt x="543" y="394" on="1"/>
        <pt x="543" y="420" on="0"/>
        <pt x="528" y="467" on="0"/>
        <pt x="496" y="502" on="0"/>
        <pt x="446" y="522" on="0"/>
        <pt x="412" y="522" on="1"/>
        <pt x="180" y="522" on="1"/>
      </contour>
    </TTGlyph>
    <TTGlyph name="U" xMin="82" yMin="-12" xMax="631" yMax="698">
      <contour>
        <pt x="207" y="698" on="1"/>
        <pt x="122" y="271" on="1"/>
        <pt x="113" y="226" on="0"/>
        <pt x="104" y="171" on="0"/>
        <pt x="104" y="148" on="1"/>
        <pt x="104" y="82" on="0"/>
        <pt x="185" y="8" on="0"/>
        <pt x="273" y="8" on="1"/>
        <pt x="330" y="8" on="0"/>
        <pt x="411" y="34" on="0"/>
        <pt x="469" y="96" on="0"/>
        <pt x="508" y="196" on="0"/>
        <pt x="523" y="271" on="1"/>
        <pt x="609" y="698" on="1"/>
        <pt x="631" y="698" on="1"/>
        <pt x="545" y="270" on="1"/>
        <pt x="529" y="190" on="0"/>
        <pt x="486" y="82" on="0"/>
        <pt x="423" y="16" on="0"/>
        <pt x="335" y="-12" on="0"/>
        <pt x="273" y="-12" on="1"/>
        <pt x="182" y="-12" on="0"/>
        <pt x="82" y="68" on="0"/>
        <pt x="82" y="148" on="1"/>
        <pt x="82" y="176" on="0"/>
        <pt x="93" y="234" on="0"/>
        <pt x="101" y="276" on="1"/>
        <pt x="185" y="698" on="1"/>
      </contour>
    </TTGlyph>
    <TTGlyph name="Uacute" xMin="82" yMin="-12" xMax="631" yMax="931">
      <component glyphName="U" x="0" y="0" flags="0x204"/>
      <component glyphName="acute.case" x="108" y="0" flags="0x4"/>
    </TTGlyph>
    <TTGlyph name="Ubreve" xMin="82" yMin="-12" xMax="631" yMax="910">
      <component glyphName="U" x="0" y="0" flags="0x204"/>
      <component glyphName="breve.case" x="108" y="0" flags="0x4"/>
    </TTGlyph>
    <TTGlyph name="Ucircumflex" xMin="82" yMin="-12" xMax="631" yMax="923">
      <component glyphName="U" x="0" y="0" flags="0x204"/>
      <component glyphName="circumflex.case" x="108" y="0" flags="0x4"/>
    </TTGlyph>
    <TTGlyph name="Udieresis" xMin="82" yMin="-12" xMax="631" yMax="868">
      <component glyphName="U" x="0" y="0" flags="0x204"/>
      <component glyphName="dieresis.case" x="108" y="0" flags="0x4"/>
    </TTGlyph>
    <TTGlyph name="Ugrave" xMin="82" yMin="-12" xMax="631" yMax="932">
      <component glyphName="U" x="0" y="0" flags="0x204"/>
      <component glyphName="grave.case" x="108" y="0" flags="0x4"/>
    </TTGlyph>
    <TTGlyph name="Uhorn" xMin="83" yMin="-12" xMax="731" yMax="809">
      <contour>
        <pt x="207" y="698" on="1"/>
        <pt x="122" y="271" on="1"/>
        <pt x="113" y="226" on="0"/>
        <pt x="104" y="171" on="0"/>
        <pt x="104" y="148" on="1"/>
        <pt x="104" y="82" on="0"/>
        <pt x="185" y="8" on="0"/>
        <pt x="273" y="8" on="1"/>
        <pt x="330" y="8" on="0"/>
        <pt x="411" y="34" on="0"/>
        <pt x="469" y="96" on="0"/>
        <pt x="508" y="196" on="0"/>
        <pt x="523" y="271" on="1"/>
        <pt x="609" y="698" on="1"/>
        <pt x="689" y="698" on="1"/>
        <pt x="711" y="809" on="1"/>
        <pt x="731" y="809" on="1"/>
        <pt x="712" y="709" on="1"/>
        <pt x="706" y="680" on="0"/>
        <pt x="677" y="680" on="1"/>
        <pt x="627" y="680" on="1"/>
        <pt x="545" y="270" on="1"/>
        <pt x="529" y="190" on="0"/>
        <pt x="486" y="82" on="0"/>
        <pt x="422" y="16" on="0"/>
        <pt x="333" y="-12" on="0"/>
        <pt x="271" y="-12" on="1"/>
        <pt x="180" y="-12" on="0"/>
        <pt x="83" y="68" on="0"/>
        <pt x="83" y="148" on="1"/>
        <pt x="83" y="176" on="0"/>
        <pt x="93" y="234" on="0"/>
        <pt x="101" y="276" on="1"/>
        <pt x="185" y="698" on="1"/>
      </contour>
    </TTGlyph>
    <TTGlyph name="Uhungarumlaut" xMin="82" yMin="-12" xMax="641" yMax="931">
      <component glyphName="U" x="0" y="0" flags="0x204"/>
      <component glyphName="hungarumlaut.case" x="108" y="0" flags="0x4"/>
    </TTGlyph>
    <TTGlyph name="Umacron" xMin="82" yMin="-12" xMax="631" yMax="856">
      <component glyphName="U" x="0" y="0" flags="0x204"/>
      <component glyphName="macron.case" x="108" y="0" flags="0x4"/>
    </TTGlyph>
    <TTGlyph name="Uogonek" xMin="82" yMin="-202" xMax="631" yMax="698">
      <contour>
        <pt x="207" y="698" on="1"/>
        <pt x="122" y="271" on="1"/>
        <pt x="113" y="226" on="0"/>
        <pt x="104" y="171" on="0"/>
        <pt x="104" y="148" on="1"/>
        <pt x="104" y="82" on="0"/>
        <pt x="186" y="8" on="0"/>
        <pt x="274" y="8" on="1"/>
        <pt x="331" y="8" on="0"/>
        <pt x="412" y="34" on="0"/>
        <pt x="469" y="96" on="0"/>
        <pt x="508" y="196" on="0"/>
        <pt x="523" y="271" on="1"/>
        <pt x="609" y="698" on="1"/>
        <pt x="631" y="698" on="1"/>
        <pt x="545" y="270" on="1"/>
        <pt x="533" y="211" on="0"/>
        <pt x="504" y="122" on="0"/>
        <pt x="466" y="57" on="0"/>
        <pt x="417" y="15" on="0"/>
        <pt x="385" y="3" on="1"/>
        <pt x="312" y="-23" on="0"/>
        <pt x="225" y="-98" on="0"/>
        <pt x="225" y="-136" on="1"/>
        <pt x="225" y="-160" on="0"/>
        <pt x="254" y="-184" on="0"/>
        <pt x="276" y="-184" on="1"/>
        <pt x="300" y="-184" on="0"/>
        <pt x="332" y="-168" on="0"/>
        <pt x="341" y="-159" on="1"/>
        <pt x="354" y="-170" on="1"/>
        <pt x="342" y="-184" on="0"/>
        <pt x="302" y="-202" on="0"/>
        <pt x="276" y="-202" on="1"/>
        <pt x="245" y="-202" on="0"/>
        <pt x="204" y="-170" on="0"/>
        <pt x="204" y="-136" on="1"/>
        <pt x="204" y="-123" on="0"/>
        <pt x="214" y="-93" on="0"/>
        <pt x="240" y="-61" on="0"/>
        <pt x="287" y="-28" on="0"/>
        <pt x="324" y="-12" on="1"/>
        <pt x="323" y="-9" on="1"/>
        <pt x="299" y="-12" on="0"/>
        <pt x="272" y="-12" on="1"/>
        <pt x="181" y="-12" on="0"/>
        <pt x="82" y="68" on="0"/>
        <pt x="82" y="148" on="1"/>
        <pt x="82" y="176" on="0"/>
        <pt x="93" y="234" on="0"/>
        <pt x="101" y="276" on="1"/>
        <pt x="185" y="698" on="1"/>
      </contour>
    </TTGlyph>
    <TTGlyph name="Upsilon" xMin="109" yMin="0" xMax="609" yMax="698">
      <component glyphName="Y" x="0" y="0" flags="0x204"/>
    </TTGlyph>
    <TTGlyph name="Upsilondieresis" xMin="109" yMin="0" xMax="609" yMax="868">
      <component glyphName="Y" x="0" y="0" flags="0x204"/>
      <component glyphName="dieresis.case" x="59" y="0" flags="0x4"/>
    </TTGlyph>
    <TTGlyph name="Upsilontonos" xMin="48" yMin="0" xMax="688" yMax="751">
      <component glyphName="Y" x="79" y="0" flags="0x4"/>
      <component glyphName="tonos.case" x="-301" y="0" flags="0x4"/>
    </TTGlyph>
    <TTGlyph name="Uring" xMin="82" yMin="-12" xMax="631" yMax="951">
      <component glyphName="U" x="0" y="0" flags="0x204"/>
      <component glyphName="ring.case" x="108" y="0" flags="0x4"/>
    </TTGlyph>
    <TTGlyph name="Utilde" xMin="82" yMin="-12" xMax="631" yMax="882">
      <component glyphName="U" x="0" y="0" flags="0x204"/>
      <component glyphName="tilde.case" x="108" y="0" flags="0x4"/>
    </TTGlyph>
    <TTGlyph name="V" xMin="117" yMin="0" xMax="627" yMax="698">
      <contour>
        <pt x="217" y="0" on="1"/>
        <pt x="117" y="698" on="1"/>
        <pt x="139" y="698" on="1"/>
        <pt x="235" y="25" on="1"/>
        <pt x="238" y="25" on="1"/>
        <pt x="603" y="698" on="1"/>
        <pt x="627" y="698" on="1"/>
        <pt x="247" y="0" on="1"/>
      </contour>
    </TTGlyph>
    <TTGlyph name="W" xMin="121" yMin="0" xMax="929" yMax="698">
      <contour>
        <pt x="161" y="0" on="1"/>
        <pt x="121" y="698" on="1"/>
        <pt x="143" y="698" on="1"/>
        <pt x="181" y="31" on="1"/>
        <pt x="184" y="31" on="1"/>
        <pt x="507" y="698" on="1"/>
        <pt x="538" y="698" on="1"/>
        <pt x="589" y="31" on="1"/>
        <pt x="592" y="31" on="1"/>
        <pt x="905" y="698" on="1"/>
        <pt x="929" y="698" on="1"/>
        <pt x="600" y="0" on="1"/>
        <pt x="569" y="0" on="1"/>
        <pt x="519" y="668" on="1"/>
        <pt x="516" y="668" on="1"/>
        <pt x="192" y="0" on="1"/>
      </contour>
    </TTGlyph>
    <TTGlyph name="Wacute" xMin="121" yMin="0" xMax="929" yMax="931">
      <component glyphName="W" x="0" y="0" flags="0x204"/>
      <component glyphName="acute.case" x="222" y="0" flags="0x4"/>
    </TTGlyph>
    <TTGlyph name="Wcircumflex" xMin="121" yMin="0" xMax="929" yMax="923">
      <component glyphName="W" x="0" y="0" flags="0x204"/>
      <component glyphName="circumflex.case" x="222" y="0" flags="0x4"/>
    </TTGlyph>
    <TTGlyph name="Wdieresis" xMin="121" yMin="0" xMax="929" yMax="868">
      <component glyphName="W" x="0" y="0" flags="0x204"/>
      <component glyphName="dieresis.case" x="222" y="0" flags="0x4"/>
    </TTGlyph>
    <TTGlyph name="Wgrave" xMin="121" yMin="0" xMax="929" yMax="932">
      <component glyphName="W" x="0" y="0" flags="0x204"/>
      <component glyphName="grave.case" x="222" y="0" flags="0x4"/>
    </TTGlyph>
    <TTGlyph name="X" xMin="-29" yMin="0" xMax="602" yMax="698">
      <contour>
        <pt x="473" y="0" on="1"/>
        <pt x="449" y="0" on="1"/>
        <pt x="292" y="336" on="1"/>
        <pt x="289" y="336" on="1"/>
        <pt x="-1" y="0" on="1"/>
        <pt x="-29" y="0" on="1"/>
        <pt x="279" y="356" on="1"/>
        <pt x="118" y="698" on="1"/>
        <pt x="142" y="698" on="1"/>
        <pt x="294" y="375" on="1"/>
        <pt x="297" y="375" on="1"/>
        <pt x="574" y="698" on="1"/>
        <pt x="602" y="698" on="1"/>
        <pt x="306" y="355" on="1"/>
      </contour>
    </TTGlyph>
    <TTGlyph name="Xi" xMin="18" yMin="0" xMax="567" yMax="698">
      <contour>
        <pt x="158" y="698" on="1"/>
        <pt x="567" y="698" on="1"/>
        <pt x="563" y="678" on="1"/>
        <pt x="154" y="678" on="1"/>
      </contour>
      <contour>
        <pt x="120" y="364" on="1"/>
        <pt x="472" y="364" on="1"/>
        <pt x="468" y="344" on="1"/>
        <pt x="116" y="344" on="1"/>
      </contour>
      <contour>
        <pt x="22" y="20" on="1"/>
        <pt x="431" y="20" on="1"/>
        <pt x="427" y="0" on="1"/>
        <pt x="18" y="0" on="1"/>
      </contour>
    </TTGlyph>
    <TTGlyph name="Y" xMin="109" yMin="0" xMax="609" yMax="698">
      <contour>
        <pt x="208" y="0" on="1"/>
        <pt x="267" y="294" on="1"/>
        <pt x="109" y="698" on="1"/>
        <pt x="132" y="698" on="1"/>
        <pt x="280" y="320" on="1"/>
        <pt x="283" y="320" on="1"/>
        <pt x="583" y="698" on="1"/>
        <pt x="609" y="698" on="1"/>
        <pt x="289" y="294" on="1"/>
        <pt x="230" y="0" on="1"/>
      </contour>
    </TTGlyph>
    <TTGlyph name="Yacute" xMin="109" yMin="0" xMax="609" yMax="931">
      <component glyphName="Y" x="0" y="0" flags="0x204"/>
      <component glyphName="acute.case" x="59" y="0" flags="0x4"/>
    </TTGlyph>
    <TTGlyph name="Ycircumflex" xMin="109" yMin="0" xMax="609" yMax="923">
      <component glyphName="Y" x="0" y="0" flags="0x204"/>
      <component glyphName="circumflex.case" x="59" y="0" flags="0x4"/>
    </TTGlyph>
    <TTGlyph name="Ydieresis" xMin="109" yMin="0" xMax="609" yMax="868">
      <component glyphName="Y" x="0" y="0" flags="0x204"/>
      <component glyphName="dieresis.case" x="59" y="0" flags="0x4"/>
    </TTGlyph>
    <TTGlyph name="Ygrave" xMin="109" yMin="0" xMax="609" yMax="932">
      <component glyphName="Y" x="0" y="0" flags="0x204"/>
      <component glyphName="grave.case" x="59" y="0" flags="0x4"/>
    </TTGlyph>
    <TTGlyph name="Z" xMin="-22" yMin="0" xMax="581" yMax="698">
      <contour>
        <pt x="462" y="0" on="1"/>
        <pt x="-22" y="0" on="1"/>
        <pt x="-17" y="22" on="1"/>
        <pt x="550" y="678" on="1"/>
        <pt x="137" y="678" on="1"/>
        <pt x="141" y="698" on="1"/>
        <pt x="581" y="698" on="1"/>
        <pt x="576" y="676" on="1"/>
        <pt x="9" y="20" on="1"/>
        <pt x="466" y="20" on="1"/>
      </contour>
    </TTGlyph>
    <TTGlyph name="Zacute" xMin="-22" yMin="0" xMax="581" yMax="931">
      <component glyphName="Z" x="0" y="0" flags="0x204"/>
      <component glyphName="acute.case" x="60" y="0" flags="0x4"/>
    </TTGlyph>
    <TTGlyph name="Zcaron" xMin="-22" yMin="0" xMax="581" yMax="927">
      <component glyphName="Z" x="0" y="0" flags="0x204"/>
      <component glyphName="caron.case" x="60" y="0" flags="0x4"/>
    </TTGlyph>
    <TTGlyph name="Zdotaccent" xMin="-22" yMin="0" xMax="581" yMax="871">
      <component glyphName="Z" x="0" y="0" flags="0x204"/>
      <component glyphName="dotaccent.case" x="60" y="0" flags="0x4"/>
    </TTGlyph>
    <TTGlyph name="Zeta" xMin="-22" yMin="0" xMax="581" yMax="698">
      <component glyphName="Z" x="0" y="0" flags="0x204"/>
    </TTGlyph>
    <TTGlyph name="a" xMin="60" yMin="-12" xMax="507" yMax="518">
      <contour>
        <pt x="413" y="0" on="1"/>
        <pt x="390" y="0" on="0"/>
        <pt x="390" y="19" on="1"/>
        <pt x="390" y="24" on="0"/>
        <pt x="391" y="30" on="0"/>
        <pt x="392" y="35" on="1"/>
        <pt x="407" y="111" on="1"/>
        <pt x="404" y="111" on="1"/>
        <pt x="372" y="55" on="0"/>
        <pt x="287" y="-12" on="0"/>
        <pt x="223" y="-12" on="1"/>
        <pt x="184" y="-12" on="0"/>
        <pt x="123" y="17" on="0"/>
        <pt x="81" y="67" on="0"/>
        <pt x="60" y="136" on="0"/>
        <pt x="60" y="176" on="1"/>
        <pt x="60" y="245" on="0"/>
        <pt x="93" y="369" on="0"/>
        <pt x="156" y="463" on="0"/>
        <pt x="249" y="518" on="0"/>
        <pt x="309" y="518" on="1"/>
        <pt x="373" y="518" on="0"/>
        <pt x="451" y="460" on="0"/>
        <pt x="465" y="413" on="1"/>
        <pt x="468" y="413" on="1"/>
        <pt x="486" y="506" on="1"/>
        <pt x="507" y="506" on="1"/>
        <pt x="410" y="19" on="1"/>
        <pt x="495" y="19" on="1"/>
        <pt x="491" y="0" on="1"/>
      </contour>
      <contour>
        <pt x="223" y="7" on="1"/>
        <pt x="255" y="7" on="0"/>
        <pt x="307" y="25" on="0"/>
        <pt x="333" y="47" on="1"/>
        <pt x="362" y="71" on="0"/>
        <pt x="415" y="151" on="0"/>
        <pt x="426" y="204" on="1"/>
        <pt x="454" y="346" on="1"/>
        <pt x="459" y="371" on="0"/>
        <pt x="448" y="425" on="0"/>
        <pt x="414" y="470" on="0"/>
        <pt x="354" y="499" on="0"/>
        <pt x="309" y="499" on="1"/>
        <pt x="223" y="499" on="0"/>
        <pt x="113" y="381" on="0"/>
        <pt x="94" y="282" on="1"/>
        <pt x="87" y="247" on="1"/>
        <pt x="84" y="230" on="0"/>
        <pt x="81" y="197" on="0"/>
        <pt x="81" y="176" on="1"/>
        <pt x="81" y="141" on="0"/>
        <pt x="98" y="80" on="0"/>
        <pt x="133" y="34" on="0"/>
        <pt x="186" y="7" on="0"/>
      </contour>
    </TTGlyph>
    <TTGlyph name="a.alt01" xMin="47" yMin="-12" xMax="481" yMax="518">
      <contour>
        <pt x="204" y="-12" on="1"/>
        <pt x="132" y="-12" on="0"/>
        <pt x="47" y="48" on="0"/>
        <pt x="47" y="103" on="1"/>
        <pt x="47" y="272" on="0"/>
        <pt x="266" y="272" on="1"/>
        <pt x="426" y="272" on="1"/>
        <pt x="437" y="329" on="1"/>
        <pt x="440" y="343" on="0"/>
        <pt x="442" y="370" on="0"/>
        <pt x="442" y="381" on="1"/>
        <pt x="442" y="405" on="0"/>
        <pt x="429" y="448" on="0"/>
        <pt x="398" y="480" on="0"/>
        <pt x="346" y="499" on="0"/>
        <pt x="307" y="499" on="1"/>
        <pt x="273" y="499" on="0"/>
        <pt x="221" y="488" on="0"/>
        <pt x="181" y="464" on="0"/>
        <pt x="148" y="427" on="0"/>
        <pt x="132" y="402" on="1"/>
        <pt x="115" y="411" on="1"/>
        <pt x="130" y="436" on="0"/>
        <pt x="165" y="476" on="0"/>
        <pt x="210" y="503" on="0"/>
        <pt x="269" y="518" on="0"/>
        <pt x="309" y="518" on="1"/>
        <pt x="350" y="518" on="0"/>
        <pt x="409" y="498" on="0"/>
        <pt x="446" y="462" on="0"/>
        <pt x="463" y="412" on="0"/>
        <pt x="463" y="382" on="1"/>
        <pt x="463" y="370" on="0"/>
        <pt x="461" y="343" on="0"/>
        <pt x="458" y="328" on="1"/>
        <pt x="396" y="19" on="1"/>
        <pt x="481" y="19" on="1"/>
        <pt x="477" y="0" on="1"/>
        <pt x="399" y="0" on="1"/>
        <pt x="376" y="0" on="0"/>
        <pt x="376" y="19" on="1"/>
        <pt x="376" y="24" on="0"/>
        <pt x="377" y="30" on="0"/>
        <pt x="378" y="35" on="1"/>
        <pt x="386" y="75" on="1"/>
        <pt x="383" y="75" on="1"/>
        <pt x="358" y="40" on="0"/>
        <pt x="272" y="-12" on="0"/>
      </contour>
      <contour>
        <pt x="206" y="7" on="1"/>
        <pt x="239" y="7" on="0"/>
        <pt x="303" y="25" on="0"/>
        <pt x="356" y="60" on="0"/>
        <pt x="394" y="113" on="0"/>
        <pt x="401" y="148" on="1"/>
        <pt x="422" y="254" on="1"/>
        <pt x="266" y="254" on="1"/>
        <pt x="175" y="254" on="0"/>
        <pt x="84" y="199" on="0"/>
        <pt x="75" y="151" on="1"/>
        <pt x="71" y="131" on="0"/>
        <pt x="68" y="111" on="0"/>
        <pt x="68" y="102" on="1"/>
        <pt x="68" y="57" on="0"/>
        <pt x="139" y="7" on="0"/>
      </contour>
    </TTGlyph>
    <TTGlyph name="aacute" xMin="60" yMin="-12" xMax="507" yMax="751">
      <component glyphName="a" x="0" y="0" flags="0x204"/>
      <component glyphName="acute" x="30" y="0" flags="0x4"/>
    </TTGlyph>
    <TTGlyph name="aacute.alt01" xMin="47" yMin="-12" xMax="481" yMax="751">
      <component glyphName="a.alt01" x="0" y="0" flags="0x204"/>
      <component glyphName="acute" x="17" y="0" flags="0x4"/>
    </TTGlyph>
    <TTGlyph name="abreve" xMin="60" yMin="-12" xMax="507" yMax="730">
      <component glyphName="a" x="0" y="0" flags="0x204"/>
      <component glyphName="breve" x="30" y="0" flags="0x4"/>
    </TTGlyph>
    <TTGlyph name="abreve.alt01" xMin="47" yMin="-12" xMax="481" yMax="730">
      <component glyphName="a.alt01" x="0" y="0" flags="0x204"/>
      <component glyphName="breve" x="17" y="0" flags="0x4"/>
    </TTGlyph>
    <TTGlyph name="acircumflex" xMin="60" yMin="-12" xMax="507" yMax="743">
      <component glyphName="a" x="0" y="0" flags="0x204"/>
      <component glyphName="circumflex" x="30" y="0" flags="0x4"/>
    </TTGlyph>
    <TTGlyph name="acircumflex.alt01" xMin="47" yMin="-12" xMax="481" yMax="743">
      <component glyphName="a.alt01" x="0" y="0" flags="0x204"/>
      <component glyphName="circumflex" x="17" y="0" flags="0x4"/>
    </TTGlyph>
    <TTGlyph name="acute" xMin="275" yMin="587" xMax="435" yMax="751">
      <contour>
        <pt x="288" y="587" on="1"/>
        <pt x="275" y="598" on="1"/>
        <pt x="418" y="751" on="1"/>
        <pt x="435" y="738" on="1"/>
      </contour>
    </TTGlyph>
    <TTGlyph name="acute.case" xMin="294" yMin="767" xMax="454" yMax="931">
      <contour>
        <pt x="307" y="767" on="1"/>
        <pt x="294" y="778" on="1"/>
        <pt x="437" y="931" on="1"/>
        <pt x="454" y="918" on="1"/>
      </contour>
    </TTGlyph>
    <TTGlyph name="adieresis" xMin="60" yMin="-12" xMax="507" yMax="691">
      <component glyphName="a" x="0" y="0" flags="0x204"/>
      <component glyphName="dieresis" x="30" y="0" flags="0x4"/>
    </TTGlyph>
    <TTGlyph name="adieresis.alt01" xMin="47" yMin="-12" xMax="481" yMax="691">
      <component glyphName="a.alt01" x="0" y="0" flags="0x204"/>
      <component glyphName="dieresis" x="17" y="0" flags="0x4"/>
    </TTGlyph>
    <TTGlyph name="ae" xMin="47" yMin="-12" xMax="821" yMax="518">
      <contour>
        <pt x="204" y="7" on="1"/>
        <pt x="238" y="7" on="0"/>
        <pt x="304" y="26" on="0"/>
        <pt x="360" y="65" on="0"/>
        <pt x="399" y="123" on="0"/>
        <pt x="406" y="162" on="1"/>
        <pt x="420" y="243" on="1"/>
        <pt x="240" y="234" on="1"/>
        <pt x="156" y="229" on="0"/>
        <pt x="81" y="182" on="0"/>
        <pt x="73" y="143" on="1"/>
        <pt x="69" y="125" on="0"/>
        <pt x="68" y="110" on="0"/>
        <pt x="68" y="102" on="1"/>
        <pt x="68" y="57" on="0"/>
        <pt x="138" y="7" on="0"/>
      </contour>
      <contour>
        <pt x="661" y="499" on="1"/>
        <pt x="619" y="499" on="0"/>
        <pt x="548" y="465" on="0"/>
        <pt x="492" y="404" on="0"/>
        <pt x="455" y="321" on="0"/>
        <pt x="446" y="273" on="1"/>
        <pt x="444" y="262" on="1"/>
        <pt x="557" y="264" on="0"/>
        <pt x="696" y="289" on="0"/>
        <pt x="773" y="328" on="0"/>
        <pt x="799" y="375" on="0"/>
        <pt x="799" y="399" on="1"/>
        <pt x="799" y="444" on="0"/>
        <pt x="734" y="499" on="0"/>
      </contour>
      <contour>
        <pt x="202" y="-12" on="1"/>
        <pt x="128" y="-12" on="0"/>
        <pt x="47" y="47" on="0"/>
        <pt x="47" y="103" on="1"/>
        <pt x="47" y="178" on="0"/>
        <pt x="142" y="247" on="0"/>
        <pt x="241" y="252" on="1"/>
        <pt x="424" y="261" on="1"/>
        <pt x="437" y="329" on="1"/>
        <pt x="440" y="343" on="0"/>
        <pt x="442" y="370" on="0"/>
        <pt x="442" y="381" on="1"/>
        <pt x="442" y="405" on="0"/>
        <pt x="429" y="448" on="0"/>
        <pt x="398" y="480" on="0"/>
        <pt x="346" y="499" on="0"/>
        <pt x="307" y="499" on="1"/>
        <pt x="273" y="499" on="0"/>
        <pt x="221" y="488" on="0"/>
        <pt x="181" y="464" on="0"/>
        <pt x="148" y="427" on="0"/>
        <pt x="132" y="402" on="1"/>
        <pt x="115" y="411" on="1"/>
        <pt x="130" y="436" on="0"/>
        <pt x="165" y="476" on="0"/>
        <pt x="210" y="503" on="0"/>
        <pt x="269" y="518" on="0"/>
        <pt x="309" y="518" on="1"/>
        <pt x="349" y="518" on="0"/>
        <pt x="407" y="497" on="0"/>
        <pt x="444" y="462" on="0"/>
        <pt x="461" y="414" on="0"/>
        <pt x="462" y="387" on="1"/>
        <pt x="465" y="387" on="1"/>
        <pt x="496" y="446" on="0"/>
        <pt x="595" y="518" on="0"/>
        <pt x="663" y="518" on="1"/>
        <pt x="735" y="518" on="0"/>
        <pt x="821" y="455" on="0"/>
        <pt x="821" y="399" on="1"/>
        <pt x="821" y="373" on="0"/>
        <pt x="795" y="319" on="0"/>
        <pt x="714" y="275" on="0"/>
        <pt x="565" y="246" on="0"/>
        <pt x="442" y="243" on="1"/>
        <pt x="440" y="229" on="0"/>
        <pt x="436" y="203" on="0"/>
        <pt x="436" y="190" on="1"/>
        <pt x="436" y="106" on="0"/>
        <pt x="514" y="7" on="0"/>
        <pt x="592" y="7" on="1"/>
        <pt x="654" y="7" on="0"/>
        <pt x="750" y="73" on="0"/>
        <pt x="781" y="132" on="1"/>
        <pt x="800" y="125" on="1"/>
        <pt x="760" y="53" on="0"/>
        <pt x="655" y="-12" on="0"/>
        <pt x="592" y="-12" on="1"/>
        <pt x="523" y="-12" on="0"/>
        <pt x="431" y="66" on="0"/>
        <pt x="421" y="138" on="1"/>
        <pt x="418" y="138" on="1"/>
        <pt x="410" y="104" on="0"/>
        <pt x="370" y="49" on="0"/>
        <pt x="313" y="10" on="0"/>
        <pt x="242" y="-12" on="0"/>
      </contour>
    </TTGlyph>
    <TTGlyph name="aeacute" xMin="47" yMin="-12" xMax="821" yMax="751">
      <component glyphName="ae" x="0" y="0" flags="0x204"/>
      <component glyphName="acute" x="195" y="0" flags="0x4"/>
    </TTGlyph>
    <TTGlyph name="agrave" xMin="60" yMin="-12" xMax="507" yMax="751">
      <component glyphName="a" x="0" y="0" flags="0x204"/>
      <component glyphName="grave" x="30" y="0" flags="0x4"/>
    </TTGlyph>
    <TTGlyph name="agrave.alt01" xMin="47" yMin="-12" xMax="481" yMax="751">
      <component glyphName="a.alt01" x="0" y="0" flags="0x204"/>
      <component glyphName="grave" x="17" y="0" flags="0x4"/>
    </TTGlyph>
    <TTGlyph name="alpha" xMin="60" yMin="-12" xMax="600" yMax="518">
      <contour>
        <pt x="535" y="0" on="1"/>
        <pt x="477" y="0" on="1"/>
        <pt x="454" y="0" on="0"/>
        <pt x="454" y="19" on="1"/>
        <pt x="444" y="226" on="1"/>
        <pt x="441" y="226" on="1"/>
        <pt x="407" y="150" on="0"/>
        <pt x="350" y="57" on="0"/>
        <pt x="296" y="6" on="0"/>
        <pt x="240" y="-12" on="0"/>
        <pt x="209" y="-12" on="1"/>
        <pt x="143" y="-12" on="0"/>
        <pt x="60" y="86" on="0"/>
        <pt x="60" y="176" on="1"/>
        <pt x="60" y="245" on="0"/>
        <pt x="94" y="369" on="0"/>
        <pt x="157" y="463" on="0"/>
        <pt x="246" y="518" on="0"/>
        <pt x="301" y="518" on="1"/>
        <pt x="336" y="518" on="0"/>
        <pt x="391" y="496" on="0"/>
        <pt x="429" y="442" on="0"/>
        <pt x="450" y="350" on="0"/>
        <pt x="452" y="280" on="1"/>
        <pt x="455" y="280" on="1"/>
        <pt x="488" y="346" on="1"/>
        <pt x="575" y="506" on="1"/>
        <pt x="600" y="506" on="1"/>
        <pt x="460" y="252" on="1"/>
        <pt x="474" y="19" on="1"/>
        <pt x="539" y="19" on="1"/>
      </contour>
      <contour>
        <pt x="209" y="7" on="1"/>
        <pt x="236" y="7" on="0"/>
        <pt x="283" y="21" on="0"/>
        <pt x="329" y="62" on="0"/>
        <pt x="378" y="137" on="0"/>
        <pt x="409" y="199" on="1"/>
        <pt x="436" y="253" on="1"/>
        <pt x="433" y="307" on="1"/>
        <pt x="430" y="361" on="0"/>
        <pt x="411" y="434" on="0"/>
        <pt x="378" y="479" on="0"/>
        <pt x="332" y="499" on="0"/>
        <pt x="301" y="499" on="1"/>
        <pt x="263" y="499" on="0"/>
        <pt x="196" y="468" on="0"/>
        <pt x="142" y="412" on="0"/>
        <pt x="104" y="331" on="0"/>
        <pt x="94" y="282" on="1"/>
        <pt x="87" y="247" on="1"/>
        <pt x="84" y="230" on="0"/>
        <pt x="81" y="197" on="0"/>
        <pt x="81" y="176" on="1"/>
        <pt x="81" y="89" on="0"/>
        <pt x="154" y="7" on="0"/>
      </contour>
    </TTGlyph>
    <TTGlyph name="alpha.alt01" xMin="60" yMin="-12" xMax="507" yMax="518">
      <component glyphName="a" x="0" y="0" flags="0x204"/>
    </TTGlyph>
    <TTGlyph name="alphatonos" xMin="60" yMin="-12" xMax="600" yMax="751">
      <component glyphName="alpha" x="0" y="0" flags="0x204"/>
      <component glyphName="tonos" x="-7" y="0" flags="0x4"/>
    </TTGlyph>
    <TTGlyph name="alphatonos.alt01" xMin="60" yMin="-12" xMax="507" yMax="751">
      <component glyphName="a" x="0" y="0" flags="0x204"/>
      <component glyphName="tonos" x="-15" y="0" flags="0x4"/>
    </TTGlyph>
    <TTGlyph name="amacron" xMin="60" yMin="-12" xMax="507" yMax="676">
      <component glyphName="a" x="0" y="0" flags="0x204"/>
      <component glyphName="macron" x="30" y="0" flags="0x4"/>
    </TTGlyph>
    <TTGlyph name="amacron.alt01" xMin="47" yMin="-12" xMax="481" yMax="676">
      <component glyphName="a.alt01" x="0" y="0" flags="0x204"/>
      <component glyphName="macron" x="17" y="0" flags="0x4"/>
    </TTGlyph>
    <TTGlyph name="ampersand" xMin="49" yMin="-12" xMax="654" yMax="710">
      <contour>
        <pt x="471" y="115" on="1"/>
        <pt x="429" y="60" on="0"/>
        <pt x="302" y="-12" on="0"/>
        <pt x="229" y="-12" on="1"/>
        <pt x="189" y="-12" on="0"/>
        <pt x="123" y="6" on="0"/>
        <pt x="75" y="43" on="0"/>
        <pt x="49" y="98" on="0"/>
        <pt x="49" y="136" on="1"/>
        <pt x="49" y="166" on="0"/>
        <pt x="69" y="226" on="0"/>
        <pt x="118" y="284" on="0"/>
        <pt x="201" y="344" on="0"/>
        <pt x="264" y="374" on="1"/>
        <pt x="224" y="426" on="0"/>
        <pt x="198" y="498" on="0"/>
        <pt x="198" y="524" on="1"/>
        <pt x="198" y="562" on="0"/>
        <pt x="224" y="630" on="0"/>
        <pt x="273" y="681" on="0"/>
        <pt x="345" y="710" on="0"/>
        <pt x="391" y="710" on="1"/>
        <pt x="461" y="710" on="0"/>
        <pt x="535" y="644" on="0"/>
        <pt x="535" y="593" on="1"/>
        <pt x="535" y="560" on="0"/>
        <pt x="513" y="508" on="0"/>
        <pt x="458" y="458" on="0"/>
        <pt x="365" y="403" on="0"/>
        <pt x="294" y="368" on="1"/>
        <pt x="471" y="147" on="1"/>
        <pt x="497" y="188" on="0"/>
        <pt x="534" y="297" on="0"/>
        <pt x="545" y="351" on="1"/>
        <pt x="654" y="351" on="1"/>
        <pt x="650" y="331" on="1"/>
        <pt x="560" y="331" on="1"/>
        <pt x="549" y="277" on="0"/>
        <pt x="510" y="174" on="0"/>
        <pt x="483" y="132" on="1"/>
        <pt x="589" y="0" on="1"/>
        <pt x="563" y="0" on="1"/>
      </contour>
      <contour>
        <pt x="387" y="691" on="1"/>
        <pt x="322" y="691" on="0"/>
        <pt x="238" y="623" on="0"/>
        <pt x="227" y="569" on="1"/>
        <pt x="223" y="550" on="0"/>
        <pt x="220" y="531" on="0"/>
        <pt x="220" y="524" on="1"/>
        <pt x="220" y="501" on="0"/>
        <pt x="243" y="434" on="0"/>
        <pt x="282" y="383" on="1"/>
        <pt x="349" y="415" on="0"/>
        <pt x="438" y="466" on="0"/>
        <pt x="491" y="514" on="0"/>
        <pt x="513" y="562" on="0"/>
        <pt x="513" y="592" on="1"/>
        <pt x="513" y="640" on="0"/>
        <pt x="448" y="691" on="0"/>
      </contour>
      <contour>
        <pt x="276" y="359" on="1"/>
        <pt x="223" y="333" on="0"/>
        <pt x="151" y="287" on="0"/>
        <pt x="104" y="240" on="0"/>
        <pt x="79" y="191" on="0"/>
        <pt x="74" y="162" on="1"/>
        <pt x="72" y="154" on="0"/>
        <pt x="71" y="141" on="0"/>
        <pt x="71" y="133" on="1"/>
        <pt x="71" y="68" on="0"/>
        <pt x="160" y="8" on="0"/>
        <pt x="233" y="8" on="1"/>
        <pt x="303" y="8" on="0"/>
        <pt x="420" y="76" on="0"/>
        <pt x="459" y="130" on="1"/>
      </contour>
    </TTGlyph>
    <TTGlyph name="anoteleia" xMin="142" yMin="436" xMax="199" yMax="494">
      <component glyphName="period" x="97" y="441" flags="0x4"/>
    </TTGlyph>
    <TTGlyph name="aogonek" xMin="60" yMin="-202" xMax="507" yMax="518">
      <contour>
        <pt x="491" y="0" on="1"/>
        <pt x="452" y="-22" on="0"/>
        <pt x="396" y="-55" on="0"/>
        <pt x="360" y="-86" on="0"/>
        <pt x="343" y="-117" on="0"/>
        <pt x="343" y="-136" on="1"/>
        <pt x="343" y="-160" on="0"/>
        <pt x="372" y="-184" on="0"/>
        <pt x="394" y="-184" on="1"/>
        <pt x="418" y="-184" on="0"/>
        <pt x="450" y="-168" on="0"/>
        <pt x="459" y="-159" on="1"/>
        <pt x="472" y="-170" on="1"/>
        <pt x="460" y="-184" on="0"/>
        <pt x="420" y="-202" on="0"/>
        <pt x="394" y="-202" on="1"/>
        <pt x="363" y="-202" on="0"/>
        <pt x="322" y="-170" on="0"/>
        <pt x="322" y="-136" on="1"/>
        <pt x="322" y="-123" on="0"/>
        <pt x="334" y="-93" on="0"/>
        <pt x="365" y="-60" on="0"/>
        <pt x="419" y="-24" on="0"/>
        <pt x="461" y="-3" on="1"/>
        <pt x="460" y="0" on="1"/>
        <pt x="413" y="0" on="1"/>
        <pt x="390" y="0" on="0"/>
        <pt x="390" y="19" on="1"/>
        <pt x="390" y="24" on="0"/>
        <pt x="391" y="30" on="0"/>
        <pt x="392" y="35" on="1"/>
        <pt x="407" y="111" on="1"/>
        <pt x="404" y="111" on="1"/>
        <pt x="372" y="55" on="0"/>
        <pt x="287" y="-12" on="0"/>
        <pt x="223" y="-12" on="1"/>
        <pt x="184" y="-12" on="0"/>
        <pt x="123" y="17" on="0"/>
        <pt x="81" y="67" on="0"/>
        <pt x="60" y="136" on="0"/>
        <pt x="60" y="176" on="1"/>
        <pt x="60" y="245" on="0"/>
        <pt x="93" y="369" on="0"/>
        <pt x="156" y="463" on="0"/>
        <pt x="249" y="518" on="0"/>
        <pt x="309" y="518" on="1"/>
        <pt x="373" y="518" on="0"/>
        <pt x="451" y="460" on="0"/>
        <pt x="465" y="413" on="1"/>
        <pt x="468" y="413" on="1"/>
        <pt x="486" y="506" on="1"/>
        <pt x="507" y="506" on="1"/>
        <pt x="410" y="19" on="1"/>
        <pt x="495" y="19" on="1"/>
      </contour>
      <contour>
        <pt x="223" y="7" on="1"/>
        <pt x="255" y="7" on="0"/>
        <pt x="307" y="25" on="0"/>
        <pt x="333" y="47" on="1"/>
        <pt x="362" y="71" on="0"/>
        <pt x="415" y="151" on="0"/>
        <pt x="426" y="204" on="1"/>
        <pt x="454" y="346" on="1"/>
        <pt x="459" y="371" on="0"/>
        <pt x="448" y="425" on="0"/>
        <pt x="414" y="470" on="0"/>
        <pt x="354" y="499" on="0"/>
        <pt x="309" y="499" on="1"/>
        <pt x="223" y="499" on="0"/>
        <pt x="113" y="381" on="0"/>
        <pt x="94" y="282" on="1"/>
        <pt x="87" y="247" on="1"/>
        <pt x="84" y="230" on="0"/>
        <pt x="81" y="197" on="0"/>
        <pt x="81" y="176" on="1"/>
        <pt x="81" y="141" on="0"/>
        <pt x="98" y="80" on="0"/>
        <pt x="133" y="34" on="0"/>
        <pt x="186" y="7" on="0"/>
      </contour>
    </TTGlyph>
    <TTGlyph name="aogonek.alt01" xMin="47" yMin="-202" xMax="481" yMax="518">
      <contour>
        <pt x="206" y="7" on="1"/>
        <pt x="239" y="7" on="0"/>
        <pt x="303" y="25" on="0"/>
        <pt x="356" y="60" on="0"/>
        <pt x="394" y="113" on="0"/>
        <pt x="401" y="148" on="1"/>
        <pt x="422" y="254" on="1"/>
        <pt x="265" y="254" on="1"/>
        <pt x="175" y="254" on="0"/>
        <pt x="84" y="199" on="0"/>
        <pt x="75" y="151" on="1"/>
        <pt x="71" y="131" on="0"/>
        <pt x="68" y="111" on="0"/>
        <pt x="68" y="102" on="1"/>
        <pt x="68" y="57" on="0"/>
        <pt x="139" y="7" on="0"/>
      </contour>
      <contour>
        <pt x="477" y="0" on="1"/>
        <pt x="438" y="-22" on="0"/>
        <pt x="382" y="-55" on="0"/>
        <pt x="346" y="-86" on="0"/>
        <pt x="329" y="-117" on="0"/>
        <pt x="329" y="-136" on="1"/>
        <pt x="329" y="-160" on="0"/>
        <pt x="358" y="-184" on="0"/>
        <pt x="380" y="-184" on="1"/>
        <pt x="404" y="-184" on="0"/>
        <pt x="436" y="-168" on="0"/>
        <pt x="445" y="-159" on="1"/>
        <pt x="458" y="-170" on="1"/>
        <pt x="446" y="-184" on="0"/>
        <pt x="406" y="-202" on="0"/>
        <pt x="380" y="-202" on="1"/>
        <pt x="349" y="-202" on="0"/>
        <pt x="308" y="-170" on="0"/>
        <pt x="308" y="-136" on="1"/>
        <pt x="308" y="-123" on="0"/>
        <pt x="320" y="-93" on="0"/>
        <pt x="351" y="-60" on="0"/>
        <pt x="405" y="-24" on="0"/>
        <pt x="447" y="-3" on="1"/>
        <pt x="446" y="0" on="1"/>
        <pt x="399" y="0" on="1"/>
        <pt x="376" y="0" on="0"/>
        <pt x="376" y="19" on="1"/>
        <pt x="376" y="24" on="0"/>
        <pt x="377" y="30" on="0"/>
        <pt x="378" y="35" on="1"/>
        <pt x="386" y="75" on="1"/>
        <pt x="383" y="75" on="1"/>
        <pt x="358" y="40" on="0"/>
        <pt x="272" y="-12" on="0"/>
        <pt x="204" y="-12" on="1"/>
        <pt x="132" y="-12" on="0"/>
        <pt x="47" y="48" on="0"/>
        <pt x="47" y="103" on="1"/>
        <pt x="47" y="272" on="0"/>
        <pt x="266" y="272" on="1"/>
        <pt x="426" y="272" on="1"/>
        <pt x="437" y="329" on="1"/>
        <pt x="440" y="343" on="0"/>
        <pt x="442" y="370" on="0"/>
        <pt x="442" y="381" on="1"/>
        <pt x="442" y="405" on="0"/>
        <pt x="429" y="448" on="0"/>
        <pt x="398" y="480" on="0"/>
        <pt x="346" y="499" on="0"/>
        <pt x="307" y="499" on="1"/>
        <pt x="273" y="499" on="0"/>
        <pt x="221" y="488" on="0"/>
        <pt x="181" y="464" on="0"/>
        <pt x="148" y="427" on="0"/>
        <pt x="132" y="402" on="1"/>
        <pt x="115" y="411" on="1"/>
        <pt x="130" y="436" on="0"/>
        <pt x="165" y="476" on="0"/>
        <pt x="210" y="503" on="0"/>
        <pt x="269" y="518" on="0"/>
        <pt x="309" y="518" on="1"/>
        <pt x="350" y="518" on="0"/>
        <pt x="409" y="498" on="0"/>
        <pt x="446" y="462" on="0"/>
        <pt x="463" y="412" on="0"/>
        <pt x="463" y="382" on="1"/>
        <pt x="463" y="370" on="0"/>
        <pt x="461" y="343" on="0"/>
        <pt x="458" y="328" on="1"/>
        <pt x="396" y="19" on="1"/>
        <pt x="481" y="19" on="1"/>
      </contour>
    </TTGlyph>
    <TTGlyph name="approxequal" xMin="49" yMin="171" xMax="564" yMax="440">
      <component glyphName="asciitilde" x="18" y="88" flags="0x204"/>
      <component glyphName="asciitilde" x="-25" y="-85" flags="0x4"/>
    </TTGlyph>
    <TTGlyph name="aring" xMin="60" yMin="-12" xMax="507" yMax="771">
      <component glyphName="a" x="0" y="0" flags="0x204"/>
      <component glyphName="ring" x="30" y="0" flags="0x4"/>
    </TTGlyph>
    <TTGlyph name="aring.alt01" xMin="47" yMin="-12" xMax="481" yMax="771">
      <component glyphName="a.alt01" x="0" y="0" flags="0x204"/>
      <component glyphName="ring" x="17" y="0" flags="0x4"/>
    </TTGlyph>
    <TTGlyph name="aringacute" xMin="60" yMin="-12" xMax="507" yMax="911">
      <component glyphName="a" x="0" y="0" flags="0x204"/>
      <component glyphName="ringacute" x="30" y="0" flags="0x4"/>
    </TTGlyph>
    <TTGlyph name="aringacute.alt01" xMin="47" yMin="-12" xMax="481" yMax="911">
      <component glyphName="a.alt01" x="0" y="0" flags="0x204"/>
      <component glyphName="ringacute" x="17" y="0" flags="0x4"/>
    </TTGlyph>
    <TTGlyph name="asciicircum" xMin="74" yMin="322" xMax="538" yMax="698">
      <contour>
        <pt x="520" y="322" on="1"/>
        <pt x="378" y="676" on="1"/>
        <pt x="376" y="676" on="1"/>
        <pt x="92" y="322" on="1"/>
        <pt x="74" y="332" on="1"/>
        <pt x="369" y="698" on="1"/>
        <pt x="391" y="698" on="1"/>
        <pt x="538" y="332" on="1"/>
      </contour>
    </TTGlyph>
    <TTGlyph name="asciitilde" xMin="74" yMin="256" xMax="546" yMax="352">
      <contour>
        <pt x="425" y="256" on="1"/>
        <pt x="410" y="256" on="0"/>
        <pt x="385" y="261" on="0"/>
        <pt x="358" y="270" on="0"/>
        <pt x="325" y="285" on="0"/>
        <pt x="304" y="296" on="1"/>
        <pt x="284" y="306" on="0"/>
        <pt x="254" y="319" on="0"/>
        <pt x="228" y="328" on="0"/>
        <pt x="204" y="332" on="0"/>
        <pt x="191" y="332" on="1"/>
        <pt x="162" y="332" on="0"/>
        <pt x="115" y="313" on="0"/>
        <pt x="86" y="290" on="1"/>
        <pt x="74" y="304" on="1"/>
        <pt x="132" y="352" on="0"/>
        <pt x="195" y="352" on="1"/>
        <pt x="210" y="352" on="0"/>
        <pt x="235" y="347" on="0"/>
        <pt x="262" y="338" on="0"/>
        <pt x="295" y="322" on="0"/>
        <pt x="316" y="312" on="1"/>
        <pt x="336" y="302" on="0"/>
        <pt x="366" y="289" on="0"/>
        <pt x="392" y="280" on="0"/>
        <pt x="415" y="276" on="0"/>
        <pt x="429" y="276" on="1"/>
        <pt x="458" y="276" on="0"/>
        <pt x="505" y="295" on="0"/>
        <pt x="534" y="318" on="1"/>
        <pt x="546" y="304" on="1"/>
        <pt x="488" y="256" on="0"/>
      </contour>
    </TTGlyph>
    <TTGlyph name="asterisk" xMin="92" yMin="436" xMax="418" yMax="747">
      <contour>
        <pt x="126" y="436" on="1"/>
        <pt x="111" y="447" on="1"/>
        <pt x="230" y="576" on="1"/>
        <pt x="92" y="621" on="1"/>
        <pt x="100" y="640" on="1"/>
        <pt x="239" y="591" on="1"/>
        <pt x="268" y="747" on="1"/>
        <pt x="288" y="747" on="1"/>
        <pt x="257" y="590" on="1"/>
        <pt x="413" y="640" on="1"/>
        <pt x="418" y="621" on="1"/>
        <pt x="260" y="574" on="1"/>
        <pt x="328" y="446" on="1"/>
        <pt x="312" y="436" on="1"/>
        <pt x="244" y="565" on="1"/>
      </contour>
    </TTGlyph>
    <TTGlyph name="at" xMin="66" yMin="-121" xMax="834" yMax="710">
      <contour>
        <pt x="364" y="-121" on="1"/>
        <pt x="295" y="-121" on="0"/>
        <pt x="185" y="-80" on="0"/>
        <pt x="108" y="-2" on="0"/>
        <pt x="66" y="112" on="0"/>
        <pt x="66" y="186" on="1"/>
        <pt x="66" y="238" on="0"/>
        <pt x="78" y="300" on="1"/>
        <pt x="97" y="393" on="0"/>
        <pt x="180" y="544" on="0"/>
        <pt x="299" y="651" on="0"/>
        <pt x="448" y="710" on="0"/>
        <pt x="532" y="710" on="1"/>
        <pt x="597" y="710" on="0"/>
        <pt x="708" y="672" on="0"/>
        <pt x="789" y="597" on="0"/>
        <pt x="834" y="486" on="0"/>
        <pt x="834" y="414" on="1"/>
        <pt x="834" y="392" on="0"/>
        <pt x="829" y="346" on="0"/>
        <pt x="824" y="320" on="1"/>
        <pt x="815" y="266" on="0"/>
        <pt x="780" y="175" on="0"/>
        <pt x="731" y="107" on="0"/>
        <pt x="668" y="69" on="0"/>
        <pt x="630" y="69" on="1"/>
        <pt x="594" y="69" on="0"/>
        <pt x="552" y="107" on="0"/>
        <pt x="552" y="138" on="1"/>
        <pt x="552" y="150" on="1"/>
        <pt x="549" y="150" on="1"/>
        <pt x="539" y="136" on="0"/>
        <pt x="510" y="107" on="0"/>
        <pt x="472" y="84" on="0"/>
        <pt x="425" y="69" on="0"/>
        <pt x="398" y="69" on="1"/>
        <pt x="332" y="69" on="0"/>
        <pt x="261" y="144" on="0"/>
        <pt x="261" y="210" on="1"/>
        <pt x="261" y="227" on="0"/>
        <pt x="265" y="266" on="0"/>
        <pt x="269" y="287" on="1"/>
        <pt x="289" y="400" on="0"/>
        <pt x="402" y="508" on="0"/>
        <pt x="486" y="508" on="1"/>
        <pt x="534" y="508" on="0"/>
        <pt x="598" y="458" on="0"/>
        <pt x="605" y="426" on="1"/>
        <pt x="608" y="426" on="1"/>
        <pt x="621" y="496" on="1"/>
        <pt x="641" y="496" on="1"/>
        <pt x="575" y="163" on="1"/>
        <pt x="573" y="156" on="0"/>
        <pt x="573" y="144" on="0"/>
        <pt x="573" y="138" on="1"/>
        <pt x="573" y="114" on="0"/>
        <pt x="604" y="87" on="0"/>
        <pt x="633" y="87" on="1"/>
        <pt x="687" y="87" on="0"/>
        <pt x="778" y="195" on="0"/>
        <pt x="797" y="295" on="1"/>
        <pt x="806" y="342" on="1"/>
        <pt x="810" y="362" on="0"/>
        <pt x="814" y="396" on="0"/>
        <pt x="814" y="414" on="1"/>
        <pt x="814" y="481" on="0"/>
        <pt x="772" y="584" on="0"/>
        <pt x="697" y="655" on="0"/>
        <pt x="592" y="692" on="0"/>
        <pt x="528" y="692" on="1"/>
        <pt x="452" y="692" on="0"/>
        <pt x="313" y="636" on="0"/>
        <pt x="201" y="537" on="0"/>
        <pt x="122" y="404" on="0"/>
        <pt x="106" y="326" on="1"/>
        <pt x="95" y="274" on="1"/>
        <pt x="85" y="228" on="0"/>
        <pt x="85" y="186" on="1"/>
        <pt x="85" y="118" on="0"/>
        <pt x="125" y="10" on="0"/>
        <pt x="199" y="-64" on="0"/>
        <pt x="303" y="-103" on="0"/>
        <pt x="367" y="-103" on="1"/>
        <pt x="603" y="-103" on="1"/>
        <pt x="600" y="-121" on="1"/>
      </contour>
      <contour>
        <pt x="401" y="87" on="1"/>
        <pt x="428" y="87" on="0"/>
        <pt x="482" y="107" on="0"/>
        <pt x="527" y="142" on="0"/>
        <pt x="559" y="187" on="0"/>
        <pt x="564" y="212" on="1"/>
        <pt x="594" y="362" on="1"/>
        <pt x="600" y="390" on="0"/>
        <pt x="587" y="438" on="0"/>
        <pt x="556" y="471" on="0"/>
        <pt x="510" y="490" on="0"/>
        <pt x="482" y="490" on="1"/>
        <pt x="409" y="490" on="0"/>
        <pt x="312" y="392" on="0"/>
        <pt x="295" y="306" on="1"/>
        <pt x="288" y="268" on="1"/>
        <pt x="282" y="236" on="0"/>
        <pt x="282" y="210" on="1"/>
        <pt x="282" y="153" on="0"/>
        <pt x="341" y="87" on="0"/>
      </contour>
    </TTGlyph>
    <TTGlyph name="atilde" xMin="60" yMin="-12" xMax="507" yMax="702">
      <component glyphName="a" x="0" y="0" flags="0x204"/>
      <component glyphName="tilde" x="30" y="0" flags="0x4"/>
    </TTGlyph>
    <TTGlyph name="atilde.alt01" xMin="47" yMin="-12" xMax="491" yMax="702">
      <component glyphName="a.alt01" x="0" y="0" flags="0x204"/>
      <component glyphName="tilde" x="17" y="0" flags="0x4"/>
    </TTGlyph>
    <TTGlyph name="b" xMin="53" yMin="-12" xMax="500" yMax="740">
      <contour>
        <pt x="201" y="740" on="1"/>
        <pt x="222" y="740" on="1"/>
        <pt x="153" y="395" on="1"/>
        <pt x="156" y="395" on="1"/>
        <pt x="188" y="451" on="0"/>
        <pt x="273" y="518" on="0"/>
        <pt x="337" y="518" on="1"/>
        <pt x="376" y="518" on="0"/>
        <pt x="437" y="489" on="0"/>
        <pt x="479" y="439" on="0"/>
        <pt x="500" y="370" on="0"/>
        <pt x="500" y="330" on="1"/>
        <pt x="500" y="261" on="0"/>
        <pt x="467" y="137" on="0"/>
        <pt x="404" y="43" on="0"/>
        <pt x="311" y="-12" on="0"/>
        <pt x="251" y="-12" on="1"/>
        <pt x="187" y="-12" on="0"/>
        <pt x="109" y="46" on="0"/>
        <pt x="95" y="93" on="1"/>
        <pt x="92" y="93" on="1"/>
        <pt x="74" y="0" on="1"/>
        <pt x="53" y="0" on="1"/>
      </contour>
      <contour>
        <pt x="251" y="7" on="1"/>
        <pt x="337" y="7" on="0"/>
        <pt x="446" y="125" on="0"/>
        <pt x="466" y="224" on="1"/>
        <pt x="473" y="259" on="1"/>
        <pt x="476" y="276" on="0"/>
        <pt x="479" y="309" on="0"/>
        <pt x="479" y="330" on="1"/>
        <pt x="479" y="365" on="0"/>
        <pt x="462" y="426" on="0"/>
        <pt x="427" y="472" on="0"/>
        <pt x="374" y="499" on="0"/>
        <pt x="337" y="499" on="1"/>
        <pt x="305" y="499" on="0"/>
        <pt x="253" y="481" on="0"/>
        <pt x="227" y="459" on="1"/>
        <pt x="198" y="435" on="0"/>
        <pt x="145" y="355" on="0"/>
        <pt x="134" y="302" on="1"/>
        <pt x="106" y="160" on="1"/>
        <pt x="101" y="135" on="0"/>
        <pt x="112" y="81" on="0"/>
        <pt x="146" y="36" on="0"/>
        <pt x="206" y="7" on="0"/>
      </contour>
    </TTGlyph>
    <TTGlyph name="backslash" xMin="126" yMin="-151" xMax="217" yMax="740">
      <contour>
        <pt x="198" y="-151" on="1"/>
        <pt x="126" y="740" on="1"/>
        <pt x="145" y="740" on="1"/>
        <pt x="217" y="-151" on="1"/>
      </contour>
    </TTGlyph>
    <TTGlyph name="bar" xMin="27" yMin="-138" xMax="227" yMax="760">
      <contour>
        <pt x="27" y="-138" on="1"/>
        <pt x="207" y="760" on="1"/>
        <pt x="227" y="760" on="1"/>
        <pt x="47" y="-138" on="1"/>
      </contour>
    </TTGlyph>
    <TTGlyph name="beta" xMin="13" yMin="-200" xMax="518" yMax="752">
      <contour>
        <pt x="157" y="521" on="1"/>
        <pt x="167" y="573" on="0"/>
        <pt x="205" y="659" on="0"/>
        <pt x="259" y="719" on="0"/>
        <pt x="331" y="752" on="0"/>
        <pt x="377" y="752" on="1"/>
        <pt x="416" y="752" on="0"/>
        <pt x="470" y="730" on="0"/>
        <pt x="503" y="693" on="0"/>
        <pt x="518" y="645" on="0"/>
        <pt x="518" y="620" on="1"/>
        <pt x="518" y="577" on="0"/>
        <pt x="493" y="506" on="0"/>
        <pt x="451" y="451" on="0"/>
        <pt x="397" y="414" on="0"/>
        <pt x="369" y="407" on="1"/>
        <pt x="369" y="404" on="1"/>
        <pt x="423" y="395" on="0"/>
        <pt x="483" y="316" on="0"/>
        <pt x="483" y="263" on="1"/>
        <pt x="483" y="201" on="0"/>
        <pt x="448" y="100" on="0"/>
        <pt x="387" y="28" on="0"/>
        <pt x="302" y="-12" on="0"/>
        <pt x="253" y="-12" on="1"/>
        <pt x="187" y="-12" on="0"/>
        <pt x="109" y="46" on="0"/>
        <pt x="95" y="93" on="1"/>
        <pt x="92" y="93" on="1"/>
        <pt x="34" y="-200" on="1"/>
        <pt x="13" y="-200" on="1"/>
      </contour>
      <contour>
        <pt x="237" y="415" on="1"/>
        <pt x="321" y="415" on="1"/>
        <pt x="354" y="415" on="0"/>
        <pt x="409" y="439" on="0"/>
        <pt x="452" y="478" on="0"/>
        <pt x="481" y="529" on="0"/>
        <pt x="489" y="557" on="1"/>
        <pt x="494" y="574" on="0"/>
        <pt x="497" y="606" on="0"/>
        <pt x="497" y="620" on="1"/>
        <pt x="497" y="671" on="0"/>
        <pt x="441" y="733" on="0"/>
        <pt x="375" y="733" on="1"/>
        <pt x="343" y="733" on="0"/>
        <pt x="282" y="711" on="0"/>
        <pt x="230" y="660" on="0"/>
        <pt x="190" y="579" on="0"/>
        <pt x="178" y="521" on="1"/>
        <pt x="106" y="160" on="1"/>
        <pt x="101" y="135" on="0"/>
        <pt x="112" y="81" on="0"/>
        <pt x="146" y="36" on="0"/>
        <pt x="207" y="7" on="0"/>
        <pt x="253" y="7" on="1"/>
        <pt x="297" y="7" on="0"/>
        <pt x="367" y="38" on="0"/>
        <pt x="418" y="91" on="0"/>
        <pt x="450" y="161" on="0"/>
        <pt x="456" y="199" on="1"/>
        <pt x="462" y="235" on="0"/>
        <pt x="462" y="263" on="1"/>
        <pt x="462" y="291" on="0"/>
        <pt x="444" y="339" on="0"/>
        <pt x="408" y="375" on="0"/>
        <pt x="354" y="396" on="0"/>
        <pt x="318" y="396" on="1"/>
        <pt x="233" y="396" on="1"/>
      </contour>
    </TTGlyph>
    <TTGlyph name="braceleft" xMin="34" yMin="-138" xMax="351" yMax="760">
      <contour>
        <pt x="71" y="-138" on="1"/>
        <pt x="50" y="-138" on="0"/>
        <pt x="50" y="-120" on="1"/>
        <pt x="50" y="-117" on="0"/>
        <pt x="54" y="-97" on="1"/>
        <pt x="114" y="201" on="1"/>
        <pt x="117" y="216" on="0"/>
        <pt x="117" y="228" on="1"/>
        <pt x="117" y="262" on="0"/>
        <pt x="72" y="287" on="0"/>
        <pt x="34" y="287" on="1"/>
        <pt x="44" y="335" on="1"/>
        <pt x="141" y="335" on="0"/>
        <pt x="158" y="421" on="1"/>
        <pt x="221" y="734" on="1"/>
        <pt x="225" y="760" on="0"/>
        <pt x="251" y="760" on="1"/>
        <pt x="351" y="760" on="1"/>
        <pt x="347" y="742" on="1"/>
        <pt x="242" y="742" on="1"/>
        <pt x="178" y="421" on="1"/>
        <pt x="168" y="371" on="0"/>
        <pt x="104" y="319" on="0"/>
        <pt x="59" y="319" on="1"/>
        <pt x="55" y="303" on="1"/>
        <pt x="93" y="303" on="0"/>
        <pt x="137" y="267" on="0"/>
        <pt x="137" y="230" on="1"/>
        <pt x="137" y="217" on="0"/>
        <pt x="134" y="201" on="1"/>
        <pt x="70" y="-120" on="1"/>
        <pt x="175" y="-120" on="1"/>
        <pt x="171" y="-138" on="1"/>
      </contour>
    </TTGlyph>
    <TTGlyph name="braceright" xMin="-12" yMin="-138" xMax="305" yMax="760">
      <contour>
        <pt x="-8" y="-120" on="1"/>
        <pt x="97" y="-120" on="1"/>
        <pt x="161" y="201" on="1"/>
        <pt x="171" y="251" on="0"/>
        <pt x="235" y="303" on="0"/>
        <pt x="280" y="303" on="1"/>
        <pt x="284" y="319" on="1"/>
        <pt x="246" y="319" on="0"/>
        <pt x="202" y="355" on="0"/>
        <pt x="202" y="392" on="1"/>
        <pt x="202" y="404" on="0"/>
        <pt x="205" y="421" on="1"/>
        <pt x="269" y="742" on="1"/>
        <pt x="164" y="742" on="1"/>
        <pt x="168" y="760" on="1"/>
        <pt x="268" y="760" on="1"/>
        <pt x="289" y="760" on="0"/>
        <pt x="289" y="742" on="1"/>
        <pt x="289" y="739" on="0"/>
        <pt x="285" y="719" on="1"/>
        <pt x="225" y="421" on="1"/>
        <pt x="222" y="406" on="0"/>
        <pt x="222" y="394" on="1"/>
        <pt x="222" y="360" on="0"/>
        <pt x="267" y="335" on="0"/>
        <pt x="305" y="335" on="1"/>
        <pt x="295" y="287" on="1"/>
        <pt x="198" y="287" on="0"/>
        <pt x="181" y="201" on="1"/>
        <pt x="118" y="-112" on="1"/>
        <pt x="114" y="-138" on="0"/>
        <pt x="88" y="-138" on="1"/>
        <pt x="-12" y="-138" on="1"/>
      </contour>
    </TTGlyph>
    <TTGlyph name="bracketleft" xMin="32" yMin="-138" xMax="336" yMax="760">
      <contour>
        <pt x="32" y="-138" on="1"/>
        <pt x="212" y="760" on="1"/>
        <pt x="336" y="760" on="1"/>
        <pt x="332" y="742" on="1"/>
        <pt x="228" y="742" on="1"/>
        <pt x="56" y="-120" on="1"/>
        <pt x="160" y="-120" on="1"/>
        <pt x="156" y="-138" on="1"/>
      </contour>
    </TTGlyph>
    <TTGlyph name="bracketright" xMin="-11" yMin="-138" xMax="293" yMax="760">
      <contour>
        <pt x="293" y="760" on="1"/>
        <pt x="113" y="-138" on="1"/>
        <pt x="-11" y="-138" on="1"/>
        <pt x="-7" y="-120" on="1"/>
        <pt x="97" y="-120" on="1"/>
        <pt x="269" y="742" on="1"/>
        <pt x="165" y="742" on="1"/>
        <pt x="169" y="760" on="1"/>
      </contour>
    </TTGlyph>
    <TTGlyph name="breve" xMin="199" yMin="606" xMax="462" yMax="730">
      <contour>
        <pt x="314" y="606" on="1"/>
        <pt x="289" y="606" on="0"/>
        <pt x="254" y="622" on="0"/>
        <pt x="228" y="652" on="0"/>
        <pt x="208" y="695" on="0"/>
        <pt x="199" y="723" on="1"/>
        <pt x="215" y="730" on="1"/>
        <pt x="230" y="693" on="1"/>
        <pt x="245" y="656" on="0"/>
        <pt x="283" y="625" on="0"/>
        <pt x="314" y="625" on="1"/>
        <pt x="348" y="625" on="0"/>
        <pt x="394" y="655" on="0"/>
        <pt x="421" y="694" on="1"/>
        <pt x="446" y="730" on="1"/>
        <pt x="462" y="723" on="1"/>
        <pt x="444" y="696" on="0"/>
        <pt x="413" y="653" on="0"/>
        <pt x="380" y="622" on="0"/>
        <pt x="340" y="606" on="0"/>
      </contour>
    </TTGlyph>
    <TTGlyph name="breve.case" xMin="203" yMin="786" xMax="466" yMax="910">
      <contour>
        <pt x="318" y="786" on="1"/>
        <pt x="293" y="786" on="0"/>
        <pt x="258" y="802" on="0"/>
        <pt x="232" y="832" on="0"/>
        <pt x="212" y="875" on="0"/>
        <pt x="203" y="903" on="1"/>
        <pt x="219" y="910" on="1"/>
        <pt x="234" y="873" on="1"/>
        <pt x="249" y="836" on="0"/>
        <pt x="287" y="805" on="0"/>
        <pt x="318" y="805" on="1"/>
        <pt x="352" y="805" on="0"/>
        <pt x="398" y="835" on="0"/>
        <pt x="425" y="874" on="1"/>
        <pt x="450" y="910" on="1"/>
        <pt x="466" y="903" on="1"/>
        <pt x="448" y="876" on="0"/>
        <pt x="417" y="833" on="0"/>
        <pt x="384" y="802" on="0"/>
        <pt x="344" y="786" on="0"/>
      </contour>
    </TTGlyph>
    <TTGlyph name="breve.cyrl" xMin="207" yMin="606" xMax="464" yMax="727">
      <contour>
        <pt x="314" y="606" on="1"/>
        <pt x="276" y="606" on="0"/>
        <pt x="235" y="642" on="0"/>
        <pt x="223" y="675" on="1"/>
        <pt x="207" y="720" on="1"/>
        <pt x="223" y="727" on="1"/>
        <pt x="246" y="662" on="1"/>
        <pt x="258" y="642" on="0"/>
        <pt x="289" y="624" on="0"/>
        <pt x="315" y="624" on="1"/>
        <pt x="341" y="624" on="0"/>
        <pt x="379" y="642" on="0"/>
        <pt x="402" y="662" on="1"/>
        <pt x="449" y="727" on="1"/>
        <pt x="464" y="719" on="1"/>
        <pt x="431" y="675" on="1"/>
        <pt x="406" y="642" on="0"/>
        <pt x="352" y="606" on="0"/>
      </contour>
    </TTGlyph>
    <TTGlyph name="breve.cyrl_case" xMin="211" yMin="786" xMax="468" yMax="907">
      <contour>
        <pt x="318" y="786" on="1"/>
        <pt x="280" y="786" on="0"/>
        <pt x="239" y="822" on="0"/>
        <pt x="227" y="855" on="1"/>
        <pt x="211" y="900" on="1"/>
        <pt x="227" y="907" on="1"/>
        <pt x="250" y="842" on="1"/>
        <pt x="262" y="822" on="0"/>
        <pt x="293" y="804" on="0"/>
        <pt x="319" y="804" on="1"/>
        <pt x="345" y="804" on="0"/>
        <pt x="383" y="822" on="0"/>
        <pt x="406" y="842" on="1"/>
        <pt x="453" y="907" on="1"/>
        <pt x="468" y="899" on="1"/>
        <pt x="435" y="855" on="1"/>
        <pt x="410" y="822" on="0"/>
        <pt x="356" y="786" on="0"/>
      </contour>
    </TTGlyph>
    <TTGlyph name="breveacute" xMin="-102" yMin="594" xMax="161" yMax="861">
      <contour>
        <pt x="13" y="594" on="1"/>
        <pt x="-37" y="594" on="0"/>
        <pt x="-85" y="650" on="0"/>
        <pt x="-102" y="701" on="1"/>
        <pt x="-86" y="708" on="1"/>
        <pt x="-71" y="673" on="1"/>
        <pt x="-57" y="641" on="0"/>
        <pt x="-18" y="613" on="0"/>
        <pt x="13" y="613" on="1"/>
        <pt x="30" y="613" on="0"/>
        <pt x="58" y="618" on="0"/>
        <pt x="83" y="632" on="0"/>
        <pt x="106" y="655" on="0"/>
        <pt x="119" y="672" on="1"/>
        <pt x="145" y="708" on="1"/>
        <pt x="161" y="701" on="1"/>
        <pt x="144" y="675" on="0"/>
        <pt x="114" y="635" on="0"/>
        <pt x="80" y="608" on="0"/>
        <pt x="39" y="594" on="0"/>
      </contour>
      <contour>
        <pt x="14" y="697" on="1"/>
        <pt x="1" y="708" on="1"/>
        <pt x="144" y="861" on="1"/>
        <pt x="161" y="848" on="1"/>
      </contour>
    </TTGlyph>
    <TTGlyph name="breveacute.case" xMin="-97" yMin="776" xMax="166" yMax="1042">
      <contour>
        <pt x="18" y="776" on="1"/>
        <pt x="-32" y="776" on="0"/>
        <pt x="-80" y="832" on="0"/>
        <pt x="-97" y="883" on="1"/>
        <pt x="-81" y="890" on="1"/>
        <pt x="-66" y="855" on="1"/>
        <pt x="-52" y="823" on="0"/>
        <pt x="-13" y="795" on="0"/>
        <pt x="18" y="795" on="1"/>
        <pt x="35" y="795" on="0"/>
        <pt x="63" y="800" on="0"/>
        <pt x="88" y="814" on="0"/>
        <pt x="111" y="837" on="0"/>
        <pt x="124" y="854" on="1"/>
        <pt x="150" y="890" on="1"/>
        <pt x="166" y="883" on="1"/>
        <pt x="149" y="857" on="0"/>
        <pt x="119" y="817" on="0"/>
        <pt x="85" y="790" on="0"/>
        <pt x="44" y="776" on="0"/>
      </contour>
      <contour>
        <pt x="19" y="878" on="1"/>
        <pt x="6" y="889" on="1"/>
        <pt x="149" y="1042" on="1"/>
        <pt x="166" y="1029" on="1"/>
      </contour>
    </TTGlyph>
    <TTGlyph name="brevegrave" xMin="-102" yMin="594" xMax="161" yMax="861">
      <contour>
        <pt x="13" y="594" on="1"/>
        <pt x="-37" y="594" on="0"/>
        <pt x="-85" y="650" on="0"/>
        <pt x="-102" y="701" on="1"/>
        <pt x="-86" y="708" on="1"/>
        <pt x="-71" y="673" on="1"/>
        <pt x="-57" y="641" on="0"/>
        <pt x="-18" y="613" on="0"/>
        <pt x="13" y="613" on="1"/>
        <pt x="30" y="613" on="0"/>
        <pt x="58" y="618" on="0"/>
        <pt x="83" y="632" on="0"/>
        <pt x="106" y="655" on="0"/>
        <pt x="119" y="672" on="1"/>
        <pt x="145" y="708" on="1"/>
        <pt x="161" y="701" on="1"/>
        <pt x="144" y="675" on="0"/>
        <pt x="114" y="635" on="0"/>
        <pt x="80" y="608" on="0"/>
        <pt x="39" y="594" on="0"/>
      </contour>
      <contour>
        <pt x="-55" y="850" on="1"/>
        <pt x="-36" y="861" on="1"/>
        <pt x="45" y="706" on="1"/>
        <pt x="29" y="697" on="1"/>
      </contour>
    </TTGlyph>
    <TTGlyph name="brevegrave.case" xMin="-97" yMin="776" xMax="166" yMax="1041">
      <contour>
        <pt x="18" y="776" on="1"/>
        <pt x="-32" y="776" on="0"/>
        <pt x="-80" y="832" on="0"/>
        <pt x="-97" y="883" on="1"/>
        <pt x="-81" y="890" on="1"/>
        <pt x="-66" y="855" on="1"/>
        <pt x="-52" y="823" on="0"/>
        <pt x="-13" y="795" on="0"/>
        <pt x="18" y="795" on="1"/>
        <pt x="35" y="795" on="0"/>
        <pt x="63" y="800" on="0"/>
        <pt x="88" y="814" on="0"/>
        <pt x="111" y="837" on="0"/>
        <pt x="124" y="854" on="1"/>
        <pt x="150" y="890" on="1"/>
        <pt x="166" y="883" on="1"/>
        <pt x="149" y="857" on="0"/>
        <pt x="119" y="817" on="0"/>
        <pt x="85" y="790" on="0"/>
        <pt x="44" y="776" on="0"/>
      </contour>
      <contour>
        <pt x="-53" y="1030" on="1"/>
        <pt x="-34" y="1041" on="1"/>
        <pt x="47" y="886" on="1"/>
        <pt x="31" y="877" on="1"/>
      </contour>
    </TTGlyph>
    <TTGlyph name="brevehook" xMin="-102" yMin="594" xMax="161" yMax="847">
      <contour>
        <pt x="13" y="594" on="1"/>
        <pt x="-37" y="594" on="0"/>
        <pt x="-85" y="650" on="0"/>
        <pt x="-102" y="701" on="1"/>
        <pt x="-86" y="708" on="1"/>
        <pt x="-71" y="673" on="1"/>
        <pt x="-57" y="641" on="0"/>
        <pt x="-18" y="613" on="0"/>
        <pt x="13" y="613" on="1"/>
        <pt x="30" y="613" on="0"/>
        <pt x="58" y="618" on="0"/>
        <pt x="83" y="632" on="0"/>
        <pt x="106" y="655" on="0"/>
        <pt x="119" y="672" on="1"/>
        <pt x="145" y="708" on="1"/>
        <pt x="161" y="701" on="1"/>
        <pt x="144" y="675" on="0"/>
        <pt x="114" y="635" on="0"/>
        <pt x="80" y="608" on="0"/>
        <pt x="39" y="594" on="0"/>
      </contour>
      <contour>
        <pt x="-36" y="847" on="1"/>
        <pt x="97" y="847" on="1"/>
        <pt x="111" y="847" on="0"/>
        <pt x="121" y="839" on="0"/>
        <pt x="121" y="832" on="1"/>
        <pt x="121" y="829" on="0"/>
        <pt x="119" y="822" on="0"/>
        <pt x="111" y="810" on="0"/>
        <pt x="96" y="792" on="0"/>
        <pt x="83" y="777" on="1"/>
        <pt x="14" y="695" on="1"/>
        <pt x="-1" y="704" on="1"/>
        <pt x="101" y="829" on="1"/>
        <pt x="-39" y="829" on="1"/>
      </contour>
    </TTGlyph>
    <TTGlyph name="brevehook.case" xMin="-97" yMin="776" xMax="166" yMax="1027">
      <contour>
        <pt x="-26" y="1027" on="1"/>
        <pt x="107" y="1027" on="1"/>
        <pt x="121" y="1027" on="0"/>
        <pt x="131" y="1019" on="0"/>
        <pt x="131" y="1012" on="1"/>
        <pt x="131" y="1009" on="0"/>
        <pt x="129" y="1002" on="0"/>
        <pt x="121" y="990" on="0"/>
        <pt x="106" y="972" on="0"/>
        <pt x="93" y="957" on="1"/>
        <pt x="24" y="875" on="1"/>
        <pt x="9" y="884" on="1"/>
        <pt x="111" y="1009" on="1"/>
        <pt x="-29" y="1009" on="1"/>
      </contour>
      <contour>
        <pt x="18" y="776" on="1"/>
        <pt x="-32" y="776" on="0"/>
        <pt x="-80" y="832" on="0"/>
        <pt x="-97" y="883" on="1"/>
        <pt x="-81" y="890" on="1"/>
        <pt x="-66" y="855" on="1"/>
        <pt x="-52" y="823" on="0"/>
        <pt x="-13" y="795" on="0"/>
        <pt x="18" y="795" on="1"/>
        <pt x="35" y="795" on="0"/>
        <pt x="63" y="800" on="0"/>
        <pt x="88" y="814" on="0"/>
        <pt x="111" y="837" on="0"/>
        <pt x="124" y="854" on="1"/>
        <pt x="150" y="890" on="1"/>
        <pt x="166" y="883" on="1"/>
        <pt x="149" y="857" on="0"/>
        <pt x="119" y="817" on="0"/>
        <pt x="85" y="790" on="0"/>
        <pt x="44" y="776" on="0"/>
      </contour>
    </TTGlyph>
    <TTGlyph name="brevetilde" xMin="-104" yMin="594" xMax="197" yMax="836">
      <contour>
        <pt x="13" y="594" on="1"/>
        <pt x="-37" y="594" on="0"/>
        <pt x="-85" y="650" on="0"/>
        <pt x="-102" y="701" on="1"/>
        <pt x="-86" y="708" on="1"/>
        <pt x="-71" y="673" on="1"/>
        <pt x="-57" y="641" on="0"/>
        <pt x="-18" y="613" on="0"/>
        <pt x="13" y="613" on="1"/>
        <pt x="30" y="613" on="0"/>
        <pt x="58" y="618" on="0"/>
        <pt x="83" y="632" on="0"/>
        <pt x="106" y="655" on="0"/>
        <pt x="119" y="672" on="1"/>
        <pt x="145" y="708" on="1"/>
        <pt x="161" y="701" on="1"/>
        <pt x="144" y="675" on="0"/>
        <pt x="114" y="635" on="0"/>
        <pt x="80" y="608" on="0"/>
        <pt x="39" y="594" on="0"/>
      </contour>
      <contour>
        <pt x="112" y="762" on="1"/>
        <pt x="92" y="762" on="0"/>
        <pt x="63" y="777" on="0"/>
        <pt x="40" y="793" on="1"/>
        <pt x="21" y="806" on="0"/>
        <pt x="-7" y="818" on="0"/>
        <pt x="-24" y="818" on="1"/>
        <pt x="-56" y="818" on="0"/>
        <pt x="-93" y="785" on="1"/>
        <pt x="-104" y="797" on="1"/>
        <pt x="-81" y="819" on="0"/>
        <pt x="-40" y="836" on="0"/>
        <pt x="-19" y="836" on="1"/>
        <pt x="1" y="836" on="0"/>
        <pt x="30" y="822" on="0"/>
        <pt x="53" y="806" on="1"/>
        <pt x="72" y="793" on="0"/>
        <pt x="100" y="780" on="0"/>
        <pt x="117" y="780" on="1"/>
        <pt x="134" y="780" on="0"/>
        <pt x="167" y="796" on="0"/>
        <pt x="186" y="813" on="1"/>
        <pt x="197" y="801" on="1"/>
        <pt x="174" y="779" on="0"/>
        <pt x="133" y="762" on="0"/>
      </contour>
    </TTGlyph>
    <TTGlyph name="brevetilde.case" xMin="-99" yMin="776" xMax="202" yMax="1017">
      <contour>
        <pt x="117" y="943" on="1"/>
        <pt x="97" y="943" on="0"/>
        <pt x="68" y="958" on="0"/>
        <pt x="45" y="974" on="1"/>
        <pt x="26" y="987" on="0"/>
        <pt x="-2" y="999" on="0"/>
        <pt x="-19" y="999" on="1"/>
        <pt x="-51" y="999" on="0"/>
        <pt x="-88" y="966" on="1"/>
        <pt x="-99" y="978" on="1"/>
        <pt x="-76" y="1000" on="0"/>
        <pt x="-35" y="1017" on="0"/>
        <pt x="-14" y="1017" on="1"/>
        <pt x="6" y="1017" on="0"/>
        <pt x="35" y="1003" on="0"/>
        <pt x="58" y="987" on="1"/>
        <pt x="77" y="974" on="0"/>
        <pt x="105" y="961" on="0"/>
        <pt x="122" y="961" on="1"/>
        <pt x="139" y="961" on="0"/>
        <pt x="172" y="977" on="0"/>
        <pt x="191" y="994" on="1"/>
        <pt x="202" y="982" on="1"/>
        <pt x="179" y="960" on="0"/>
        <pt x="138" y="943" on="0"/>
      </contour>
      <contour>
        <pt x="18" y="776" on="1"/>
        <pt x="-32" y="776" on="0"/>
        <pt x="-80" y="832" on="0"/>
        <pt x="-97" y="883" on="1"/>
        <pt x="-81" y="890" on="1"/>
        <pt x="-66" y="855" on="1"/>
        <pt x="-52" y="823" on="0"/>
        <pt x="-13" y="795" on="0"/>
        <pt x="18" y="795" on="1"/>
        <pt x="35" y="795" on="0"/>
        <pt x="63" y="800" on="0"/>
        <pt x="88" y="814" on="0"/>
        <pt x="111" y="837" on="0"/>
        <pt x="124" y="854" on="1"/>
        <pt x="150" y="890" on="1"/>
        <pt x="166" y="883" on="1"/>
        <pt x="149" y="857" on="0"/>
        <pt x="119" y="817" on="0"/>
        <pt x="85" y="790" on="0"/>
        <pt x="44" y="776" on="0"/>
      </contour>
    </TTGlyph>
    <TTGlyph name="brokenbar" xMin="27" yMin="-138" xMax="227" yMax="760">
      <contour>
        <pt x="135" y="401" on="1"/>
        <pt x="207" y="760" on="1"/>
        <pt x="227" y="760" on="1"/>
        <pt x="155" y="401" on="1"/>
      </contour>
      <contour>
        <pt x="27" y="-138" on="1"/>
        <pt x="99" y="221" on="1"/>
        <pt x="119" y="221" on="1"/>
        <pt x="47" y="-138" on="1"/>
      </contour>
    </TTGlyph>
    <TTGlyph name="bullet" xMin="82" yMin="218" xMax="258" yMax="390">
      <contour>
        <pt x="155" y="218" on="1"/>
        <pt x="118" y="218" on="0"/>
        <pt x="82" y="249" on="0"/>
        <pt x="82" y="275" on="1"/>
        <pt x="82" y="284" on="0"/>
        <pt x="88" y="316" on="1"/>
        <pt x="95" y="348" on="0"/>
        <pt x="140" y="390" on="0"/>
        <pt x="185" y="390" on="1"/>
        <pt x="222" y="390" on="0"/>
        <pt x="258" y="359" on="0"/>
        <pt x="258" y="333" on="1"/>
        <pt x="258" y="323" on="0"/>
        <pt x="252" y="292" on="1"/>
        <pt x="245" y="260" on="0"/>
        <pt x="200" y="218" on="0"/>
      </contour>
    </TTGlyph>
    <TTGlyph name="c" xMin="61" yMin="-12" xMax="451" yMax="518">
      <contour>
        <pt x="223" y="-12" on="1"/>
        <pt x="182" y="-12" on="0"/>
        <pt x="122" y="18" on="0"/>
        <pt x="81" y="71" on="0"/>
        <pt x="61" y="143" on="0"/>
        <pt x="61" y="186" on="1"/>
        <pt x="61" y="256" on="0"/>
        <pt x="92" y="377" on="0"/>
        <pt x="153" y="467" on="0"/>
        <pt x="243" y="518" on="0"/>
        <pt x="301" y="518" on="1"/>
        <pt x="361" y="518" on="0"/>
        <pt x="440" y="454" on="0"/>
        <pt x="451" y="403" on="1"/>
        <pt x="432" y="398" on="1"/>
        <pt x="421" y="447" on="0"/>
        <pt x="350" y="499" on="0"/>
        <pt x="299" y="499" on="1"/>
        <pt x="222" y="499" on="0"/>
        <pt x="113" y="391" on="0"/>
        <pt x="96" y="297" on="1"/>
        <pt x="87" y="248" on="1"/>
        <pt x="84" y="230" on="0"/>
        <pt x="81" y="205" on="0"/>
        <pt x="81" y="186" on="1"/>
        <pt x="81" y="149" on="0"/>
        <pt x="97" y="84" on="0"/>
        <pt x="132" y="35" on="0"/>
        <pt x="185" y="7" on="0"/>
        <pt x="223" y="7" on="1"/>
        <pt x="282" y="7" on="0"/>
        <pt x="370" y="70" on="0"/>
        <pt x="405" y="123" on="1"/>
        <pt x="422" y="114" on="1"/>
        <pt x="385" y="57" on="0"/>
        <pt x="289" y="-12" on="0"/>
      </contour>
    </TTGlyph>
    <TTGlyph name="cacute" xMin="61" yMin="-12" xMax="451" yMax="751">
      <component glyphName="c" x="0" y="0" flags="0x204"/>
      <component glyphName="acute" x="6" y="0" flags="0x4"/>
    </TTGlyph>
    <TTGlyph name="caron" xMin="193" yMin="603" xMax="473" yMax="747">
      <contour>
        <pt x="299" y="603" on="1"/>
        <pt x="193" y="737" on="1"/>
        <pt x="208" y="747" on="1"/>
        <pt x="312" y="620" on="1"/>
        <pt x="460" y="747" on="1"/>
        <pt x="473" y="735" on="1"/>
        <pt x="323" y="603" on="1"/>
      </contour>
    </TTGlyph>
    <TTGlyph name="caron.case" xMin="200" yMin="783" xMax="480" yMax="927">
      <contour>
        <pt x="306" y="783" on="1"/>
        <pt x="200" y="917" on="1"/>
        <pt x="215" y="927" on="1"/>
        <pt x="319" y="800" on="1"/>
        <pt x="467" y="927" on="1"/>
        <pt x="480" y="915" on="1"/>
        <pt x="330" y="783" on="1"/>
      </contour>
    </TTGlyph>
    <TTGlyph name="ccaron" xMin="61" yMin="-12" xMax="479" yMax="747">
      <component glyphName="c" x="0" y="0" flags="0x204"/>
      <component glyphName="caron" x="6" y="0" flags="0x4"/>
    </TTGlyph>
    <TTGlyph name="ccedilla" xMin="61" yMin="-202" xMax="451" yMax="518">
      <contour>
        <pt x="301" y="518" on="1"/>
        <pt x="361" y="518" on="0"/>
        <pt x="440" y="454" on="0"/>
        <pt x="451" y="403" on="1"/>
        <pt x="432" y="398" on="1"/>
        <pt x="421" y="447" on="0"/>
        <pt x="350" y="499" on="0"/>
        <pt x="299" y="499" on="1"/>
        <pt x="222" y="499" on="0"/>
        <pt x="113" y="391" on="0"/>
        <pt x="96" y="297" on="1"/>
        <pt x="87" y="248" on="1"/>
        <pt x="84" y="230" on="0"/>
        <pt x="81" y="205" on="0"/>
        <pt x="81" y="186" on="1"/>
        <pt x="81" y="149" on="0"/>
        <pt x="97" y="84" on="0"/>
        <pt x="132" y="35" on="0"/>
        <pt x="185" y="7" on="0"/>
        <pt x="223" y="7" on="1"/>
        <pt x="282" y="7" on="0"/>
        <pt x="370" y="70" on="0"/>
        <pt x="405" y="123" on="1"/>
        <pt x="422" y="114" on="1"/>
        <pt x="387" y="59" on="0"/>
        <pt x="295" y="-9" on="0"/>
        <pt x="232" y="-12" on="1"/>
        <pt x="205" y="-73" on="1"/>
        <pt x="207" y="-75" on="1"/>
        <pt x="214" y="-73" on="0"/>
        <pt x="230" y="-72" on="0"/>
        <pt x="236" y="-72" on="1"/>
        <pt x="263" y="-72" on="0"/>
        <pt x="293" y="-100" on="0"/>
        <pt x="293" y="-125" on="1"/>
        <pt x="293" y="-157" on="0"/>
        <pt x="242" y="-202" on="0"/>
        <pt x="199" y="-202" on="1"/>
        <pt x="171" y="-202" on="0"/>
        <pt x="132" y="-183" on="0"/>
        <pt x="124" y="-170" on="1"/>
        <pt x="138" y="-157" on="1"/>
        <pt x="159" y="-184" on="0"/>
        <pt x="199" y="-184" on="1"/>
        <pt x="231" y="-184" on="0"/>
        <pt x="272" y="-152" on="0"/>
        <pt x="272" y="-126" on="1"/>
        <pt x="272" y="-109" on="0"/>
        <pt x="249" y="-88" on="0"/>
        <pt x="220" y="-86" on="1"/>
        <pt x="183" y="-84" on="1"/>
        <pt x="215" y="-12" on="1"/>
        <pt x="176" y="-11" on="0"/>
        <pt x="119" y="21" on="0"/>
        <pt x="80" y="73" on="0"/>
        <pt x="61" y="144" on="0"/>
        <pt x="61" y="186" on="1"/>
        <pt x="61" y="256" on="0"/>
        <pt x="92" y="377" on="0"/>
        <pt x="153" y="467" on="0"/>
        <pt x="243" y="518" on="0"/>
      </contour>
    </TTGlyph>
    <TTGlyph name="ccircumflex" xMin="61" yMin="-12" xMax="463" yMax="743">
      <component glyphName="c" x="0" y="0" flags="0x204"/>
      <component glyphName="circumflex" x="6" y="0" flags="0x4"/>
    </TTGlyph>
    <TTGlyph name="cdotaccent" xMin="61" yMin="-12" xMax="451" yMax="691">
      <component glyphName="c" x="0" y="0" flags="0x204"/>
      <component glyphName="dotaccent" x="6" y="0" flags="0x4"/>
    </TTGlyph>
    <TTGlyph name="cedilla" xMin="198" yMin="-202" xMax="367" yMax="3">
      <contour>
        <pt x="273" y="-202" on="1"/>
        <pt x="245" y="-202" on="0"/>
        <pt x="206" y="-183" on="0"/>
        <pt x="198" y="-170" on="1"/>
        <pt x="212" y="-157" on="1"/>
        <pt x="233" y="-184" on="0"/>
        <pt x="273" y="-184" on="1"/>
        <pt x="305" y="-184" on="0"/>
        <pt x="346" y="-152" on="0"/>
        <pt x="346" y="-126" on="1"/>
        <pt x="346" y="-109" on="0"/>
        <pt x="323" y="-88" on="0"/>
        <pt x="294" y="-86" on="1"/>
        <pt x="257" y="-84" on="1"/>
        <pt x="295" y="3" on="1"/>
        <pt x="313" y="3" on="1"/>
        <pt x="279" y="-73" on="1"/>
        <pt x="281" y="-75" on="1"/>
        <pt x="288" y="-73" on="0"/>
        <pt x="304" y="-72" on="0"/>
        <pt x="310" y="-72" on="1"/>
        <pt x="337" y="-72" on="0"/>
        <pt x="367" y="-100" on="0"/>
        <pt x="367" y="-125" on="1"/>
        <pt x="367" y="-157" on="0"/>
        <pt x="316" y="-202" on="0"/>
      </contour>
    </TTGlyph>
    <TTGlyph name="cent" xMin="61" yMin="-114" xMax="451" yMax="620">
      <contour>
        <pt x="199" y="-11" on="1"/>
        <pt x="164" y="-7" on="0"/>
        <pt x="112" y="27" on="0"/>
        <pt x="78" y="79" on="0"/>
        <pt x="61" y="147" on="0"/>
        <pt x="61" y="186" on="1"/>
        <pt x="61" y="256" on="0"/>
        <pt x="92" y="377" on="0"/>
        <pt x="153" y="467" on="0"/>
        <pt x="244" y="518" on="0"/>
        <pt x="304" y="518" on="1"/>
        <pt x="324" y="620" on="1"/>
        <pt x="344" y="620" on="1"/>
        <pt x="323" y="517" on="1"/>
        <pt x="374" y="510" on="0"/>
        <pt x="441" y="449" on="0"/>
        <pt x="451" y="403" on="1"/>
        <pt x="432" y="398" on="1"/>
        <pt x="422" y="442" on="0"/>
        <pt x="362" y="493" on="0"/>
        <pt x="320" y="498" on="1"/>
        <pt x="222" y="7" on="1"/>
        <pt x="281" y="7" on="0"/>
        <pt x="367" y="66" on="0"/>
        <pt x="405" y="123" on="1"/>
        <pt x="422" y="114" on="1"/>
        <pt x="377" y="47" on="0"/>
        <pt x="281" y="-12" on="0"/>
        <pt x="218" y="-12" on="1"/>
        <pt x="198" y="-114" on="1"/>
        <pt x="178" y="-114" on="1"/>
      </contour>
      <contour>
        <pt x="81" y="186" on="1"/>
        <pt x="81" y="151" on="0"/>
        <pt x="95" y="90" on="0"/>
        <pt x="124" y="42" on="0"/>
        <pt x="170" y="12" on="0"/>
        <pt x="202" y="8" on="1"/>
        <pt x="300" y="499" on="1"/>
        <pt x="261" y="499" on="0"/>
        <pt x="194" y="471" on="0"/>
        <pt x="141" y="418" on="0"/>
        <pt x="105" y="343" on="0"/>
        <pt x="96" y="297" on="1"/>
        <pt x="87" y="248" on="1"/>
        <pt x="84" y="230" on="0"/>
        <pt x="81" y="205" on="0"/>
      </contour>
    </TTGlyph>
    <TTGlyph name="chi" xMin="-62" yMin="-200" xMax="461" yMax="506">
      <contour>
        <pt x="100" y="506" on="1"/>
        <pt x="119" y="506" on="0"/>
        <pt x="123" y="491" on="1"/>
        <pt x="204" y="183" on="1"/>
        <pt x="206" y="183" on="1"/>
        <pt x="436" y="506" on="1"/>
        <pt x="461" y="506" on="1"/>
        <pt x="215" y="163" on="1"/>
        <pt x="302" y="-181" on="1"/>
        <pt x="347" y="-181" on="1"/>
        <pt x="343" y="-200" on="1"/>
        <pt x="305" y="-200" on="1"/>
        <pt x="285" y="-200" on="0"/>
        <pt x="282" y="-184" on="1"/>
        <pt x="201" y="143" on="1"/>
        <pt x="199" y="143" on="1"/>
        <pt x="-37" y="-200" on="1"/>
        <pt x="-62" y="-200" on="1"/>
        <pt x="190" y="163" on="1"/>
        <pt x="103" y="487" on="1"/>
        <pt x="58" y="487" on="1"/>
        <pt x="62" y="506" on="1"/>
      </contour>
    </TTGlyph>
    <TTGlyph name="circumflex" xMin="177" yMin="599" xMax="457" yMax="743">
      <contour>
        <pt x="351" y="743" on="1"/>
        <pt x="457" y="609" on="1"/>
        <pt x="442" y="599" on="1"/>
        <pt x="338" y="726" on="1"/>
        <pt x="190" y="599" on="1"/>
        <pt x="177" y="611" on="1"/>
        <pt x="327" y="743" on="1"/>
      </contour>
    </TTGlyph>
    <TTGlyph name="circumflex.case" xMin="182" yMin="779" xMax="462" yMax="923">
      <contour>
        <pt x="356" y="923" on="1"/>
        <pt x="462" y="789" on="1"/>
        <pt x="447" y="779" on="1"/>
        <pt x="343" y="906" on="1"/>
        <pt x="195" y="779" on="1"/>
        <pt x="182" y="791" on="1"/>
        <pt x="332" y="923" on="1"/>
      </contour>
    </TTGlyph>
    <TTGlyph name="circumflexacute" xMin="-125" yMin="591" xMax="290" yMax="861">
      <contour>
        <pt x="143" y="697" on="1"/>
        <pt x="130" y="708" on="1"/>
        <pt x="273" y="861" on="1"/>
        <pt x="290" y="848" on="1"/>
      </contour>
      <contour>
        <pt x="49" y="735" on="1"/>
        <pt x="155" y="601" on="1"/>
        <pt x="140" y="591" on="1"/>
        <pt x="36" y="718" on="1"/>
        <pt x="-112" y="591" on="1"/>
        <pt x="-125" y="603" on="1"/>
        <pt x="25" y="735" on="1"/>
      </contour>
    </TTGlyph>
    <TTGlyph name="circumflexacute.case" xMin="-121" yMin="771" xMax="294" yMax="1041">
      <contour>
        <pt x="147" y="877" on="1"/>
        <pt x="134" y="888" on="1"/>
        <pt x="277" y="1041" on="1"/>
        <pt x="294" y="1028" on="1"/>
      </contour>
      <contour>
        <pt x="53" y="915" on="1"/>
        <pt x="159" y="781" on="1"/>
        <pt x="144" y="771" on="1"/>
        <pt x="40" y="898" on="1"/>
        <pt x="-108" y="771" on="1"/>
        <pt x="-121" y="783" on="1"/>
        <pt x="29" y="915" on="1"/>
      </contour>
    </TTGlyph>
    <TTGlyph name="circumflexbreve" xMin="-136" yMin="578" xMax="189" yMax="851">
      <contour>
        <pt x="42" y="704" on="1"/>
        <pt x="144" y="588" on="1"/>
        <pt x="130" y="578" on="1"/>
        <pt x="29" y="687" on="1"/>
        <pt x="-124" y="578" on="1"/>
        <pt x="-136" y="590" on="1"/>
        <pt x="18" y="704" on="1"/>
      </contour>
      <contour>
        <pt x="41" y="737" on="1"/>
        <pt x="-9" y="737" on="0"/>
        <pt x="-57" y="793" on="0"/>
        <pt x="-74" y="844" on="1"/>
        <pt x="-58" y="851" on="1"/>
        <pt x="-43" y="814" on="1"/>
        <pt x="-30" y="782" on="0"/>
        <pt x="10" y="756" on="0"/>
        <pt x="41" y="756" on="1"/>
        <pt x="76" y="756" on="0"/>
        <pt x="123" y="780" on="0"/>
        <pt x="148" y="815" on="1"/>
        <pt x="173" y="851" on="1"/>
        <pt x="189" y="844" on="1"/>
        <pt x="173" y="817" on="0"/>
        <pt x="143" y="777" on="0"/>
        <pt x="108" y="750" on="0"/>
        <pt x="67" y="737" on="0"/>
      </contour>
    </TTGlyph>
    <TTGlyph name="circumflexbreve.case" xMin="-132" yMin="759" xMax="194" yMax="1031">
      <contour>
        <pt x="46" y="885" on="1"/>
        <pt x="148" y="769" on="1"/>
        <pt x="134" y="759" on="1"/>
        <pt x="33" y="868" on="1"/>
        <pt x="-120" y="759" on="1"/>
        <pt x="-132" y="771" on="1"/>
        <pt x="22" y="885" on="1"/>
      </contour>
      <contour>
        <pt x="46" y="917" on="1"/>
        <pt x="-4" y="917" on="0"/>
        <pt x="-52" y="973" on="0"/>
        <pt x="-69" y="1024" on="1"/>
        <pt x="-53" y="1031" on="1"/>
        <pt x="-38" y="994" on="1"/>
        <pt x="-25" y="962" on="0"/>
        <pt x="15" y="936" on="0"/>
        <pt x="46" y="936" on="1"/>
        <pt x="81" y="936" on="0"/>
        <pt x="128" y="960" on="0"/>
        <pt x="153" y="995" on="1"/>
        <pt x="178" y="1031" on="1"/>
        <pt x="194" y="1024" on="1"/>
        <pt x="178" y="997" on="0"/>
        <pt x="148" y="957" on="0"/>
        <pt x="113" y="930" on="0"/>
        <pt x="72" y="917" on="0"/>
      </contour>
    </TTGlyph>
    <TTGlyph name="circumflexgrave" xMin="-193" yMin="591" xMax="155" yMax="861">
      <contour>
        <pt x="-193" y="850" on="1"/>
        <pt x="-174" y="861" on="1"/>
        <pt x="-93" y="706" on="1"/>
        <pt x="-109" y="697" on="1"/>
      </contour>
      <contour>
        <pt x="49" y="735" on="1"/>
        <pt x="155" y="601" on="1"/>
        <pt x="140" y="591" on="1"/>
        <pt x="36" y="718" on="1"/>
        <pt x="-112" y="591" on="1"/>
        <pt x="-125" y="603" on="1"/>
        <pt x="25" y="735" on="1"/>
      </contour>
    </TTGlyph>
    <TTGlyph name="circumflexgrave.case" xMin="-189" yMin="771" xMax="159" yMax="1041">
      <contour>
        <pt x="-189" y="1030" on="1"/>
        <pt x="-170" y="1041" on="1"/>
        <pt x="-89" y="886" on="1"/>
        <pt x="-105" y="877" on="1"/>
      </contour>
      <contour>
        <pt x="53" y="915" on="1"/>
        <pt x="159" y="781" on="1"/>
        <pt x="144" y="771" on="1"/>
        <pt x="40" y="898" on="1"/>
        <pt x="-108" y="771" on="1"/>
        <pt x="-121" y="783" on="1"/>
        <pt x="29" y="915" on="1"/>
      </contour>
    </TTGlyph>
    <TTGlyph name="circumflexhook" xMin="-125" yMin="591" xMax="248" yMax="847">
      <contour>
        <pt x="91" y="847" on="1"/>
        <pt x="224" y="847" on="1"/>
        <pt x="238" y="847" on="0"/>
        <pt x="248" y="839" on="0"/>
        <pt x="248" y="832" on="1"/>
        <pt x="248" y="829" on="0"/>
        <pt x="246" y="822" on="0"/>
        <pt x="238" y="810" on="0"/>
        <pt x="223" y="792" on="0"/>
        <pt x="210" y="777" on="1"/>
        <pt x="141" y="695" on="1"/>
        <pt x="126" y="704" on="1"/>
        <pt x="228" y="829" on="1"/>
        <pt x="88" y="829" on="1"/>
      </contour>
      <contour>
        <pt x="49" y="735" on="1"/>
        <pt x="155" y="601" on="1"/>
        <pt x="140" y="591" on="1"/>
        <pt x="36" y="718" on="1"/>
        <pt x="-112" y="591" on="1"/>
        <pt x="-125" y="603" on="1"/>
        <pt x="25" y="735" on="1"/>
      </contour>
    </TTGlyph>
    <TTGlyph name="circumflexhook.case" xMin="-121" yMin="771" xMax="252" yMax="1027">
      <contour>
        <pt x="95" y="1027" on="1"/>
        <pt x="228" y="1027" on="1"/>
        <pt x="242" y="1027" on="0"/>
        <pt x="252" y="1019" on="0"/>
        <pt x="252" y="1012" on="1"/>
        <pt x="252" y="1009" on="0"/>
        <pt x="250" y="1002" on="0"/>
        <pt x="242" y="990" on="0"/>
        <pt x="227" y="972" on="0"/>
        <pt x="214" y="957" on="1"/>
        <pt x="145" y="875" on="1"/>
        <pt x="130" y="884" on="1"/>
        <pt x="232" y="1009" on="1"/>
        <pt x="92" y="1009" on="1"/>
      </contour>
      <contour>
        <pt x="53" y="915" on="1"/>
        <pt x="159" y="781" on="1"/>
        <pt x="144" y="771" on="1"/>
        <pt x="40" y="898" on="1"/>
        <pt x="-108" y="771" on="1"/>
        <pt x="-121" y="783" on="1"/>
        <pt x="29" y="915" on="1"/>
      </contour>
    </TTGlyph>
    <TTGlyph name="circumflextilde" xMin="-125" yMin="591" xMax="197" yMax="847">
      <contour>
        <pt x="-19" y="847" on="1"/>
        <pt x="1" y="847" on="0"/>
        <pt x="30" y="833" on="0"/>
        <pt x="53" y="817" on="1"/>
        <pt x="72" y="804" on="0"/>
        <pt x="100" y="791" on="0"/>
        <pt x="117" y="791" on="1"/>
        <pt x="134" y="791" on="0"/>
        <pt x="167" y="807" on="0"/>
        <pt x="186" y="824" on="1"/>
        <pt x="197" y="812" on="1"/>
        <pt x="174" y="790" on="0"/>
        <pt x="133" y="773" on="0"/>
        <pt x="112" y="773" on="1"/>
        <pt x="92" y="773" on="0"/>
        <pt x="63" y="788" on="0"/>
        <pt x="40" y="804" on="1"/>
        <pt x="21" y="817" on="0"/>
        <pt x="-7" y="829" on="0"/>
        <pt x="-24" y="829" on="1"/>
        <pt x="-56" y="829" on="0"/>
        <pt x="-93" y="796" on="1"/>
        <pt x="-104" y="808" on="1"/>
        <pt x="-81" y="830" on="0"/>
        <pt x="-40" y="847" on="0"/>
      </contour>
      <contour>
        <pt x="49" y="735" on="1"/>
        <pt x="155" y="601" on="1"/>
        <pt x="140" y="591" on="1"/>
        <pt x="36" y="718" on="1"/>
        <pt x="-112" y="591" on="1"/>
        <pt x="-125" y="603" on="1"/>
        <pt x="25" y="735" on="1"/>
      </contour>
    </TTGlyph>
    <TTGlyph name="circumflextilde.case" xMin="-121" yMin="770" xMax="201" yMax="1026">
      <contour>
        <pt x="-15" y="1026" on="1"/>
        <pt x="5" y="1026" on="0"/>
        <pt x="34" y="1012" on="0"/>
        <pt x="57" y="996" on="1"/>
        <pt x="76" y="983" on="0"/>
        <pt x="104" y="970" on="0"/>
        <pt x="121" y="970" on="1"/>
        <pt x="138" y="970" on="0"/>
        <pt x="171" y="986" on="0"/>
        <pt x="190" y="1003" on="1"/>
        <pt x="201" y="991" on="1"/>
        <pt x="178" y="969" on="0"/>
        <pt x="137" y="952" on="0"/>
        <pt x="116" y="952" on="1"/>
        <pt x="96" y="952" on="0"/>
        <pt x="67" y="967" on="0"/>
        <pt x="44" y="983" on="1"/>
        <pt x="25" y="996" on="0"/>
        <pt x="-3" y="1008" on="0"/>
        <pt x="-20" y="1008" on="1"/>
        <pt x="-52" y="1008" on="0"/>
        <pt x="-89" y="975" on="1"/>
        <pt x="-100" y="987" on="1"/>
        <pt x="-77" y="1009" on="0"/>
        <pt x="-36" y="1026" on="0"/>
      </contour>
      <contour>
        <pt x="53" y="914" on="1"/>
        <pt x="159" y="780" on="1"/>
        <pt x="144" y="770" on="1"/>
        <pt x="40" y="897" on="1"/>
        <pt x="-108" y="770" on="1"/>
        <pt x="-121" y="782" on="1"/>
        <pt x="29" y="914" on="1"/>
      </contour>
    </TTGlyph>
    <TTGlyph name="colon" xMin="55" yMin="-5" xMax="205" yMax="511">
      <component glyphName="period" x="10" y="0" flags="0x4"/>
      <component glyphName="period" x="103" y="458" flags="0x4"/>
    </TTGlyph>
    <TTGlyph name="comma" xMin="-29" yMin="-147" xMax="102" yMax="53">
      <contour>
        <pt x="77" y="53" on="1"/>
        <pt x="91" y="53" on="0"/>
        <pt x="102" y="41" on="0"/>
        <pt x="102" y="34" on="1"/>
        <pt x="102" y="30" on="0"/>
        <pt x="100" y="18" on="0"/>
        <pt x="99" y="15" on="1"/>
        <pt x="94" y="-5" on="0"/>
        <pt x="74" y="-50" on="0"/>
        <pt x="45" y="-93" on="0"/>
        <pt x="11" y="-132" on="0"/>
        <pt x="-8" y="-147" on="1"/>
        <pt x="-29" y="-147" on="1"/>
        <pt x="16" y="-109" on="0"/>
        <pt x="64" y="-33" on="0"/>
        <pt x="72" y="-5" on="1"/>
        <pt x="55" y="-5" on="0"/>
        <pt x="45" y="7" on="0"/>
        <pt x="45" y="14" on="1"/>
        <pt x="45" y="18" on="0"/>
        <pt x="47" y="29" on="0"/>
        <pt x="48" y="32" on="1"/>
        <pt x="50" y="40" on="0"/>
        <pt x="62" y="53" on="0"/>
      </contour>
    </TTGlyph>
    <TTGlyph name="copyright" xMin="32" yMin="-12" xMax="694" yMax="710">
      <contour>
        <pt x="317" y="-12" on="1"/>
        <pt x="252" y="-12" on="0"/>
        <pt x="147" y="29" on="0"/>
        <pt x="72" y="106" on="0"/>
        <pt x="32" y="215" on="0"/>
        <pt x="32" y="283" on="1"/>
        <pt x="32" y="379" on="0"/>
        <pt x="91" y="536" on="0"/>
        <pt x="193" y="648" on="0"/>
        <pt x="330" y="710" on="0"/>
        <pt x="409" y="710" on="1"/>
        <pt x="474" y="710" on="0"/>
        <pt x="579" y="669" on="0"/>
        <pt x="654" y="592" on="0"/>
        <pt x="694" y="483" on="0"/>
        <pt x="694" y="415" on="1"/>
        <pt x="694" y="319" on="0"/>
        <pt x="635" y="162" on="0"/>
        <pt x="533" y="50" on="0"/>
        <pt x="396" y="-12" on="0"/>
      </contour>
      <contour>
        <pt x="317" y="6" on="1"/>
        <pt x="385" y="6" on="0"/>
        <pt x="499" y="52" on="0"/>
        <pt x="587" y="131" on="0"/>
        <pt x="646" y="236" on="0"/>
        <pt x="658" y="295" on="1"/>
        <pt x="663" y="320" on="0"/>
        <pt x="670" y="357" on="0"/>
        <pt x="673" y="384" on="0"/>
        <pt x="674" y="405" on="0"/>
        <pt x="674" y="415" on="1"/>
        <pt x="674" y="476" on="0"/>
        <pt x="639" y="577" on="0"/>
        <pt x="571" y="651" on="0"/>
        <pt x="473" y="692" on="0"/>
        <pt x="409" y="692" on="1"/>
        <pt x="341" y="692" on="0"/>
        <pt x="227" y="646" on="0"/>
        <pt x="140" y="567" on="0"/>
        <pt x="81" y="462" on="0"/>
        <pt x="68" y="403" on="1"/>
        <pt x="63" y="378" on="0"/>
        <pt x="56" y="342" on="0"/>
        <pt x="53" y="315" on="0"/>
        <pt x="52" y="293" on="0"/>
        <pt x="52" y="283" on="1"/>
        <pt x="52" y="222" on="0"/>
        <pt x="87" y="120" on="0"/>
        <pt x="154" y="47" on="0"/>
        <pt x="253" y="6" on="0"/>
      </contour>
      <contour>
        <pt x="338" y="149" on="1"/>
        <pt x="281" y="149" on="0"/>
        <pt x="206" y="226" on="0"/>
        <pt x="206" y="301" on="1"/>
        <pt x="206" y="355" on="0"/>
        <pt x="234" y="444" on="0"/>
        <pt x="285" y="508" on="0"/>
        <pt x="355" y="543" on="0"/>
        <pt x="397" y="543" on="1"/>
        <pt x="444" y="543" on="0"/>
        <pt x="501" y="496" on="0"/>
        <pt x="513" y="464" on="1"/>
        <pt x="496" y="458" on="1"/>
        <pt x="484" y="487" on="0"/>
        <pt x="438" y="526" on="0"/>
        <pt x="396" y="526" on="1"/>
        <pt x="339" y="526" on="0"/>
        <pt x="248" y="447" on="0"/>
        <pt x="234" y="369" on="1"/>
        <pt x="230" y="347" on="1"/>
        <pt x="228" y="333" on="0"/>
        <pt x="226" y="309" on="0"/>
        <pt x="226" y="301" on="1"/>
        <pt x="226" y="238" on="0"/>
        <pt x="285" y="167" on="0"/>
        <pt x="339" y="167" on="1"/>
        <pt x="377" y="167" on="0"/>
        <pt x="437" y="205" on="0"/>
        <pt x="456" y="238" on="1"/>
        <pt x="471" y="230" on="1"/>
        <pt x="452" y="197" on="0"/>
        <pt x="383" y="149" on="0"/>
      </contour>
    </TTGlyph>
    <TTGlyph name="currency" xMin="3" yMin="74" xMax="618" yMax="624">
      <contour>
        <pt x="267" y="129" on="1"/>
        <pt x="178" y="129" on="0"/>
        <pt x="139" y="188" on="1"/>
        <pt x="17" y="86" on="1"/>
        <pt x="3" y="102" on="1"/>
        <pt x="129" y="207" on="1"/>
        <pt x="115" y="240" on="0"/>
        <pt x="115" y="281" on="1"/>
        <pt x="115" y="298" on="0"/>
        <pt x="119" y="332" on="0"/>
        <pt x="123" y="352" on="1"/>
        <pt x="141" y="443" on="0"/>
        <pt x="186" y="496" on="1"/>
        <pt x="94" y="611" on="1"/>
        <pt x="110" y="624" on="1"/>
        <pt x="200" y="511" on="1"/>
        <pt x="261" y="569" on="0"/>
        <pt x="354" y="569" on="1"/>
        <pt x="443" y="569" on="0"/>
        <pt x="482" y="510" on="1"/>
        <pt x="604" y="612" on="1"/>
        <pt x="618" y="596" on="1"/>
        <pt x="492" y="491" on="1"/>
        <pt x="506" y="458" on="0"/>
        <pt x="506" y="417" on="1"/>
        <pt x="506" y="400" on="0"/>
        <pt x="502" y="366" on="0"/>
        <pt x="498" y="346" on="1"/>
        <pt x="480" y="254" on="0"/>
        <pt x="435" y="202" on="1"/>
        <pt x="527" y="87" on="1"/>
        <pt x="511" y="74" on="1"/>
        <pt x="421" y="187" on="1"/>
        <pt x="360" y="129" on="0"/>
      </contour>
      <contour>
        <pt x="270" y="148" on="1"/>
        <pt x="351" y="148" on="0"/>
        <pt x="455" y="243" on="0"/>
        <pt x="472" y="326" on="1"/>
        <pt x="481" y="372" on="1"/>
        <pt x="486" y="400" on="0"/>
        <pt x="486" y="421" on="1"/>
        <pt x="486" y="482" on="0"/>
        <pt x="420" y="550" on="0"/>
        <pt x="351" y="550" on="1"/>
        <pt x="270" y="550" on="0"/>
        <pt x="166" y="455" on="0"/>
        <pt x="149" y="372" on="1"/>
        <pt x="140" y="326" on="1"/>
        <pt x="135" y="298" on="0"/>
        <pt x="135" y="277" on="1"/>
        <pt x="135" y="216" on="0"/>
        <pt x="201" y="148" on="0"/>
      </contour>
    </TTGlyph>
    <TTGlyph name="d" xMin="60" yMin="-12" xMax="554" yMax="740">
      <contour>
        <pt x="413" y="0" on="1"/>
        <pt x="390" y="0" on="0"/>
        <pt x="390" y="19" on="1"/>
        <pt x="390" y="24" on="0"/>
        <pt x="391" y="30" on="0"/>
        <pt x="392" y="35" on="1"/>
        <pt x="407" y="111" on="1"/>
        <pt x="404" y="111" on="1"/>
        <pt x="372" y="55" on="0"/>
        <pt x="287" y="-12" on="0"/>
        <pt x="223" y="-12" on="1"/>
        <pt x="184" y="-12" on="0"/>
        <pt x="123" y="17" on="0"/>
        <pt x="81" y="67" on="0"/>
        <pt x="60" y="136" on="0"/>
        <pt x="60" y="176" on="1"/>
        <pt x="60" y="245" on="0"/>
        <pt x="93" y="369" on="0"/>
        <pt x="156" y="463" on="0"/>
        <pt x="249" y="518" on="0"/>
        <pt x="309" y="518" on="1"/>
        <pt x="373" y="518" on="0"/>
        <pt x="451" y="460" on="0"/>
        <pt x="465" y="413" on="1"/>
        <pt x="468" y="413" on="1"/>
        <pt x="533" y="740" on="1"/>
        <pt x="554" y="740" on="1"/>
        <pt x="410" y="19" on="1"/>
        <pt x="495" y="19" on="1"/>
        <pt x="491" y="0" on="1"/>
      </contour>
      <contour>
        <pt x="223" y="7" on="1"/>
        <pt x="255" y="7" on="0"/>
        <pt x="307" y="25" on="0"/>
        <pt x="333" y="47" on="1"/>
        <pt x="362" y="71" on="0"/>
        <pt x="415" y="151" on="0"/>
        <pt x="426" y="204" on="1"/>
        <pt x="454" y="346" on="1"/>
        <pt x="459" y="371" on="0"/>
        <pt x="448" y="425" on="0"/>
        <pt x="414" y="470" on="0"/>
        <pt x="354" y="499" on="0"/>
        <pt x="309" y="499" on="1"/>
        <pt x="223" y="499" on="0"/>
        <pt x="113" y="381" on="0"/>
        <pt x="94" y="282" on="1"/>
        <pt x="87" y="247" on="1"/>
        <pt x="84" y="230" on="0"/>
        <pt x="81" y="197" on="0"/>
        <pt x="81" y="176" on="1"/>
        <pt x="81" y="141" on="0"/>
        <pt x="98" y="80" on="0"/>
        <pt x="133" y="34" on="0"/>
        <pt x="186" y="7" on="0"/>
      </contour>
    </TTGlyph>
    <TTGlyph name="dagger" xMin="104" yMin="-200" xMax="553" yMax="740">
      <contour>
        <pt x="179" y="-200" on="1"/>
        <pt x="316" y="487" on="1"/>
        <pt x="104" y="487" on="1"/>
        <pt x="108" y="506" on="1"/>
        <pt x="320" y="506" on="1"/>
        <pt x="367" y="740" on="1"/>
        <pt x="388" y="740" on="1"/>
        <pt x="341" y="506" on="1"/>
        <pt x="553" y="506" on="1"/>
        <pt x="549" y="487" on="1"/>
        <pt x="337" y="487" on="1"/>
        <pt x="200" y="-200" on="1"/>
      </contour>
    </TTGlyph>
    <TTGlyph name="daggerdbl" xMin="14" yMin="-200" xMax="553" yMax="740">
      <contour>
        <pt x="179" y="-200" on="1"/>
        <pt x="226" y="34" on="1"/>
        <pt x="14" y="34" on="1"/>
        <pt x="18" y="53" on="1"/>
        <pt x="230" y="53" on="1"/>
        <pt x="316" y="487" on="1"/>
        <pt x="104" y="487" on="1"/>
        <pt x="108" y="506" on="1"/>
        <pt x="320" y="506" on="1"/>
        <pt x="367" y="740" on="1"/>
        <pt x="388" y="740" on="1"/>
        <pt x="341" y="506" on="1"/>
        <pt x="553" y="506" on="1"/>
        <pt x="549" y="487" on="1"/>
        <pt x="337" y="487" on="1"/>
        <pt x="251" y="53" on="1"/>
        <pt x="463" y="53" on="1"/>
        <pt x="459" y="34" on="1"/>
        <pt x="247" y="34" on="1"/>
        <pt x="200" y="-200" on="1"/>
      </contour>
    </TTGlyph>
    <TTGlyph name="dcaron" xMin="60" yMin="-12" xMax="659" yMax="740">
      <component glyphName="d" x="0" y="0" flags="0x204"/>
      <component glyphName="uni02BC" x="319" y="0" flags="0x4"/>
    </TTGlyph>
    <TTGlyph name="dcroat" xMin="60" yMin="-12" xMax="602" yMax="740">
      <contour>
        <pt x="413" y="0" on="1"/>
        <pt x="390" y="0" on="0"/>
        <pt x="390" y="19" on="1"/>
        <pt x="390" y="24" on="0"/>
        <pt x="391" y="30" on="0"/>
        <pt x="392" y="35" on="1"/>
        <pt x="407" y="111" on="1"/>
        <pt x="404" y="111" on="1"/>
        <pt x="372" y="55" on="0"/>
        <pt x="287" y="-12" on="0"/>
        <pt x="223" y="-12" on="1"/>
        <pt x="184" y="-12" on="0"/>
        <pt x="123" y="17" on="0"/>
        <pt x="81" y="67" on="0"/>
        <pt x="60" y="136" on="0"/>
        <pt x="60" y="176" on="1"/>
        <pt x="60" y="245" on="0"/>
        <pt x="93" y="369" on="0"/>
        <pt x="156" y="463" on="0"/>
        <pt x="249" y="518" on="0"/>
        <pt x="309" y="518" on="1"/>
        <pt x="373" y="518" on="0"/>
        <pt x="451" y="460" on="0"/>
        <pt x="465" y="413" on="1"/>
        <pt x="468" y="413" on="1"/>
        <pt x="511" y="629" on="1"/>
        <pt x="348" y="629" on="1"/>
        <pt x="352" y="647" on="1"/>
        <pt x="515" y="647" on="1"/>
        <pt x="533" y="740" on="1"/>
        <pt x="554" y="740" on="1"/>
        <pt x="535" y="647" on="1"/>
        <pt x="602" y="647" on="1"/>
        <pt x="598" y="629" on="1"/>
        <pt x="532" y="629" on="1"/>
        <pt x="410" y="19" on="1"/>
        <pt x="495" y="19" on="1"/>
        <pt x="491" y="0" on="1"/>
      </contour>
      <contour>
        <pt x="223" y="7" on="1"/>
        <pt x="255" y="7" on="0"/>
        <pt x="307" y="25" on="0"/>
        <pt x="333" y="47" on="1"/>
        <pt x="362" y="71" on="0"/>
        <pt x="415" y="151" on="0"/>
        <pt x="426" y="204" on="1"/>
        <pt x="454" y="346" on="1"/>
        <pt x="459" y="371" on="0"/>
        <pt x="448" y="425" on="0"/>
        <pt x="414" y="470" on="0"/>
        <pt x="354" y="499" on="0"/>
        <pt x="309" y="499" on="1"/>
        <pt x="223" y="499" on="0"/>
        <pt x="113" y="381" on="0"/>
        <pt x="94" y="282" on="1"/>
        <pt x="87" y="247" on="1"/>
        <pt x="84" y="230" on="0"/>
        <pt x="81" y="197" on="0"/>
        <pt x="81" y="176" on="1"/>
        <pt x="81" y="141" on="0"/>
        <pt x="98" y="80" on="0"/>
        <pt x="133" y="34" on="0"/>
        <pt x="186" y="7" on="0"/>
      </contour>
    </TTGlyph>
    <TTGlyph name="degree" xMin="130" yMin="374" xMax="450" yMax="710">
      <contour>
        <pt x="271" y="374" on="1"/>
        <pt x="239" y="374" on="0"/>
        <pt x="187" y="396" on="0"/>
        <pt x="150" y="436" on="0"/>
        <pt x="130" y="491" on="0"/>
        <pt x="130" y="524" on="1"/>
        <pt x="130" y="564" on="0"/>
        <pt x="158" y="633" on="0"/>
        <pt x="206" y="682" on="0"/>
        <pt x="271" y="710" on="0"/>
        <pt x="309" y="710" on="1"/>
        <pt x="341" y="710" on="0"/>
        <pt x="393" y="688" on="0"/>
        <pt x="430" y="648" on="0"/>
        <pt x="450" y="593" on="0"/>
        <pt x="450" y="560" on="1"/>
        <pt x="450" y="519" on="0"/>
        <pt x="422" y="451" on="0"/>
        <pt x="374" y="402" on="0"/>
        <pt x="308" y="374" on="0"/>
      </contour>
      <contour>
        <pt x="273" y="393" on="1"/>
        <pt x="306" y="393" on="0"/>
        <pt x="363" y="418" on="0"/>
        <pt x="405" y="462" on="0"/>
        <pt x="429" y="523" on="0"/>
        <pt x="429" y="559" on="1"/>
        <pt x="429" y="616" on="0"/>
        <pt x="367" y="691" on="0"/>
        <pt x="307" y="691" on="1"/>
        <pt x="274" y="691" on="0"/>
        <pt x="217" y="666" on="0"/>
        <pt x="175" y="622" on="0"/>
        <pt x="151" y="561" on="0"/>
        <pt x="151" y="525" on="1"/>
        <pt x="151" y="468" on="0"/>
        <pt x="213" y="393" on="0"/>
      </contour>
    </TTGlyph>
    <TTGlyph name="delta" xMin="59" yMin="-12" xMax="537" yMax="740">
      <contour>
        <pt x="281" y="721" on="1"/>
        <pt x="227" y="724" on="1"/>
        <pt x="227" y="723" on="1"/>
        <pt x="341" y="590" on="1"/>
        <pt x="384" y="540" on="0"/>
        <pt x="436" y="464" on="0"/>
        <pt x="465" y="401" on="0"/>
        <pt x="475" y="344" on="0"/>
        <pt x="475" y="313" on="1"/>
        <pt x="475" y="261" on="0"/>
        <pt x="447" y="147" on="0"/>
        <pt x="387" y="51" on="0"/>
        <pt x="292" y="-12" on="0"/>
        <pt x="225" y="-12" on="1"/>
        <pt x="185" y="-12" on="0"/>
        <pt x="123" y="16" on="0"/>
        <pt x="81" y="66" on="0"/>
        <pt x="59" y="131" on="0"/>
        <pt x="59" y="169" on="1"/>
        <pt x="59" y="245" on="0"/>
        <pt x="103" y="369" on="0"/>
        <pt x="187" y="458" on="0"/>
        <pt x="306" y="506" on="0"/>
        <pt x="381" y="506" on="1"/>
        <pt x="381" y="510" on="1"/>
        <pt x="370" y="526" on="0"/>
        <pt x="342" y="559" on="0"/>
        <pt x="326" y="579" on="1"/>
        <pt x="208" y="719" on="1"/>
        <pt x="212" y="740" on="1"/>
        <pt x="537" y="740" on="1"/>
        <pt x="533" y="721" on="1"/>
      </contour>
      <contour>
        <pt x="454" y="313" on="1"/>
        <pt x="454" y="335" on="0"/>
        <pt x="450" y="376" on="0"/>
        <pt x="436" y="418" on="0"/>
        <pt x="412" y="465" on="0"/>
        <pt x="393" y="493" on="1"/>
        <pt x="318" y="493" on="0"/>
        <pt x="211" y="450" on="0"/>
        <pt x="138" y="381" on="0"/>
        <pt x="97" y="296" on="0"/>
        <pt x="89" y="253" on="1"/>
        <pt x="84" y="225" on="0"/>
        <pt x="80" y="189" on="0"/>
        <pt x="80" y="169" on="1"/>
        <pt x="80" y="136" on="0"/>
        <pt x="97" y="77" on="0"/>
        <pt x="133" y="33" on="0"/>
        <pt x="189" y="7" on="0"/>
        <pt x="227" y="7" on="1"/>
        <pt x="307" y="7" on="0"/>
        <pt x="420" y="116" on="0"/>
        <pt x="443" y="225" on="1"/>
        <pt x="450" y="257" on="0"/>
        <pt x="454" y="292" on="0"/>
      </contour>
    </TTGlyph>
    <TTGlyph name="dieresis" xMin="211" yMin="642" xMax="439" yMax="691">
      <contour>
        <pt x="231" y="642" on="1"/>
        <pt x="219" y="642" on="0"/>
        <pt x="211" y="653" on="0"/>
        <pt x="211" y="659" on="1"/>
        <pt x="211" y="665" on="0"/>
        <pt x="214" y="674" on="1"/>
        <pt x="216" y="681" on="0"/>
        <pt x="225" y="691" on="0"/>
        <pt x="237" y="691" on="1"/>
        <pt x="249" y="691" on="0"/>
        <pt x="257" y="680" on="0"/>
        <pt x="257" y="674" on="1"/>
        <pt x="257" y="668" on="0"/>
        <pt x="254" y="659" on="1"/>
        <pt x="252" y="652" on="0"/>
        <pt x="243" y="642" on="0"/>
      </contour>
      <contour>
        <pt x="413" y="642" on="1"/>
        <pt x="401" y="642" on="0"/>
        <pt x="393" y="653" on="0"/>
        <pt x="393" y="659" on="1"/>
        <pt x="393" y="665" on="0"/>
        <pt x="396" y="674" on="1"/>
        <pt x="398" y="681" on="0"/>
        <pt x="407" y="691" on="0"/>
        <pt x="419" y="691" on="1"/>
        <pt x="431" y="691" on="0"/>
        <pt x="439" y="680" on="0"/>
        <pt x="439" y="674" on="1"/>
        <pt x="439" y="668" on="0"/>
        <pt x="436" y="659" on="1"/>
        <pt x="434" y="652" on="0"/>
        <pt x="425" y="642" on="0"/>
      </contour>
    </TTGlyph>
    <TTGlyph name="dieresis.case" xMin="215" yMin="819" xMax="443" yMax="868">
      <contour>
        <pt x="235" y="819" on="1"/>
        <pt x="223" y="819" on="0"/>
        <pt x="215" y="830" on="0"/>
        <pt x="215" y="836" on="1"/>
        <pt x="215" y="842" on="0"/>
        <pt x="218" y="851" on="1"/>
        <pt x="220" y="858" on="0"/>
        <pt x="229" y="868" on="0"/>
        <pt x="241" y="868" on="1"/>
        <pt x="253" y="868" on="0"/>
        <pt x="261" y="857" on="0"/>
        <pt x="261" y="851" on="1"/>
        <pt x="261" y="845" on="0"/>
        <pt x="258" y="836" on="1"/>
        <pt x="256" y="829" on="0"/>
        <pt x="247" y="819" on="0"/>
      </contour>
      <contour>
        <pt x="417" y="819" on="1"/>
        <pt x="405" y="819" on="0"/>
        <pt x="397" y="830" on="0"/>
        <pt x="397" y="836" on="1"/>
        <pt x="397" y="842" on="0"/>
        <pt x="400" y="851" on="1"/>
        <pt x="402" y="858" on="0"/>
        <pt x="411" y="868" on="0"/>
        <pt x="423" y="868" on="1"/>
        <pt x="435" y="868" on="0"/>
        <pt x="443" y="857" on="0"/>
        <pt x="443" y="851" on="1"/>
        <pt x="443" y="845" on="0"/>
        <pt x="440" y="836" on="1"/>
        <pt x="438" y="829" on="0"/>
        <pt x="429" y="819" on="0"/>
      </contour>
    </TTGlyph>
    <TTGlyph name="dieresisacute" xMin="-91" yMin="634" xMax="171" yMax="861">
      <contour>
        <pt x="24" y="697" on="1"/>
        <pt x="11" y="708" on="1"/>
        <pt x="154" y="861" on="1"/>
        <pt x="171" y="848" on="1"/>
      </contour>
      <contour>
        <pt x="-71" y="634" on="1"/>
        <pt x="-83" y="634" on="0"/>
        <pt x="-91" y="645" on="0"/>
        <pt x="-91" y="651" on="1"/>
        <pt x="-91" y="657" on="0"/>
        <pt x="-88" y="666" on="1"/>
        <pt x="-86" y="673" on="0"/>
        <pt x="-77" y="683" on="0"/>
        <pt x="-65" y="683" on="1"/>
        <pt x="-53" y="683" on="0"/>
        <pt x="-45" y="672" on="0"/>
        <pt x="-45" y="666" on="1"/>
        <pt x="-45" y="660" on="0"/>
        <pt x="-48" y="651" on="1"/>
        <pt x="-50" y="644" on="0"/>
        <pt x="-59" y="634" on="0"/>
      </contour>
      <contour>
        <pt x="111" y="634" on="1"/>
        <pt x="99" y="634" on="0"/>
        <pt x="91" y="645" on="0"/>
        <pt x="91" y="651" on="1"/>
        <pt x="91" y="657" on="0"/>
        <pt x="94" y="666" on="1"/>
        <pt x="96" y="673" on="0"/>
        <pt x="105" y="683" on="0"/>
        <pt x="117" y="683" on="1"/>
        <pt x="129" y="683" on="0"/>
        <pt x="137" y="672" on="0"/>
        <pt x="137" y="666" on="1"/>
        <pt x="137" y="660" on="0"/>
        <pt x="134" y="651" on="1"/>
        <pt x="132" y="644" on="0"/>
        <pt x="123" y="634" on="0"/>
      </contour>
    </TTGlyph>
    <TTGlyph name="dieresisacute.case" xMin="-89" yMin="814" xMax="173" yMax="1041">
      <contour>
        <pt x="26" y="877" on="1"/>
        <pt x="13" y="888" on="1"/>
        <pt x="156" y="1041" on="1"/>
        <pt x="173" y="1028" on="1"/>
      </contour>
      <contour>
        <pt x="-69" y="814" on="1"/>
        <pt x="-81" y="814" on="0"/>
        <pt x="-89" y="825" on="0"/>
        <pt x="-89" y="831" on="1"/>
        <pt x="-89" y="837" on="0"/>
        <pt x="-86" y="846" on="1"/>
        <pt x="-84" y="853" on="0"/>
        <pt x="-75" y="863" on="0"/>
        <pt x="-63" y="863" on="1"/>
        <pt x="-51" y="863" on="0"/>
        <pt x="-43" y="852" on="0"/>
        <pt x="-43" y="846" on="1"/>
        <pt x="-43" y="840" on="0"/>
        <pt x="-46" y="831" on="1"/>
        <pt x="-48" y="824" on="0"/>
        <pt x="-57" y="814" on="0"/>
      </contour>
      <contour>
        <pt x="113" y="814" on="1"/>
        <pt x="101" y="814" on="0"/>
        <pt x="93" y="825" on="0"/>
        <pt x="93" y="831" on="1"/>
        <pt x="93" y="837" on="0"/>
        <pt x="96" y="846" on="1"/>
        <pt x="98" y="853" on="0"/>
        <pt x="107" y="863" on="0"/>
        <pt x="119" y="863" on="1"/>
        <pt x="131" y="863" on="0"/>
        <pt x="139" y="852" on="0"/>
        <pt x="139" y="846" on="1"/>
        <pt x="139" y="840" on="0"/>
        <pt x="136" y="831" on="1"/>
        <pt x="134" y="824" on="0"/>
        <pt x="125" y="814" on="0"/>
      </contour>
    </TTGlyph>
    <TTGlyph name="dieresiscaron" xMin="-91" yMin="634" xMax="197" yMax="848">
      <contour>
        <pt x="23" y="704" on="1"/>
        <pt x="-83" y="838" on="1"/>
        <pt x="-68" y="848" on="1"/>
        <pt x="36" y="721" on="1"/>
        <pt x="184" y="848" on="1"/>
        <pt x="197" y="836" on="1"/>
        <pt x="47" y="704" on="1"/>
      </contour>
      <contour>
        <pt x="-71" y="634" on="1"/>
        <pt x="-83" y="634" on="0"/>
        <pt x="-91" y="645" on="0"/>
        <pt x="-91" y="651" on="1"/>
        <pt x="-91" y="657" on="0"/>
        <pt x="-88" y="666" on="1"/>
        <pt x="-86" y="673" on="0"/>
        <pt x="-77" y="683" on="0"/>
        <pt x="-65" y="683" on="1"/>
        <pt x="-53" y="683" on="0"/>
        <pt x="-45" y="672" on="0"/>
        <pt x="-45" y="666" on="1"/>
        <pt x="-45" y="660" on="0"/>
        <pt x="-48" y="651" on="1"/>
        <pt x="-50" y="644" on="0"/>
        <pt x="-59" y="634" on="0"/>
      </contour>
      <contour>
        <pt x="111" y="634" on="1"/>
        <pt x="99" y="634" on="0"/>
        <pt x="91" y="645" on="0"/>
        <pt x="91" y="651" on="1"/>
        <pt x="91" y="657" on="0"/>
        <pt x="94" y="666" on="1"/>
        <pt x="96" y="673" on="0"/>
        <pt x="105" y="683" on="0"/>
        <pt x="117" y="683" on="1"/>
        <pt x="129" y="683" on="0"/>
        <pt x="137" y="672" on="0"/>
        <pt x="137" y="666" on="1"/>
        <pt x="137" y="660" on="0"/>
        <pt x="134" y="651" on="1"/>
        <pt x="132" y="644" on="0"/>
        <pt x="123" y="634" on="0"/>
      </contour>
    </TTGlyph>
    <TTGlyph name="dieresiscaron.case" xMin="-89" yMin="814" xMax="199" yMax="1028">
      <contour>
        <pt x="25" y="884" on="1"/>
        <pt x="-81" y="1018" on="1"/>
        <pt x="-66" y="1028" on="1"/>
        <pt x="38" y="901" on="1"/>
        <pt x="186" y="1028" on="1"/>
        <pt x="199" y="1016" on="1"/>
        <pt x="49" y="884" on="1"/>
      </contour>
      <contour>
        <pt x="-69" y="814" on="1"/>
        <pt x="-81" y="814" on="0"/>
        <pt x="-89" y="825" on="0"/>
        <pt x="-89" y="831" on="1"/>
        <pt x="-89" y="837" on="0"/>
        <pt x="-86" y="846" on="1"/>
        <pt x="-84" y="853" on="0"/>
        <pt x="-75" y="863" on="0"/>
        <pt x="-63" y="863" on="1"/>
        <pt x="-51" y="863" on="0"/>
        <pt x="-43" y="852" on="0"/>
        <pt x="-43" y="846" on="1"/>
        <pt x="-43" y="840" on="0"/>
        <pt x="-46" y="831" on="1"/>
        <pt x="-48" y="824" on="0"/>
        <pt x="-57" y="814" on="0"/>
      </contour>
      <contour>
        <pt x="113" y="814" on="1"/>
        <pt x="101" y="814" on="0"/>
        <pt x="93" y="825" on="0"/>
        <pt x="93" y="831" on="1"/>
        <pt x="93" y="837" on="0"/>
        <pt x="96" y="846" on="1"/>
        <pt x="98" y="853" on="0"/>
        <pt x="107" y="863" on="0"/>
        <pt x="119" y="863" on="1"/>
        <pt x="131" y="863" on="0"/>
        <pt x="139" y="852" on="0"/>
        <pt x="139" y="846" on="1"/>
        <pt x="139" y="840" on="0"/>
        <pt x="136" y="831" on="1"/>
        <pt x="134" y="824" on="0"/>
        <pt x="125" y="814" on="0"/>
      </contour>
    </TTGlyph>
    <TTGlyph name="dieresisgrave" xMin="-91" yMin="634" xMax="137" yMax="861">
      <contour>
        <pt x="-57" y="850" on="1"/>
        <pt x="-38" y="861" on="1"/>
        <pt x="43" y="706" on="1"/>
        <pt x="27" y="697" on="1"/>
      </contour>
      <contour>
        <pt x="-71" y="634" on="1"/>
        <pt x="-83" y="634" on="0"/>
        <pt x="-91" y="645" on="0"/>
        <pt x="-91" y="651" on="1"/>
        <pt x="-91" y="657" on="0"/>
        <pt x="-88" y="666" on="1"/>
        <pt x="-86" y="673" on="0"/>
        <pt x="-77" y="683" on="0"/>
        <pt x="-65" y="683" on="1"/>
        <pt x="-53" y="683" on="0"/>
        <pt x="-45" y="672" on="0"/>
        <pt x="-45" y="666" on="1"/>
        <pt x="-45" y="660" on="0"/>
        <pt x="-48" y="651" on="1"/>
        <pt x="-50" y="644" on="0"/>
        <pt x="-59" y="634" on="0"/>
      </contour>
      <contour>
        <pt x="111" y="634" on="1"/>
        <pt x="99" y="634" on="0"/>
        <pt x="91" y="645" on="0"/>
        <pt x="91" y="651" on="1"/>
        <pt x="91" y="657" on="0"/>
        <pt x="94" y="666" on="1"/>
        <pt x="96" y="673" on="0"/>
        <pt x="105" y="683" on="0"/>
        <pt x="117" y="683" on="1"/>
        <pt x="129" y="683" on="0"/>
        <pt x="137" y="672" on="0"/>
        <pt x="137" y="666" on="1"/>
        <pt x="137" y="660" on="0"/>
        <pt x="134" y="651" on="1"/>
        <pt x="132" y="644" on="0"/>
        <pt x="123" y="634" on="0"/>
      </contour>
    </TTGlyph>
    <TTGlyph name="dieresisgrave.case" xMin="-89" yMin="814" xMax="139" yMax="1041">
      <contour>
        <pt x="-55" y="1030" on="1"/>
        <pt x="-36" y="1041" on="1"/>
        <pt x="45" y="886" on="1"/>
        <pt x="29" y="877" on="1"/>
      </contour>
      <contour>
        <pt x="-69" y="814" on="1"/>
        <pt x="-81" y="814" on="0"/>
        <pt x="-89" y="825" on="0"/>
        <pt x="-89" y="831" on="1"/>
        <pt x="-89" y="837" on="0"/>
        <pt x="-86" y="846" on="1"/>
        <pt x="-84" y="853" on="0"/>
        <pt x="-75" y="863" on="0"/>
        <pt x="-63" y="863" on="1"/>
        <pt x="-51" y="863" on="0"/>
        <pt x="-43" y="852" on="0"/>
        <pt x="-43" y="846" on="1"/>
        <pt x="-43" y="840" on="0"/>
        <pt x="-46" y="831" on="1"/>
        <pt x="-48" y="824" on="0"/>
        <pt x="-57" y="814" on="0"/>
      </contour>
      <contour>
        <pt x="113" y="814" on="1"/>
        <pt x="101" y="814" on="0"/>
        <pt x="93" y="825" on="0"/>
        <pt x="93" y="831" on="1"/>
        <pt x="93" y="837" on="0"/>
        <pt x="96" y="846" on="1"/>
        <pt x="98" y="853" on="0"/>
        <pt x="107" y="863" on="0"/>
        <pt x="119" y="863" on="1"/>
        <pt x="131" y="863" on="0"/>
        <pt x="139" y="852" on="0"/>
        <pt x="139" y="846" on="1"/>
        <pt x="139" y="840" on="0"/>
        <pt x="136" y="831" on="1"/>
        <pt x="134" y="824" on="0"/>
        <pt x="125" y="814" on="0"/>
      </contour>
    </TTGlyph>
    <TTGlyph name="dieresismacron" xMin="-91" yMin="634" xMax="168" yMax="796">
      <contour>
        <pt x="-67" y="796" on="1"/>
        <pt x="168" y="796" on="1"/>
        <pt x="165" y="778" on="1"/>
        <pt x="-70" y="778" on="1"/>
      </contour>
      <contour>
        <pt x="-71" y="634" on="1"/>
        <pt x="-83" y="634" on="0"/>
        <pt x="-91" y="645" on="0"/>
        <pt x="-91" y="651" on="1"/>
        <pt x="-91" y="657" on="0"/>
        <pt x="-88" y="666" on="1"/>
        <pt x="-86" y="673" on="0"/>
        <pt x="-77" y="683" on="0"/>
        <pt x="-65" y="683" on="1"/>
        <pt x="-53" y="683" on="0"/>
        <pt x="-45" y="672" on="0"/>
        <pt x="-45" y="666" on="1"/>
        <pt x="-45" y="660" on="0"/>
        <pt x="-48" y="651" on="1"/>
        <pt x="-50" y="644" on="0"/>
        <pt x="-59" y="634" on="0"/>
      </contour>
      <contour>
        <pt x="111" y="634" on="1"/>
        <pt x="99" y="634" on="0"/>
        <pt x="91" y="645" on="0"/>
        <pt x="91" y="651" on="1"/>
        <pt x="91" y="657" on="0"/>
        <pt x="94" y="666" on="1"/>
        <pt x="96" y="673" on="0"/>
        <pt x="105" y="683" on="0"/>
        <pt x="117" y="683" on="1"/>
        <pt x="129" y="683" on="0"/>
        <pt x="137" y="672" on="0"/>
        <pt x="137" y="666" on="1"/>
        <pt x="137" y="660" on="0"/>
        <pt x="134" y="651" on="1"/>
        <pt x="132" y="644" on="0"/>
        <pt x="123" y="634" on="0"/>
      </contour>
    </TTGlyph>
    <TTGlyph name="dieresismacron.case" xMin="-89" yMin="814" xMax="171" yMax="976">
      <contour>
        <pt x="-64" y="976" on="1"/>
        <pt x="171" y="976" on="1"/>
        <pt x="168" y="958" on="1"/>
        <pt x="-67" y="958" on="1"/>
      </contour>
      <contour>
        <pt x="-69" y="814" on="1"/>
        <pt x="-81" y="814" on="0"/>
        <pt x="-89" y="825" on="0"/>
        <pt x="-89" y="831" on="1"/>
        <pt x="-89" y="837" on="0"/>
        <pt x="-86" y="846" on="1"/>
        <pt x="-84" y="853" on="0"/>
        <pt x="-75" y="863" on="0"/>
        <pt x="-63" y="863" on="1"/>
        <pt x="-51" y="863" on="0"/>
        <pt x="-43" y="852" on="0"/>
        <pt x="-43" y="846" on="1"/>
        <pt x="-43" y="840" on="0"/>
        <pt x="-46" y="831" on="1"/>
        <pt x="-48" y="824" on="0"/>
        <pt x="-57" y="814" on="0"/>
      </contour>
      <contour>
        <pt x="113" y="814" on="1"/>
        <pt x="101" y="814" on="0"/>
        <pt x="93" y="825" on="0"/>
        <pt x="93" y="831" on="1"/>
        <pt x="93" y="837" on="0"/>
        <pt x="96" y="846" on="1"/>
        <pt x="98" y="853" on="0"/>
        <pt x="107" y="863" on="0"/>
        <pt x="119" y="863" on="1"/>
        <pt x="131" y="863" on="0"/>
        <pt x="139" y="852" on="0"/>
        <pt x="139" y="846" on="1"/>
        <pt x="139" y="840" on="0"/>
        <pt x="136" y="831" on="1"/>
        <pt x="134" y="824" on="0"/>
        <pt x="125" y="814" on="0"/>
      </contour>
    </TTGlyph>
    <TTGlyph name="dieresistonos" xMin="266" yMin="587" xMax="486" yMax="751">
      <contour>
        <pt x="335" y="587" on="1"/>
        <pt x="320" y="594" on="1"/>
        <pt x="417" y="751" on="1"/>
        <pt x="435" y="742" on="1"/>
      </contour>
      <contour>
        <pt x="286" y="642" on="1"/>
        <pt x="274" y="642" on="0"/>
        <pt x="266" y="653" on="0"/>
        <pt x="266" y="659" on="1"/>
        <pt x="266" y="665" on="0"/>
        <pt x="269" y="674" on="1"/>
        <pt x="271" y="681" on="0"/>
        <pt x="280" y="691" on="0"/>
        <pt x="292" y="691" on="1"/>
        <pt x="304" y="691" on="0"/>
        <pt x="312" y="680" on="0"/>
        <pt x="312" y="674" on="1"/>
        <pt x="312" y="668" on="0"/>
        <pt x="309" y="659" on="1"/>
        <pt x="307" y="652" on="0"/>
        <pt x="298" y="642" on="0"/>
      </contour>
      <contour>
        <pt x="460" y="642" on="1"/>
        <pt x="448" y="642" on="0"/>
        <pt x="440" y="653" on="0"/>
        <pt x="440" y="659" on="1"/>
        <pt x="440" y="665" on="0"/>
        <pt x="443" y="674" on="1"/>
        <pt x="445" y="681" on="0"/>
        <pt x="454" y="691" on="0"/>
        <pt x="466" y="691" on="1"/>
        <pt x="478" y="691" on="0"/>
        <pt x="486" y="680" on="0"/>
        <pt x="486" y="674" on="1"/>
        <pt x="486" y="668" on="0"/>
        <pt x="483" y="659" on="1"/>
        <pt x="481" y="652" on="0"/>
        <pt x="472" y="642" on="0"/>
      </contour>
    </TTGlyph>
    <TTGlyph name="divide" xMin="71" yMin="81" xMax="551" yMax="530">
      <contour>
        <pt x="71" y="296" on="1"/>
        <pt x="75" y="315" on="1"/>
        <pt x="551" y="315" on="1"/>
        <pt x="547" y="296" on="1"/>
      </contour>
      <contour>
        <pt x="270" y="81" on="1"/>
        <pt x="253" y="81" on="0"/>
        <pt x="241" y="93" on="0"/>
        <pt x="241" y="100" on="1"/>
        <pt x="241" y="104" on="0"/>
        <pt x="243" y="118" on="0"/>
        <pt x="244" y="122" on="1"/>
        <pt x="246" y="130" on="0"/>
        <pt x="259" y="143" on="0"/>
        <pt x="276" y="143" on="1"/>
        <pt x="292" y="143" on="0"/>
        <pt x="304" y="131" on="0"/>
        <pt x="304" y="124" on="1"/>
        <pt x="304" y="120" on="0"/>
        <pt x="302" y="106" on="0"/>
        <pt x="301" y="102" on="1"/>
        <pt x="299" y="94" on="0"/>
        <pt x="287" y="81" on="0"/>
      </contour>
      <contour>
        <pt x="348" y="468" on="1"/>
        <pt x="331" y="468" on="0"/>
        <pt x="319" y="480" on="0"/>
        <pt x="319" y="487" on="1"/>
        <pt x="319" y="491" on="0"/>
        <pt x="321" y="505" on="0"/>
        <pt x="322" y="509" on="1"/>
        <pt x="324" y="517" on="0"/>
        <pt x="337" y="530" on="0"/>
        <pt x="354" y="530" on="1"/>
        <pt x="370" y="530" on="0"/>
        <pt x="382" y="518" on="0"/>
        <pt x="382" y="511" on="1"/>
        <pt x="382" y="507" on="0"/>
        <pt x="380" y="493" on="0"/>
        <pt x="379" y="489" on="1"/>
        <pt x="377" y="481" on="0"/>
        <pt x="365" y="468" on="0"/>
      </contour>
    </TTGlyph>
    <TTGlyph name="dollar" xMin="14" yMin="-82" xMax="528" yMax="780">
      <contour>
        <pt x="210" y="1" on="1"/>
        <pt x="135" y="6" on="0"/>
        <pt x="43" y="65" on="0"/>
        <pt x="14" y="113" on="1"/>
        <pt x="32" y="126" on="1"/>
        <pt x="59" y="80" on="0"/>
        <pt x="144" y="25" on="0"/>
        <pt x="213" y="21" on="1"/>
        <pt x="279" y="348" on="1"/>
        <pt x="242" y="358" on="1"/>
        <pt x="174" y="376" on="0"/>
        <pt x="110" y="452" on="0"/>
        <pt x="110" y="513" on="1"/>
        <pt x="110" y="550" on="0"/>
        <pt x="137" y="618" on="0"/>
        <pt x="192" y="668" on="0"/>
        <pt x="275" y="698" on="0"/>
        <pt x="331" y="698" on="1"/>
        <pt x="349" y="698" on="1"/>
        <pt x="365" y="780" on="1"/>
        <pt x="385" y="780" on="1"/>
        <pt x="368" y="697" on="1"/>
        <pt x="402" y="694" on="0"/>
        <pt x="451" y="679" on="0"/>
        <pt x="489" y="655" on="0"/>
        <pt x="517" y="621" on="0"/>
        <pt x="528" y="600" on="1"/>
        <pt x="510" y="589" on="1"/>
        <pt x="486" y="632" on="0"/>
        <pt x="422" y="673" on="0"/>
        <pt x="364" y="677" on="1"/>
        <pt x="302" y="362" on="1"/>
        <pt x="333" y="354" on="1"/>
        <pt x="469" y="319" on="0"/>
        <pt x="469" y="201" on="1"/>
        <pt x="469" y="160" on="0"/>
        <pt x="442" y="87" on="0"/>
        <pt x="386" y="32" on="0"/>
        <pt x="298" y="0" on="0"/>
        <pt x="238" y="0" on="1"/>
        <pt x="229" y="0" on="1"/>
        <pt x="213" y="-82" on="1"/>
        <pt x="193" y="-82" on="1"/>
      </contour>
      <contour>
        <pt x="298" y="344" on="1"/>
        <pt x="233" y="20" on="1"/>
        <pt x="239" y="20" on="1"/>
        <pt x="295" y="20" on="0"/>
        <pt x="374" y="49" on="0"/>
        <pt x="424" y="99" on="0"/>
        <pt x="447" y="165" on="0"/>
        <pt x="447" y="201" on="1"/>
        <pt x="447" y="256" on="0"/>
        <pt x="391" y="319" on="0"/>
        <pt x="328" y="336" on="1"/>
      </contour>
      <contour>
        <pt x="132" y="513" on="1"/>
        <pt x="132" y="457" on="0"/>
        <pt x="187" y="392" on="0"/>
        <pt x="248" y="376" on="1"/>
        <pt x="283" y="367" on="1"/>
        <pt x="345" y="678" on="1"/>
        <pt x="330" y="678" on="1"/>
        <pt x="279" y="678" on="0"/>
        <pt x="204" y="651" on="0"/>
        <pt x="155" y="606" on="0"/>
        <pt x="132" y="546" on="0"/>
      </contour>
    </TTGlyph>
    <TTGlyph name="dotaccent" xMin="301" yMin="642" xMax="347" yMax="691">
      <contour>
        <pt x="321" y="642" on="1"/>
        <pt x="309" y="642" on="0"/>
        <pt x="301" y="653" on="0"/>
        <pt x="301" y="659" on="1"/>
        <pt x="301" y="665" on="0"/>
        <pt x="304" y="674" on="1"/>
        <pt x="306" y="681" on="0"/>
        <pt x="315" y="691" on="0"/>
        <pt x="327" y="691" on="1"/>
        <pt x="339" y="691" on="0"/>
        <pt x="347" y="680" on="0"/>
        <pt x="347" y="674" on="1"/>
        <pt x="347" y="668" on="0"/>
        <pt x="344" y="659" on="1"/>
        <pt x="342" y="652" on="0"/>
        <pt x="333" y="642" on="0"/>
      </contour>
    </TTGlyph>
</ttFont>
